<svg xmlns="http://www.w3.org/2000/svg" viewBox="0 0 199.01 75.74"><g id="Calque_2" data-name="Calque 2"><g id="TEXT_AND_INFOS" data-name="TEXT AND INFOS"><polygon points="19.47 29.76 19.47 45.99 33.52 54.1 47.58 45.99 47.58 29.76 33.52 21.64 19.47 29.76" style="fill:#001670"/><path d="M38.93,5.41a5.41,5.41,0,1,0-7.17,5.11l1.76,8.42,1.77-8.42A5.4,5.4,0,0,0,38.93,5.41Z" style="fill:#001670"/><path d="M28.11,70.33a5.41,5.41,0,1,0,7.18-5.11l-1.77-8.41-1.76,8.41A5.43,5.43,0,0,0,28.11,70.33Z" style="fill:#001670"/><path d="M8.12,17A5.41,5.41,0,1,0,9,25.72l8.17,2.68-6.4-5.73A5.41,5.41,0,0,0,8.12,17Z" style="fill:#001670"/><path d="M58.93,58.79A5.41,5.41,0,1,0,58.09,50l-8.17-2.68,6.41,5.74A5.41,5.41,0,0,0,58.93,58.79Z" style="fill:#001670"/><path d="M58.93,17a5.41,5.41,0,1,1-.84,8.76L49.92,28.4l6.41-5.73A5.39,5.39,0,0,1,58.93,17Z" style="fill:#001670"/><path d="M8.12,58.79A5.41,5.41,0,1,1,9,50l8.17-2.68-6.4,5.74A5.42,5.42,0,0,1,8.12,58.79Z" style="fill:#001670"/><path d="M88.29,35A12.33,12.33,0,0,1,101,22.33a12.75,12.75,0,0,1,10.54,5l-4.93,3.48A6.28,6.28,0,0,0,101,27.91,6.87,6.87,0,0,0,94.17,35a6.69,6.69,0,0,0,7,7.06,5.58,5.58,0,0,0,5.67-3.85H100V32.74h13.24v2.8a11.83,11.83,0,0,1-12,12.13,12.5,12.5,0,0,1-11.11-5.89A13.11,13.11,0,0,1,88.29,35Z" style="fill:#001670"/><path d="M124.29,38.21a9.42,9.42,0,0,1,9.6-9.49,9.13,9.13,0,0,1,9.49,9.39v2H129.8a4.58,4.58,0,0,0,8,.91l4.6,2.67c-1.86,2.5-4.36,4-8.45,4C128,47.67,124.29,43.51,124.29,38.21Zm5.68-2.3h7.8a3.79,3.79,0,0,0-3.85-2.46A4.2,4.2,0,0,0,130,35.91Z" style="fill:#001670"/><path d="M145.91,29.09h5.71v2.13a5.93,5.93,0,0,1,4.9-2.5c4,0,6.62,2.67,6.62,7.16V47.33H157.3V37c0-2.1-.92-3.31-2.77-3.31-1.66,0-2.88,1.18-2.88,3.58v10h-5.74Z" style="fill:#001670"/><path d="M193.13,29.09l-3.71,10.34-3-7.77a4,4,0,0,0-3.75-2.57h-9v-7L168,25.14v3.95h-3.15v5H168v6.32c0,5.4,2.33,7.26,6.38,7.26a7.93,7.93,0,0,0,4.86-1.62l-2.56-4.29a2.12,2.12,0,0,1-1.49.64c-1,0-1.59-.47-1.59-2.33v-6h6.79a1.46,1.46,0,0,1,1.36.91l4.76,11.69-.27.68a3.15,3.15,0,0,1-3.11,2.39,3.33,3.33,0,0,1-2.47-1.15l-3.24,4.46a9.91,9.91,0,0,0,5.77,2c4.16,0,6.22-1.65,8.18-6.65L199,29.09Z" style="fill:#001670"/><path d="M116.09,23.78l5.64-3.07V47.33h-5.64Z" style="fill:#001670"/></g></g></svg>