<svg xmlns="http://www.w3.org/2000/svg" xmlns:xlink="http://www.w3.org/1999/xlink" viewBox="0 0 480.02 480.44"><defs><linearGradient id="Dégradé_sans_nom_132" x1="597.39" y1="559.85" x2="66.65" y2="122.23" gradientUnits="userSpaceOnUse"><stop offset="0" stop-color="#312783" stop-opacity="0"/><stop offset="1" stop-color="#312783"/></linearGradient><linearGradient id="Dégradé_sans_nom_926" x1="85.85" y1="208.68" x2="257.85" y2="208.68" gradientUnits="userSpaceOnUse"><stop offset="0" stop-color="#788cff" stop-opacity="0"/><stop offset="0.22" stop-color="#9baaff" stop-opacity="0.26"/><stop offset="0.5" stop-color="#c6ceff" stop-opacity="0.57"/><stop offset="0.74" stop-color="#e5e8ff" stop-opacity="0.8"/><stop offset="0.91" stop-color="#f8f9ff" stop-opacity="0.95"/><stop offset="1" stop-color="#fff"/></linearGradient><linearGradient id="Dégradé_sans_nom_926-2" x1="72.4" y1="121.5" x2="193.29" y2="202.63" xlink:href="#Dégradé_sans_nom_926"/><linearGradient id="Dégradé_sans_nom_926-3" x1="293.57" y1="204.73" x2="212.47" y2="196.62" xlink:href="#Dégradé_sans_nom_926"/><linearGradient id="Dégradé_sans_nom_926-4" x1="273.93" y1="144.71" x2="326.8" y2="113.12" xlink:href="#Dégradé_sans_nom_926"/><linearGradient id="Dégradé_sans_nom_926-5" x1="224.36" y1="190.66" x2="263.16" y2="190.66" xlink:href="#Dégradé_sans_nom_926"/><linearGradient id="Dégradé_sans_nom_926-6" x1="82.04" y1="219.38" x2="192.92" y2="338.24" xlink:href="#Dégradé_sans_nom_926"/><linearGradient id="Dégradé_sans_nom_926-7" x1="52.72" y1="264.28" x2="71.35" y2="263.62" xlink:href="#Dégradé_sans_nom_926"/><linearGradient id="Dégradé_sans_nom_926-8" x1="141.04" y1="253.51" x2="149.27" y2="318.94" xlink:href="#Dégradé_sans_nom_926"/><linearGradient id="Dégradé_sans_nom_926-9" x1="149.66" y1="276.74" x2="141.5" y2="217.53" xlink:href="#Dégradé_sans_nom_926"/><linearGradient id="Dégradé_sans_nom_926-10" x1="158.23" y1="275.43" x2="150.59" y2="219.98" xlink:href="#Dégradé_sans_nom_926"/><linearGradient id="Dégradé_sans_nom_926-11" x1="57.77" y1="310.71" x2="224.58" y2="310.71" xlink:href="#Dégradé_sans_nom_926"/><linearGradient id="Dégradé_sans_nom_926-12" x1="132.87" y1="360.43" x2="53.45" y2="390.92" xlink:href="#Dégradé_sans_nom_926"/><linearGradient id="Dégradé_sans_nom_926-13" x1="188.39" y1="310.46" x2="244.41" y2="343.43" xlink:href="#Dégradé_sans_nom_926"/><linearGradient id="Dégradé_sans_nom_926-14" x1="274.01" y1="396.56" x2="380.91" y2="56.2" xlink:href="#Dégradé_sans_nom_926"/><linearGradient id="Dégradé_sans_nom_926-15" x1="361.44" y1="206.4" x2="404.34" y2="119.54" xlink:href="#Dégradé_sans_nom_926"/><linearGradient id="Dégradé_sans_nom_123" x1="288.57" y1="136.16" x2="290.11" y2="80.74" gradientUnits="userSpaceOnUse"><stop offset="0.29" stop-color="#f2ba2e" stop-opacity="0"/><stop offset="0.99" stop-color="#f2ba2e"/></linearGradient><linearGradient id="Dégradé_sans_nom_926-16" x1="224.58" y1="198.97" x2="348.76" y2="198.97" xlink:href="#Dégradé_sans_nom_926"/><linearGradient id="Dégradé_sans_nom_134" x1="53.09" y1="108.53" x2="211.57" y2="214.9" gradientUnits="userSpaceOnUse"><stop offset="0" stop-color="#003028" stop-opacity="0"/><stop offset="0.96" stop-color="#005e28"/></linearGradient><linearGradient id="Dégradé_sans_nom_926-18" x1="224.36" y1="199.72" x2="338.95" y2="199.72" xlink:href="#Dégradé_sans_nom_926"/><linearGradient id="Dégradé_sans_nom_44" x1="156.65" y1="280.09" x2="71.92" y2="189.68" gradientUnits="userSpaceOnUse"><stop offset="0" stop-color="#c382b7" stop-opacity="0"/><stop offset="1" stop-color="#e76dc7"/></linearGradient><linearGradient id="Dégradé_sans_nom_114" x1="147.79" y1="287.21" x2="100.56" y2="247.31" gradientUnits="userSpaceOnUse"><stop offset="0.2" stop-color="#a3a6ba" stop-opacity="0.24"/><stop offset="0.94" stop-color="#a3a6ba"/></linearGradient><linearGradient id="Dégradé_sans_nom_926-19" x1="95.58" y1="302.05" x2="46.65" y2="341.05" xlink:href="#Dégradé_sans_nom_926"/><linearGradient id="Dégradé_sans_nom_129" x1="58.52" y1="409.18" x2="202.91" y2="310.26" gradientUnits="userSpaceOnUse"><stop offset="0" stop-color="#454a75" stop-opacity="0"/><stop offset="1" stop-color="#001670"/></linearGradient><radialGradient id="Dégradé_sans_nom_130" cx="288.29" cy="342.91" r="267.03" xlink:href="#Dégradé_sans_nom_926"/><linearGradient id="Dégradé_sans_nom_926-20" x1="212.71" y1="410.46" x2="205.53" y2="353.02" xlink:href="#Dégradé_sans_nom_926"/><linearGradient id="Dégradé_sans_nom_926-21" x1="143.19" y1="462.59" x2="149.57" y2="264.4" xlink:href="#Dégradé_sans_nom_926"/><linearGradient id="Dégradé_sans_nom_123-2" x1="441.67" y1="375.55" x2="229.48" y2="228.77" xlink:href="#Dégradé_sans_nom_123"/><linearGradient id="Dégradé_sans_nom_120" x1="220.95" y1="116.12" x2="284.41" y2="193.41" gradientUnits="userSpaceOnUse"><stop offset="0.02" stop-color="#1d1d1b" stop-opacity="0"/><stop offset="1"/></linearGradient></defs><g id="Calque_2" data-name="Calque 2"><g id="TEXT_AND_INFOS" data-name="TEXT AND INFOS"><rect width="480.02" height="480.44" rx="26.43" style="fill:#788cff"/><path d="M0,63.87V454a26.43,26.43,0,0,0,26.43,26.43H453.58A26.44,26.44,0,0,0,480,454V63.87Z" style="fill:url(#Dégradé_sans_nom_132)"/><path d="M257.85,152.9c-65.59.52-135.21,37.91-164.22,91.26a115.78,115.78,0,0,0-7.78,17.53l137.2,2.76Z" style="fill:url(#Dégradé_sans_nom_926)"/><path d="M252.13,153l5.72-19.19c-65.59.52-135.21,37.91-164.22,91.26a115.34,115.34,0,0,0-7.78,17.53l8.53.17C123,191.72,188.81,155.59,252.13,153Z" style="fill:url(#Dégradé_sans_nom_926-2)"/><path d="M263.16,135.89l-5.31,17-34.8,111.55,1.53,0,100-96.62L339,154C318.77,142.51,293,135.89,263.16,135.89Z" style="fill:url(#Dégradé_sans_nom_926-3)"/><path d="M263.16,135.89c23.89,0,45.19,4.26,63.1,11.86L339,135c-20.18-11.49-46-18.11-75.79-18.11Z" style="fill:url(#Dégradé_sans_nom_926-4)"/><path d="M263.16,135.89l-5.31,17L224.58,264.48s-.51-19.06,0-19.05l38.58-128.59Z" style="fill:url(#Dégradé_sans_nom_926-5)"/><path d="M224.57,264.49h0l-1.53,0-137.2-2.76-17.56-.35c-5.44,15.85-7,31.42-5.1,45.52C107.6,295.3,167.33,279.4,224.57,264.49Z" style="fill:url(#Dégradé_sans_nom_926-6)"/><path d="M68.29,261.34V242.28c-5.17,15.07-6.82,29.57-5.37,43.08A107.9,107.9,0,0,1,68.29,261.34Z" style="fill:url(#Dégradé_sans_nom_926-7)"/><path d="M224.57,264.49h0c-.51,0,0-19.05,0-19.05l-161.42,42c0,.12,0,19.54,0,19.39C107.6,295.3,167.33,279.4,224.57,264.49Z" style="fill:url(#Dégradé_sans_nom_926-8)"/><path d="M68.29,242.28c0,4.5-.36,10.7,0,19.06l156.29,3.14V245.43C224.2,245.32,97.52,242.92,68.29,242.28Z" style="fill:url(#Dégradé_sans_nom_926-9)"/><path d="M85.85,242.64c0,4.5-.32,10.7,0,19.05l138.73,2.79V245.43C224.25,245.32,111.75,243.28,85.85,242.64Z" style="fill:url(#Dégradé_sans_nom_926-10)"/><path d="M224.58,264.48c-59.33,15.45-120.67,31.78-166.7,43.77l-.11,0A86.58,86.58,0,0,0,81,356.93L224.57,265.4Z" style="fill:url(#Dégradé_sans_nom_926-11)"/><path d="M224.57,265.4h0L78.85,358.62,72,363c25.18,26.81,65.68,39.57,110.15,38.34Z" style="fill:url(#Dégradé_sans_nom_926-12)"/><polyline points="224.57 264.5 224.57 264.49 224.57 264.49 224.59 245.43 184.09 375.21 184.09 394.26" style="fill:url(#Dégradé_sans_nom_926-13)"/><path d="M348.76,164.22,224.58,272.48h0L181.82,423.32c95.26,0,191.73-61.72,215.48-137.85C410.6,238.23,392.57,188.11,348.76,164.22Z" style="fill:url(#Dégradé_sans_nom_926-14)"/><path d="M348.76,164.22c28.21,15.39,45.73,41.65,51.08,71,10.68-46.89-10-87.35-51.08-109.76Z" style="fill:url(#Dégradé_sans_nom_926-15)"/><path d="M348.76,144.52,339,154,324.6,167.86l-87.93,69.83-12.1,26.8L241.68,231s53.11-52,107.08-105.48C348.76,129.92,348.77,134.66,348.76,144.52Z" style="opacity:0.84;fill:url(#Dégradé_sans_nom_123)"/><path d="M224.58,245.43v27.05L348.76,164.22V125.47C282.67,191.89,224.58,245.43,224.58,245.43Z" style="fill:url(#Dégradé_sans_nom_926-16)"/><path d="M224.58,245.43v27.05L348.76,164.22V125.47C282.67,191.89,224.58,245.43,224.58,245.43Z" style="fill:url(#Dégradé_sans_nom_926-16)"/><path d="M123.72,43a10.09,10.09,0,0,1-4-3.74,10.29,10.29,0,0,1-1.43-5.41,10.27,10.27,0,0,1,1.43-5.41,10,10,0,0,1,4-3.74,12.56,12.56,0,0,1,10.41-.42,9.6,9.6,0,0,1,3.58,2.67l-3,2.78a6.46,6.46,0,0,0-5.1-2.38,6.81,6.81,0,0,0-3.37.83,5.91,5.91,0,0,0-2.3,2.3,7.24,7.24,0,0,0,0,6.73,5.87,5.87,0,0,0,2.3,2.31,6.81,6.81,0,0,0,3.37.82,6.45,6.45,0,0,0,5.1-2.4l3,2.78a9.46,9.46,0,0,1-3.6,2.7,11.88,11.88,0,0,1-4.78.93A11.63,11.63,0,0,1,123.72,43Z" style="fill:#fff"/><path d="M153.42,44l-3.91-5.66h-4.33V44h-4.69V23.69h8.78a11.31,11.31,0,0,1,4.69.9,6.7,6.7,0,0,1,4.13,6.46,6.62,6.62,0,0,1-4.18,6.41L158.47,44Zm-1.19-15.56a4.92,4.92,0,0,0-3.22-.92h-3.83v7.08H149a4.87,4.87,0,0,0,3.22-.93,3.21,3.21,0,0,0,1.1-2.61A3.19,3.19,0,0,0,152.23,28.43Z" style="fill:#fff"/><path d="M170.65,36.8V44H166V36.74l-7.86-13h5l5.42,9,5.42-9h4.62Z" style="fill:#fff"/><path d="M194,24.59A7.28,7.28,0,0,1,197,35,6.85,6.85,0,0,1,194,37.51a11.46,11.46,0,0,1-4.68.88h-4.09V44h-4.7V23.69h8.79A11.29,11.29,0,0,1,194,24.59Zm-1.73,9.06a3.18,3.18,0,0,0,1.1-2.6,3.19,3.19,0,0,0-1.1-2.62,4.92,4.92,0,0,0-3.22-.92h-3.82v7.05H189A4.92,4.92,0,0,0,192.25,33.65Z" style="fill:#fff"/><path d="M206,27.51h-6.49V23.69h17.69v3.82h-6.5V44H206Z" style="fill:#fff"/><path d="M223.29,43a10.36,10.36,0,0,1,0-18.27,11.88,11.88,0,0,1,5.7-1.36,11.76,11.76,0,0,1,5.69,1.36,10.26,10.26,0,0,1,4,3.76,10.71,10.71,0,0,1,0,10.76,10.31,10.31,0,0,1-4,3.75A11.76,11.76,0,0,1,229,44.34,11.89,11.89,0,0,1,223.29,43Zm9-3.46a5.89,5.89,0,0,0,2.28-2.31,7.31,7.31,0,0,0,0-6.73,5.93,5.93,0,0,0-2.28-2.3,6.76,6.76,0,0,0-6.49,0,5.93,5.93,0,0,0-2.28,2.3,7.24,7.24,0,0,0,0,6.73,5.89,5.89,0,0,0,2.28,2.31,6.83,6.83,0,0,0,6.49,0Z" style="fill:#fff"/><path d="M245.39,43.68A10.93,10.93,0,0,1,241.78,42l1.59-3.54A10.89,10.89,0,0,0,246.48,40a11.77,11.77,0,0,0,3.59.58,5.7,5.7,0,0,0,3-.6,1.8,1.8,0,0,0,1-1.58,1.51,1.51,0,0,0-.57-1.2,4.24,4.24,0,0,0-1.45-.77c-.59-.2-1.39-.41-2.39-.64a33.18,33.18,0,0,1-3.8-1.1,6.23,6.23,0,0,1-2.54-1.77,4.81,4.81,0,0,1-1.06-3.25,5.61,5.61,0,0,1,1-3.2A6.42,6.42,0,0,1,246,24.18a11.74,11.74,0,0,1,4.71-.84,15.62,15.62,0,0,1,3.8.46,11.37,11.37,0,0,1,3.25,1.34l-1.45,3.56a11.36,11.36,0,0,0-5.63-1.59,5.19,5.19,0,0,0-2.91.64,1.94,1.94,0,0,0-1,1.68A1.65,1.65,0,0,0,247.94,31a17.13,17.13,0,0,0,3.32,1,35.36,35.36,0,0,1,3.8,1.1,6.35,6.35,0,0,1,2.54,1.74A4.71,4.71,0,0,1,258.66,38a5.55,5.55,0,0,1-1,3.18,6.53,6.53,0,0,1-2.91,2.27,11.9,11.9,0,0,1-4.73.85A16.43,16.43,0,0,1,245.39,43.68Z" style="fill:#fff"/><path d="M283.55,24.59a6.91,6.91,0,0,1,3.06,2.55,7,7,0,0,1,1.07,3.91,7,7,0,0,1-1.07,3.9,6.74,6.74,0,0,1-3.06,2.56,11.4,11.4,0,0,1-4.68.88h-4.09V44h-4.7V23.69h8.79A11.23,11.23,0,0,1,283.55,24.59Zm-1.72,9.06a3.21,3.21,0,0,0,1.1-2.6,3.22,3.22,0,0,0-1.1-2.62,4.94,4.94,0,0,0-3.22-.92h-3.83v7.05h3.83A4.94,4.94,0,0,0,281.83,33.65Z" style="fill:#fff"/><path d="M302.88,39.64h-9.42L291.66,44h-4.81l9-20.3h4.64L309.61,44h-4.93Zm-1.48-3.57-3.21-7.77L295,36.07Z" style="fill:#fff"/><path d="M324.57,44l-3.92-5.66h-4.32V44h-4.69V23.69h8.78a11.31,11.31,0,0,1,4.69.9,6.7,6.7,0,0,1,4.13,6.46,6.62,6.62,0,0,1-4.18,6.41L329.62,44Zm-1.19-15.56a4.92,4.92,0,0,0-3.22-.92h-3.83v7.08h3.83a4.87,4.87,0,0,0,3.22-.93,3.21,3.21,0,0,0,1.1-2.61A3.19,3.19,0,0,0,323.38,28.43Z" style="fill:#fff"/><path d="M337.12,27.51h-6.49V23.69h17.69v3.82h-6.5V44h-4.7Z" style="fill:#fff"/><path d="M353.06,43.68A10.93,10.93,0,0,1,349.45,42l1.6-3.54a10.83,10.83,0,0,0,3.1,1.54,11.88,11.88,0,0,0,3.6.58,5.68,5.68,0,0,0,2.95-.6,1.8,1.8,0,0,0,1-1.58,1.51,1.51,0,0,0-.57-1.2,4.15,4.15,0,0,0-1.45-.77c-.59-.2-1.38-.41-2.39-.64a33.8,33.8,0,0,1-3.8-1.1,6.2,6.2,0,0,1-2.53-1.77,4.76,4.76,0,0,1-1.06-3.25,5.67,5.67,0,0,1,.95-3.2,6.42,6.42,0,0,1,2.89-2.28,11.78,11.78,0,0,1,4.71-.84,15.56,15.56,0,0,1,3.8.46,11.25,11.25,0,0,1,3.25,1.34L364,28.7a11.36,11.36,0,0,0-5.63-1.59,5.23,5.23,0,0,0-2.91.64,1.93,1.93,0,0,0-.94,1.68A1.64,1.64,0,0,0,355.61,31a17.13,17.13,0,0,0,3.32,1,34.68,34.68,0,0,1,3.8,1.1,6.35,6.35,0,0,1,2.54,1.74A4.67,4.67,0,0,1,366.33,38a5.55,5.55,0,0,1-1,3.18,6.56,6.56,0,0,1-2.92,2.27,11.85,11.85,0,0,1-4.72.85A16.45,16.45,0,0,1,353.06,43.68Z" style="fill:#fff"/><path d="M257.85,133.85c-65.59.52-135.21,37.91-164.22,91.26a115.34,115.34,0,0,0-7.78,17.53l138.73,2.79Z" style="fill:url(#Dégradé_sans_nom_134)"/><path d="M339,154,224.58,264.48s-.51-19.06,0-19.05l100.36-96.34L339,135Z" style="fill:url(#Dégradé_sans_nom_926-18)"/><path d="M224.57,245.44h0l-1.53,0-137.2-2.76-17.56-.36c-5.44,15.85-7,31.09-5.13,45.19Z" style="fill:url(#Dégradé_sans_nom_44)"/><path d="M224.55,245.44,57.88,288.84l-.1,0A86.19,86.19,0,0,0,80.9,337.33Z" style="fill:url(#Dégradé_sans_nom_114)"/><path d="M80.9,337.33a87.27,87.27,0,0,1-18.6-30c-2.28-5.74-3.85-14.49-4.42-18.52-.6.16-.07,19.69-.1,19.7A86.19,86.19,0,0,0,80.9,357Z" style="fill:url(#Dégradé_sans_nom_926-19)"/><path d="M224.57,245.44h0L78.85,338.66,72,343c25.18,26.81,65.68,39.57,110.15,38.34Z" style="fill:url(#Dégradé_sans_nom_129)"/><path d="M397.3,244.71C374.05,319.25,281.08,380,187.79,382.46l-6,.09v40.77c95.26,0,191.73-61.72,215.48-137.85,4.68-15,6.18-51.11,4.87-64.61A116.76,116.76,0,0,1,397.3,244.71Z" style="fill:url(#Dégradé_sans_nom_130)"/><polygon points="224.59 245.43 181.82 382.55 181.82 423.32 224.59 272.48 224.59 245.43" style="fill:url(#Dégradé_sans_nom_926-20)"/><path d="M29.74,434.68v.73H22v-11.2H29.5V425H22.83v4.42h6v.72h-6v4.59Z" style="fill:#fff"/><path d="M34.86,425h-4v-.74h8.88V425h-4v10.46h-.82Z" style="fill:#fff"/><path d="M50.84,424.21v11.2H50v-5.32H42.54v5.32h-.82v-11.2h.82v5.16H50v-5.16Z" style="fill:#fff"/><path d="M25,442v11.2H22.41v-9.12H20.17V442Z" style="fill:#fff"/><path d="M34.57,443.23a5.83,5.83,0,0,1,1.33,4.12,7,7,0,0,1-.71,3.26,4.9,4.9,0,0,1-2,2.07,6.14,6.14,0,0,1-3,.7,6.79,6.79,0,0,1-1.71-.2,4.46,4.46,0,0,1-1.4-.57l1-1.9a3.69,3.69,0,0,0,2.1.56,3,3,0,0,0,2.26-.84,3.52,3.52,0,0,0,.89-2.42,3.76,3.76,0,0,1-2.78,1,4.3,4.3,0,0,1-2-.43,3.46,3.46,0,0,1-1.4-1.22,3.31,3.31,0,0,1-.51-1.83,3.5,3.5,0,0,1,.56-2,3.69,3.69,0,0,1,1.53-1.31,5,5,0,0,1,2.15-.45A4.78,4.78,0,0,1,34.57,443.23Zm-2.1,3.38a1.65,1.65,0,0,0,0-2.41,2.05,2.05,0,0,0-1.43-.47,2,2,0,0,0-1.35.45,1.69,1.69,0,0,0,0,2.44,2,2,0,0,0,1.38.46A2.05,2.05,0,0,0,32.47,446.61Z" style="fill:#fff"/><path d="M37.31,452.87a1.52,1.52,0,0,1-.45-1.12,1.45,1.45,0,0,1,.45-1.11,1.55,1.55,0,0,1,1.1-.43,1.57,1.57,0,0,1,1.11.43,1.48,1.48,0,0,1,.44,1.11,1.55,1.55,0,0,1-.44,1.12,1.51,1.51,0,0,1-1.11.45A1.49,1.49,0,0,1,37.31,452.87Z" style="fill:#fff"/><path d="M43.24,452.69a4.58,4.58,0,0,1-1.7-2,8.11,8.11,0,0,1,0-6.22,4.64,4.64,0,0,1,1.7-2,4.56,4.56,0,0,1,2.48-.69,4.51,4.51,0,0,1,2.48.69,4.59,4.59,0,0,1,1.71,2,8.23,8.23,0,0,1,0,6.22,4.67,4.67,0,0,1-6.67,2Zm4.09-2.38a6.56,6.56,0,0,0,0-5.44,1.89,1.89,0,0,0-3.2,0,6.67,6.67,0,0,0,0,5.44,1.89,1.89,0,0,0,3.2,0Z" style="fill:#fff"/><path d="M62,450.84H60.22v2.35H57.69v-2.35h-6v-1.75l5.28-7.1h2.72l-4.9,6.74h3v-2.1h2.45v2.1H62Z" style="fill:#fff"/><path d="M62.92,447.2a3.64,3.64,0,0,1,0-4.5,2.8,2.8,0,0,1,4,0,3.67,3.67,0,0,1,0,4.5,2.8,2.8,0,0,1-4,0Zm2.86-.92a3,3,0,0,0,0-2.66,1,1,0,0,0-1.7,0,2.88,2.88,0,0,0,0,2.64,1,1,0,0,0,1.7,0ZM71.6,442h1.9l-7.65,11.2H64Zm-.51,10.95a2.51,2.51,0,0,1-1-1.08,4,4,0,0,1,0-3.26,2.51,2.51,0,0,1,1-1.08,2.75,2.75,0,0,1,1.43-.38,2.6,2.6,0,0,1,2,.84,3.64,3.64,0,0,1,0,4.5,2.6,2.6,0,0,1-2,.84A2.75,2.75,0,0,1,71.09,452.94Zm2.29-1.39a3,3,0,0,0,0-2.64,1,1,0,0,0-.86-.46,1,1,0,0,0-.84.45,2.92,2.92,0,0,0,0,2.66,1,1,0,0,0,.84.45A1,1,0,0,0,73.38,451.55Z" style="fill:#fff"/><path d="M23.09,384.34a5,5,0,0,1-1.17-3.6v-6.45h.81v6.42a4.4,4.4,0,0,0,.95,3.08,3.51,3.51,0,0,0,2.73,1,3.48,3.48,0,0,0,2.72-1,4.4,4.4,0,0,0,.95-3.08v-6.42h.81v6.45a5,5,0,0,1-1.18,3.6,4.39,4.39,0,0,1-3.31,1.23A4.38,4.38,0,0,1,23.09,384.34Z" style="fill:#fff"/><path d="M35.3,385.15a4.65,4.65,0,0,1-1.74-1.1l.37-.61a4.36,4.36,0,0,0,1.59,1,5.77,5.77,0,0,0,2.11.39,4,4,0,0,0,2.41-.61,1.86,1.86,0,0,0,.82-1.58,1.65,1.65,0,0,0-.43-1.2,2.91,2.91,0,0,0-1.07-.69,17.4,17.4,0,0,0-1.73-.5,17.19,17.19,0,0,1-2-.59,3.12,3.12,0,0,1-1.26-.89,2.34,2.34,0,0,1-.52-1.6,2.71,2.71,0,0,1,.43-1.5,3,3,0,0,1,1.32-1.08,5.34,5.34,0,0,1,2.22-.4,6.27,6.27,0,0,1,1.82.27,5.31,5.31,0,0,1,1.55.74l-.3.65a5.44,5.44,0,0,0-1.48-.7,5.58,5.58,0,0,0-1.59-.24,3.84,3.84,0,0,0-2.36.62,2,2,0,0,0-.8,1.62,1.66,1.66,0,0,0,.44,1.2,2.75,2.75,0,0,0,1.07.69,15.88,15.88,0,0,0,1.74.51,16.36,16.36,0,0,1,2,.59,3.36,3.36,0,0,1,1.26.87,2.33,2.33,0,0,1,.52,1.58,2.71,2.71,0,0,1-.44,1.49,3,3,0,0,1-1.36,1.07,5.47,5.47,0,0,1-2.24.4A6.56,6.56,0,0,1,35.3,385.15Z" style="fill:#fff"/><path d="M44.44,374.29h4.44A6.46,6.46,0,0,1,52,375a5.32,5.32,0,0,1,2.11,2,5.94,5.94,0,0,1,0,5.78,5.32,5.32,0,0,1-2.11,2,6.46,6.46,0,0,1-3.09.72H44.44Zm4.37,10.46a5.85,5.85,0,0,0,2.74-.61,4.39,4.39,0,0,0,1.82-1.72,5.32,5.32,0,0,0,0-5.06,4.39,4.39,0,0,0-1.82-1.72,5.85,5.85,0,0,0-2.74-.61H45.26v9.72Z" style="fill:#fff"/><path d="M59.64,375h-4v-.74h8.88V375h-4v10.46h-.82Z" style="fill:#fff"/><path d="M28.19,397.72a3,3,0,0,1,.78,2.12,3.36,3.36,0,0,1-.51,1.8A3.54,3.54,0,0,1,26.9,403a6,6,0,0,1-2.57.5,9.21,9.21,0,0,1-2.33-.31,6.1,6.1,0,0,1-1.94-.89l1-2a4.91,4.91,0,0,0,1.48.75,5.88,5.88,0,0,0,1.72.26,2.71,2.71,0,0,0,1.53-.37,1.2,1.2,0,0,0,.56-1.07c0-.92-.69-1.37-2.09-1.37H23.08v-1.72l2.31-2.6H20.62v-2.08h7.84v1.68l-2.53,2.88A3.78,3.78,0,0,1,28.19,397.72Z" style="fill:#fff"/><path d="M30.54,403a1.53,1.53,0,0,1-.45-1.12,1.48,1.48,0,0,1,.45-1.12,1.66,1.66,0,0,1,2.21,0,1.48,1.48,0,0,1,.45,1.12A1.57,1.57,0,0,1,30.54,403Z" style="fill:#fff"/><path d="M43.46,398.47A2.76,2.76,0,0,1,43.9,400a2.91,2.91,0,0,1-.59,1.81,3.76,3.76,0,0,1-1.67,1.2,7.34,7.34,0,0,1-5,0,3.69,3.69,0,0,1-1.65-1.2,2.9,2.9,0,0,1-.58-1.81,2.76,2.76,0,0,1,.44-1.55,3.15,3.15,0,0,1,1.26-1.09,2.7,2.7,0,0,1-1-1,2.57,2.57,0,0,1-.34-1.34,2.73,2.73,0,0,1,.54-1.69,3.5,3.5,0,0,1,1.52-1.11,5.81,5.81,0,0,1,2.24-.4,5.93,5.93,0,0,1,2.27.4A3.54,3.54,0,0,1,43,393.38a2.73,2.73,0,0,1,.54,1.69,2.57,2.57,0,0,1-.34,1.34,2.73,2.73,0,0,1-1,1A3.18,3.18,0,0,1,43.46,398.47Zm-2.75,2.64a1.49,1.49,0,0,0,0-2.34,2.5,2.5,0,0,0-1.55-.43,2.43,2.43,0,0,0-1.52.43,1.51,1.51,0,0,0,0,2.35,2.93,2.93,0,0,0,3.07,0Zm-2.8-7a1.24,1.24,0,0,0-.47,1,1.2,1.2,0,0,0,.46,1,2,2,0,0,0,1.26.37,2,2,0,0,0,1.28-.37,1.19,1.19,0,0,0,.48-1,1.25,1.25,0,0,0-.48-1,2,2,0,0,0-1.28-.37A1.94,1.94,0,0,0,37.91,394.15Z" style="fill:#fff"/><path d="M49.4,392.07v11.2H46.81v-9.12H44.57v-2.08Z" style="fill:#fff"/><path d="M51.94,397.27a3.62,3.62,0,0,1,0-4.49,2.62,2.62,0,0,1,2-.84,2.58,2.58,0,0,1,2,.84,3.66,3.66,0,0,1,0,4.49,2.58,2.58,0,0,1-2,.84A2.62,2.62,0,0,1,51.94,397.27Zm2.86-.92a2.27,2.27,0,0,0,.32-1.32,2.31,2.31,0,0,0-.32-1.33,1,1,0,0,0-.85-.45,1,1,0,0,0-.85.46,2.29,2.29,0,0,0-.32,1.32,2.34,2.34,0,0,0,.32,1.32,1,1,0,0,0,.85.45A1,1,0,0,0,54.8,396.35Zm5.82-4.28h1.9l-7.64,11.2H53ZM60.12,403a2.53,2.53,0,0,1-1-1.08,4,4,0,0,1,0-3.27,2.53,2.53,0,0,1,1-1.08,2.72,2.72,0,0,1,1.43-.37,2.62,2.62,0,0,1,2,.84,3.66,3.66,0,0,1,0,4.49,2.62,2.62,0,0,1-2,.84A2.72,2.72,0,0,1,60.12,403Zm2.28-1.39a2.34,2.34,0,0,0,.32-1.32A2.29,2.29,0,0,0,62.4,399a1,1,0,0,0-.85-.46,1,1,0,0,0-.85.45,2.31,2.31,0,0,0-.32,1.33,2.27,2.27,0,0,0,.32,1.32,1,1,0,0,0,.85.45A1,1,0,0,0,62.4,401.63Z" style="fill:#fff"/><path d="M28.94,163.13h-6.5L21,166.28h-.88l5.15-11.2h.82l5.15,11.2h-.88Zm-.3-.69L25.69,156l-2.93,6.47Z" style="fill:#fff"/><path d="M33.29,155.08h4.43a6.48,6.48,0,0,1,3.1.72,5.23,5.23,0,0,1,2.1,2,5.87,5.87,0,0,1,0,5.78,5.3,5.3,0,0,1-2.1,2,6.48,6.48,0,0,1-3.1.72H33.29Zm4.37,10.46a5.88,5.88,0,0,0,2.74-.61,4.45,4.45,0,0,0,1.82-1.72,5.32,5.32,0,0,0,0-5.06,4.38,4.38,0,0,0-1.82-1.72,5.89,5.89,0,0,0-2.74-.62H34.11v9.73Z" style="fill:#fff"/><path d="M53.28,163.13h-6.5l-1.42,3.15h-.88l5.15-11.2h.81l5.16,11.2h-.88Zm-.31-.69L50,156l-2.93,6.47Z" style="fill:#fff"/><path d="M28.19,178.51a3,3,0,0,1,.78,2.12,3.36,3.36,0,0,1-.51,1.8,3.54,3.54,0,0,1-1.56,1.32,6,6,0,0,1-2.57.5,8.79,8.79,0,0,1-2.33-.32,5.88,5.88,0,0,1-1.94-.88l1-2a4.91,4.91,0,0,0,1.48.75,5.88,5.88,0,0,0,1.72.26,2.63,2.63,0,0,0,1.53-.38,1.18,1.18,0,0,0,.56-1.06c0-.92-.69-1.38-2.09-1.38H23.08v-1.71l2.31-2.61H20.62v-2.08h7.84v1.68l-2.53,2.89A3.72,3.72,0,0,1,28.19,178.51Z" style="fill:#fff"/><path d="M30.54,183.73a1.5,1.5,0,0,1-.45-1.12,1.48,1.48,0,0,1,.45-1.11,1.66,1.66,0,0,1,2.21,0,1.48,1.48,0,0,1,.45,1.11,1.56,1.56,0,0,1-2.66,1.12Z" style="fill:#fff"/><path d="M42.89,181.94v2.11H34.43v-1.68l4.32-4.08a4.52,4.52,0,0,0,.93-1.12,2.08,2.08,0,0,0,.24-.94,1.24,1.24,0,0,0-.46-1,2.12,2.12,0,0,0-1.34-.36,3,3,0,0,0-1.32.28,2.61,2.61,0,0,0-1,.84l-1.88-1.22a4.43,4.43,0,0,1,1.8-1.53,6.17,6.17,0,0,1,2.64-.55,5.48,5.48,0,0,1,2.19.41A3.36,3.36,0,0,1,42,174.22a3,3,0,0,1,.52,1.75,3.9,3.9,0,0,1-.38,1.72,6.61,6.61,0,0,1-1.49,1.82l-2.57,2.43Z" style="fill:#fff"/><path d="M52.7,172.85v1.68l-4.16,9.52H45.72l4-9.08H46v1.82H43.72v-3.94Z" style="fill:#fff"/><path d="M54.53,178.06a3.66,3.66,0,0,1,0-4.49,2.62,2.62,0,0,1,2-.84,2.58,2.58,0,0,1,2,.84,3.66,3.66,0,0,1,0,4.49,2.58,2.58,0,0,1-2,.84A2.62,2.62,0,0,1,54.53,178.06Zm2.87-.92a3,3,0,0,0,0-2.65,1,1,0,0,0-1.71,0,2.34,2.34,0,0,0-.32,1.32,2.29,2.29,0,0,0,.32,1.32,1,1,0,0,0,.85.46A1,1,0,0,0,57.4,177.14Zm5.81-4.29h1.91l-7.65,11.2H55.56Zm-.5,11a2.59,2.59,0,0,1-1-1.08,4,4,0,0,1,0-3.27,2.59,2.59,0,0,1,1-1.08,2.75,2.75,0,0,1,1.43-.37,2.62,2.62,0,0,1,2,.84,3.66,3.66,0,0,1,0,4.49,2.62,2.62,0,0,1-2,.84A2.75,2.75,0,0,1,62.71,183.81ZM65,182.42a3,3,0,0,0,0-2.65,1,1,0,0,0-1.71,0,2.9,2.9,0,0,0,0,2.65,1,1,0,0,0,1.71,0Z" style="fill:#fff"/><path d="M23.79,109.16a5.76,5.76,0,0,1-2.09-7.83,5.39,5.39,0,0,1,2.09-2,5.93,5.93,0,0,1,3-.75,6.07,6.07,0,0,1,3,.74,5.44,5.44,0,0,1,2.09,2,6,6,0,0,1,0,5.83,5.44,5.44,0,0,1-2.09,2,6.06,6.06,0,0,1-3,.73A5.93,5.93,0,0,1,23.79,109.16Zm5.52-.65a4.61,4.61,0,0,0,1.79-1.77,4.89,4.89,0,0,0,.66-2.52,4.94,4.94,0,0,0-.66-2.52,4.66,4.66,0,0,0-1.79-1.76,5.4,5.4,0,0,0-5.1,0,4.68,4.68,0,0,0-1.8,1.76,4.93,4.93,0,0,0-.65,2.52,4.88,4.88,0,0,0,.65,2.52,4.64,4.64,0,0,0,1.8,1.77,5.4,5.4,0,0,0,5.1,0Z" style="fill:#fff"/><path d="M37.4,99.36h-4v-.74h8.88v.74h-4v10.46H37.4Z" style="fill:#fff"/><path d="M53.39,98.62v11.2h-.82V104.5H45.08v5.32h-.81V98.62h.81v5.16h7.49V98.62Z" style="fill:#fff"/><path d="M65,109.09v.73H57.29V98.62h7.49v.74H58.11v4.42h6v.72h-6v4.59Z" style="fill:#fff"/><path d="M75.77,109.82l-2.67-3.74a8.75,8.75,0,0,1-1.09.08h-3.2v3.66H68V98.62h4a5,5,0,0,1,3.31,1,3.43,3.43,0,0,1,1.2,2.78,3.41,3.41,0,0,1-2.62,3.5l2.8,3.92ZM72,105.44a4.15,4.15,0,0,0,2.74-.79,3.16,3.16,0,0,0,0-4.5A4.15,4.15,0,0,0,72,99.36h-3.2v6.08Z" style="fill:#fff"/><path d="M80.12,109.48a4.45,4.45,0,0,1-1.74-1.1l.37-.6a4.31,4.31,0,0,0,1.59,1,5.75,5.75,0,0,0,2.1.39,4.05,4.05,0,0,0,2.42-.6,1.92,1.92,0,0,0,.82-1.59,1.66,1.66,0,0,0-.44-1.2,2.75,2.75,0,0,0-1.07-.69,14.18,14.18,0,0,0-1.73-.49,16.36,16.36,0,0,1-2-.59,3.26,3.26,0,0,1-1.27-.89,2.41,2.41,0,0,1-.52-1.61,2.76,2.76,0,0,1,.44-1.5,2.89,2.89,0,0,1,1.32-1.08,5.49,5.49,0,0,1,2.21-.4,6,6,0,0,1,1.83.28,5.42,5.42,0,0,1,1.55.73l-.31.66a5.06,5.06,0,0,0-1.48-.71,5.53,5.53,0,0,0-1.59-.24,3.74,3.74,0,0,0-2.35.63,2,2,0,0,0-.8,1.61,1.62,1.62,0,0,0,.43,1.2,2.91,2.91,0,0,0,1.07.69,16.16,16.16,0,0,0,1.75.51,16.7,16.7,0,0,1,2,.6,3.14,3.14,0,0,1,1.25.87,2.26,2.26,0,0,1,.52,1.57,2.68,2.68,0,0,1-.44,1.49,2.9,2.9,0,0,1-1.35,1.07,5.54,5.54,0,0,1-2.24.4A6.56,6.56,0,0,1,80.12,109.48Z" style="fill:#fff"/><path d="M29.05,125.49v2.11H20.59v-1.68l4.32-4.08a4.53,4.53,0,0,0,.93-1.13,2,2,0,0,0,.24-.93,1.26,1.26,0,0,0-.46-1,2.12,2.12,0,0,0-1.34-.36,3.12,3.12,0,0,0-1.32.28,2.61,2.61,0,0,0-1,.84l-1.88-1.21a4.43,4.43,0,0,1,1.8-1.53,6,6,0,0,1,2.64-.55,5.32,5.32,0,0,1,2.19.41,3.29,3.29,0,0,1,1.45,1.15,2.94,2.94,0,0,1,.52,1.75,3.82,3.82,0,0,1-.38,1.71,6.62,6.62,0,0,1-1.49,1.83l-2.57,2.43Z" style="fill:#fff"/><path d="M40.22,125.25H38.4v2.35H35.87v-2.35h-6V123.5l5.28-7.1h2.72l-4.9,6.74h3V121H38.4v2.1h1.82Z" style="fill:#fff"/><path d="M41.68,127.28a1.52,1.52,0,0,1-.45-1.12,1.45,1.45,0,0,1,.45-1.11,1.62,1.62,0,0,1,2.2,0,1.45,1.45,0,0,1,.45,1.11,1.52,1.52,0,0,1-.45,1.12,1.57,1.57,0,0,1-2.2,0Z" style="fill:#fff"/><path d="M54.6,122.8a2.81,2.81,0,0,1,.44,1.55,2.89,2.89,0,0,1-.6,1.82,3.73,3.73,0,0,1-1.66,1.2,6.78,6.78,0,0,1-2.48.42,6.69,6.69,0,0,1-2.47-.42,3.69,3.69,0,0,1-1.65-1.2,2.93,2.93,0,0,1-.58-1.82A2.73,2.73,0,0,1,46,122.8a3.19,3.19,0,0,1,1.25-1.09,2.78,2.78,0,0,1-1-1,2.65,2.65,0,0,1-.33-1.33,2.76,2.76,0,0,1,.54-1.7,3.45,3.45,0,0,1,1.52-1.11,6,6,0,0,1,2.24-.39,6.08,6.08,0,0,1,2.26.39,3.42,3.42,0,0,1,1.53,1.11,2.77,2.77,0,0,1,.55,1.7,2.66,2.66,0,0,1-.34,1.33,2.61,2.61,0,0,1-1,1A3.21,3.21,0,0,1,54.6,122.8Zm-2.76,2.65a1.43,1.43,0,0,0,.57-1.18,1.4,1.4,0,0,0-.57-1.17,2.52,2.52,0,0,0-1.54-.43,2.47,2.47,0,0,0-1.52.43,1.41,1.41,0,0,0-.56,1.17,1.44,1.44,0,0,0,.56,1.19,2.91,2.91,0,0,0,3.06,0Zm-2.8-7a1.25,1.25,0,0,0-.47,1,1.23,1.23,0,0,0,.47,1,2,2,0,0,0,1.26.37,2.09,2.09,0,0,0,1.28-.37,1.21,1.21,0,0,0,.48-1,1.23,1.23,0,0,0-.48-1,2,2,0,0,0-1.28-.38A2,2,0,0,0,49,118.49Z" style="fill:#fff"/><path d="M63.84,117.64a5.86,5.86,0,0,1,1.32,4.12,6.85,6.85,0,0,1-.71,3.26,4.79,4.79,0,0,1-2,2.07,6.14,6.14,0,0,1-3,.7,7.28,7.28,0,0,1-1.71-.2,4.4,4.4,0,0,1-1.39-.57l1-1.9a3.63,3.63,0,0,0,2.09.56,3,3,0,0,0,2.26-.84,3.52,3.52,0,0,0,.89-2.42,3.74,3.74,0,0,1-2.78,1,4.36,4.36,0,0,1-2-.43,3.37,3.37,0,0,1-1.39-1.22,3.31,3.31,0,0,1-.51-1.83,3.42,3.42,0,0,1,.56-2A3.67,3.67,0,0,1,58,116.66a5.09,5.09,0,0,1,2.16-.45A4.81,4.81,0,0,1,63.84,117.64ZM61.73,121a1.63,1.63,0,0,0,0-2.41,2.09,2.09,0,0,0-1.43-.47,2,2,0,0,0-1.36.45A1.69,1.69,0,0,0,59,121a2,2,0,0,0,1.39.46A2,2,0,0,0,61.73,121Z" style="fill:#fff"/><path d="M67,121.61a3.64,3.64,0,0,1,0-4.5,2.8,2.8,0,0,1,4,0,3.67,3.67,0,0,1,0,4.5,2.8,2.8,0,0,1-4,0Zm2.86-.92a3,3,0,0,0,0-2.66,1,1,0,0,0-1.7,0,2.88,2.88,0,0,0,0,2.64,1,1,0,0,0,1.7,0Zm5.81-4.29h1.91l-7.65,11.2H68Zm-.5,10.95a2.51,2.51,0,0,1-1-1.08,4,4,0,0,1,0-3.26,2.51,2.51,0,0,1,1-1.08,2.75,2.75,0,0,1,1.43-.38,2.62,2.62,0,0,1,2,.84,3.64,3.64,0,0,1,0,4.5,2.62,2.62,0,0,1-2,.84A2.75,2.75,0,0,1,75.17,127.35ZM77.46,126a3,3,0,0,0,0-2.64,1,1,0,0,0-.86-.46,1,1,0,0,0-.84.45,2.92,2.92,0,0,0,0,2.66,1,1,0,0,0,.84.45A1,1,0,0,0,77.46,126Z" style="fill:#fff"/><path d="M224.58,245.43,182.16,381.37c-37.46,1-72.1-7.85-97.14-26.7L72,343v20c25.18,26.81,65.68,39.57,110.15,38.34L224.57,265.4h0Z" style="fill:url(#Dégradé_sans_nom_926-21)"/><path d="M348.76,125.47,339,135l-14,14.13L224.59,245.43h0L184.09,375.21l-2.27,7.26c95.26,0,191.73-61.71,215.48-137.84C413.17,193.78,392.57,149.36,348.76,125.47Z" style="fill:url(#Dégradé_sans_nom_123-2)"/><path d="M422,430.58a2.75,2.75,0,0,1,.63,1.87,2.59,2.59,0,0,1-1,2.2,5.2,5.2,0,0,1-3.09.76h-5v-11.2h4.67A4.7,4.7,0,0,1,421,425a2.46,2.46,0,0,1,1,2.12,2.52,2.52,0,0,1-.51,1.61,2.73,2.73,0,0,1-1.37.95A3.12,3.12,0,0,1,422,430.58Zm-7.68-5.66v4.46h3.83a3.83,3.83,0,0,0,2.26-.57,2.14,2.14,0,0,0,0-3.32,3.83,3.83,0,0,0-2.26-.57Zm6.65,9.22a2,2,0,0,0,.84-1.75,1.94,1.94,0,0,0-.84-1.74,4.41,4.41,0,0,0-2.47-.56h-4.18v4.62h4.18A4.4,4.4,0,0,0,420.93,434.14Z" style="fill:#fff"/><path d="M427.48,425h-4v-.74h8.88V425h-4v10.46h-.82Z" style="fill:#fff"/><path d="M436,434.76a5.41,5.41,0,0,1-2.08-2,6,6,0,0,1,0-5.83,5.41,5.41,0,0,1,2.08-2,6,6,0,0,1,3-.74,6.24,6.24,0,0,1,2.24.4,4.48,4.48,0,0,1,1.75,1.16l-.51.52a4.72,4.72,0,0,0-3.44-1.32,5.12,5.12,0,0,0-2.56.64,4.64,4.64,0,0,0-1.81,1.76,4.94,4.94,0,0,0-.66,2.52,4.89,4.89,0,0,0,.66,2.52,4.6,4.6,0,0,0,1.81,1.77,5.12,5.12,0,0,0,2.56.64,4.73,4.73,0,0,0,3.44-1.34l.51.53a4.67,4.67,0,0,1-1.75,1.16,6.1,6.1,0,0,1-2.24.4A6,6,0,0,1,436,434.76Z" style="fill:#fff"/><path d="M422.4,450.84h-1.83v2.35H418v-2.35h-6v-1.75l5.28-7.1H420l-4.89,6.74h3v-2.1h2.45v2.1h1.83Z" style="fill:#fff"/><path d="M430.51,446.6a3.43,3.43,0,0,1,1.39,1.22,3.31,3.31,0,0,1,.51,1.83,3.42,3.42,0,0,1-.56,2,3.63,3.63,0,0,1-1.53,1.31,5,5,0,0,1-2.15.45,4.76,4.76,0,0,1-3.68-1.44,5.87,5.87,0,0,1-1.33-4.11,6.85,6.85,0,0,1,.72-3.26,4.9,4.9,0,0,1,2-2.07,6.14,6.14,0,0,1,3-.7,7,7,0,0,1,1.72.2,4.46,4.46,0,0,1,1.4.57l-1,1.9a3.73,3.73,0,0,0-2.1-.56,3.08,3.08,0,0,0-2.26.83,3.5,3.5,0,0,0-.89,2.42,3.74,3.74,0,0,1,2.77-1A4.36,4.36,0,0,1,430.51,446.6Zm-1.13,4.4a1.69,1.69,0,0,0,0-2.44,2,2,0,0,0-1.38-.46,2.1,2.1,0,0,0-1.4.47,1.62,1.62,0,0,0,0,2.41,2.1,2.1,0,0,0,1.44.47A2,2,0,0,0,429.38,451Z" style="fill:#fff"/><path d="M433.88,452.87a1.55,1.55,0,0,1-.44-1.12,1.48,1.48,0,0,1,.44-1.11,1.63,1.63,0,0,1,2.21,0,1.45,1.45,0,0,1,.45,1.11,1.56,1.56,0,0,1-2.66,1.12Z" style="fill:#fff"/><path d="M441.77,442v11.2h-2.59v-9.12h-2.24V442Z" style="fill:#fff"/><path d="M454,450.84h-1.82v2.35h-2.53v-2.35h-6v-1.75l5.28-7.1h2.72l-4.9,6.74h3v-2.1h2.45v2.1H454Z" style="fill:#fff"/><path d="M454.85,447.2a3.67,3.67,0,0,1,0-4.5,2.62,2.62,0,0,1,2-.84,2.58,2.58,0,0,1,2,.84,3.67,3.67,0,0,1,0,4.5,2.58,2.58,0,0,1-2,.84A2.62,2.62,0,0,1,454.85,447.2Zm2.87-.92a3,3,0,0,0,0-2.66,1,1,0,0,0-1.71,0,2.88,2.88,0,0,0,0,2.64,1,1,0,0,0,1.71,0Zm5.81-4.29h1.91l-7.65,11.2h-1.91Zm-.5,10.95a2.59,2.59,0,0,1-1-1.08,4,4,0,0,1,0-3.26,2.59,2.59,0,0,1,1-1.08,2.75,2.75,0,0,1,1.43-.38,2.62,2.62,0,0,1,2,.84,3.67,3.67,0,0,1,0,4.5,2.62,2.62,0,0,1-2,.84A2.75,2.75,0,0,1,463,452.94Zm2.29-1.39a3,3,0,0,0,0-2.64,1,1,0,0,0-1.71,0,2.92,2.92,0,0,0,0,2.66,1,1,0,0,0,1.71,0Z" style="fill:#fff"/><path d="M263.16,116.84l-5.31,17L224.58,245.43l100.36-96.34L339,135C318.77,123.46,293,116.84,263.16,116.84Z" style="fill:url(#Dégradé_sans_nom_120)"/><path d="M422,105a2.75,2.75,0,0,1,.63,1.87,2.59,2.59,0,0,1-1,2.2,5.2,5.2,0,0,1-3.09.76h-5V98.62h4.67a4.7,4.7,0,0,1,2.84.75,2.46,2.46,0,0,1,1,2.12,2.52,2.52,0,0,1-.51,1.61,2.73,2.73,0,0,1-1.37,1A3.15,3.15,0,0,1,422,105Zm-7.68-5.66v4.46h3.83a3.83,3.83,0,0,0,2.26-.57,2.14,2.14,0,0,0,0-3.32,3.83,3.83,0,0,0-2.26-.57Zm6.65,9.22a2,2,0,0,0,.84-1.75,1.94,1.94,0,0,0-.84-1.74,4.41,4.41,0,0,0-2.47-.56h-4.18v4.62h4.18A4.4,4.4,0,0,0,420.93,108.55Z" style="fill:#fff"/><path d="M434.62,98.62v11.2H434l-7.63-9.72v9.72h-.82V98.62h.69l7.61,9.73V98.62Z" style="fill:#fff"/><path d="M447,105a2.75,2.75,0,0,1,.63,1.87,2.57,2.57,0,0,1-1,2.2,5.16,5.16,0,0,1-3.08.76h-5V98.62h4.68a4.72,4.72,0,0,1,2.84.75,2.47,2.47,0,0,1,1,2.12,2.58,2.58,0,0,1-.5,1.61,2.77,2.77,0,0,1-1.37,1A3.09,3.09,0,0,1,447,105Zm-7.67-5.66v4.46h3.82a3.86,3.86,0,0,0,2.27-.57,2.14,2.14,0,0,0,0-3.32,3.86,3.86,0,0,0-2.27-.57Zm6.65,9.22a2,2,0,0,0,.84-1.75,1.94,1.94,0,0,0-.84-1.74,4.43,4.43,0,0,0-2.47-.56h-4.18v4.62h4.18A4.42,4.42,0,0,0,446,108.55Z" style="fill:#fff"/><path d="M419.64,122.06a3,3,0,0,1,.79,2.12,3.36,3.36,0,0,1-.51,1.8,3.66,3.66,0,0,1-1.56,1.32,6,6,0,0,1-2.57.49,8.72,8.72,0,0,1-2.33-.31,5.89,5.89,0,0,1-1.94-.89l1-2a4.78,4.78,0,0,0,1.48.74,5.62,5.62,0,0,0,1.72.27,2.74,2.74,0,0,0,1.54-.38,1.22,1.22,0,0,0,.56-1.06q0-1.38-2.1-1.38h-1.18v-1.71l2.3-2.61h-4.76V116.4h7.84v1.68L417.39,121A3.76,3.76,0,0,1,419.64,122.06Z" style="fill:#fff"/><path d="M422,127.28a1.52,1.52,0,0,1-.45-1.12,1.45,1.45,0,0,1,.45-1.11,1.62,1.62,0,0,1,2.2,0,1.45,1.45,0,0,1,.45,1.11,1.52,1.52,0,0,1-.45,1.12,1.57,1.57,0,0,1-2.2,0Z" style="fill:#fff"/><path d="M436.08,125.25h-1.83v2.35h-2.53v-2.35h-6V123.5l5.28-7.1h2.72l-4.89,6.74h3V121h2.45v2.1h1.83Z" style="fill:#fff"/><path d="M444.94,116.4v1.68l-4.16,9.52H438l4-9.09h-3.71v1.83H436V116.4Z" style="fill:#fff"/><path d="M446.77,121.61a3.67,3.67,0,0,1,0-4.5,2.62,2.62,0,0,1,2-.84,2.58,2.58,0,0,1,2,.84,3.67,3.67,0,0,1,0,4.5,2.58,2.58,0,0,1-2,.84A2.62,2.62,0,0,1,446.77,121.61Zm2.87-.92a3,3,0,0,0,0-2.66,1,1,0,0,0-1.71,0,2.88,2.88,0,0,0,0,2.64,1,1,0,0,0,1.71,0Zm5.81-4.29h1.91l-7.65,11.2H447.8Zm-.5,10.95a2.59,2.59,0,0,1-1-1.08,4,4,0,0,1,0-3.26,2.59,2.59,0,0,1,1-1.08,2.75,2.75,0,0,1,1.43-.38,2.62,2.62,0,0,1,2,.84,3.67,3.67,0,0,1,0,4.5,2.62,2.62,0,0,1-2,.84A2.75,2.75,0,0,1,455,127.35Zm2.29-1.39a3,3,0,0,0,0-2.64,1,1,0,0,0-1.71,0,2.92,2.92,0,0,0,0,2.66,1,1,0,0,0,1.71,0Z" style="fill:#fff"/><line x1="84.72" y1="126.39" x2="158.54" y2="193.56" style="fill:none;stroke:#fff;stroke-linecap:round;stroke-miterlimit:10"/><polyline points="158.54 275.45 158.54 334.89 84.72 402.06 72.08 402.06" style="fill:none;stroke:#fff;stroke-linecap:round;stroke-miterlimit:10"/><polyline points="158.54 361.5 158.54 385.11 84.72 452.28 79.73 452.28" style="fill:none;stroke:#fff;stroke-linecap:round;stroke-miterlimit:10"/><polyline points="327.14 282.35 327.14 385.11 400.96 452.28 405.95 452.28" style="fill:none;stroke:#fff;stroke-linecap:round;stroke-miterlimit:10"/><polyline points="263.18 193.56 327.14 193.56 400.96 126.39 405.95 126.39" style="fill:none;stroke:#fff;stroke-linecap:round;stroke-miterlimit:10"/><polyline points="158.54 249.43 84.72 182.25 72.58 182.25" style="fill:none;stroke:#fff;stroke-linecap:round;stroke-miterlimit:10"/><polygon points="261.01 192.33 261.01 194.85 263.19 196.11 265.38 194.85 265.38 192.33 263.19 191.07 261.01 192.33" style="fill:#fff"/><polygon points="324.95 280.94 324.95 283.46 327.14 284.72 329.32 283.46 329.32 280.94 327.14 279.67 324.95 280.94" style="fill:#fff"/><polygon points="156.36 360.23 156.36 362.76 158.54 364.02 160.72 362.76 160.72 360.23 158.54 358.97 156.36 360.23" style="fill:#fff"/><polygon points="156.36 274.19 156.36 276.71 158.54 277.97 160.72 276.71 160.72 274.19 158.54 272.93 156.36 274.19" style="fill:#fff"/><polygon points="156.36 248.17 156.36 250.69 158.54 251.95 160.72 250.69 160.72 248.17 158.54 246.91 156.36 248.17" style="fill:#fff"/><polygon points="156.36 192.33 156.36 194.85 158.54 196.11 160.72 194.85 160.72 192.33 158.54 191.07 156.36 192.33" style="fill:#fff"/></g></g></svg>