<svg xmlns="http://www.w3.org/2000/svg" xmlns:xlink="http://www.w3.org/1999/xlink" viewBox="0 0 348.86 335.94"><defs><linearGradient id="Dégradé_sans_nom_926" x1="28.26" y1="91.84" x2="200.26" y2="91.84" gradientUnits="userSpaceOnUse"><stop offset="0" stop-color="#788cff" stop-opacity="0"/><stop offset="0.22" stop-color="#9baaff" stop-opacity="0.26"/><stop offset="0.5" stop-color="#c6ceff" stop-opacity="0.57"/><stop offset="0.74" stop-color="#e5e8ff" stop-opacity="0.8"/><stop offset="0.91" stop-color="#f8f9ff" stop-opacity="0.95"/><stop offset="1" stop-color="#fff"/></linearGradient><linearGradient id="Dégradé_sans_nom_926-2" x1="14.81" y1="4.66" x2="135.7" y2="85.8" xlink:href="#Dégradé_sans_nom_926"/><linearGradient id="Dégradé_sans_nom_926-3" x1="235.97" y1="87.9" x2="154.87" y2="79.79" xlink:href="#Dégradé_sans_nom_926"/><linearGradient id="Dégradé_sans_nom_926-4" x1="216.34" y1="27.88" x2="269.21" y2="-3.72" xlink:href="#Dégradé_sans_nom_926"/><linearGradient id="Dégradé_sans_nom_926-5" x1="166.76" y1="73.82" x2="205.57" y2="73.82" xlink:href="#Dégradé_sans_nom_926"/><linearGradient id="Dégradé_sans_nom_926-6" x1="24.45" y1="102.54" x2="135.33" y2="221.4" xlink:href="#Dégradé_sans_nom_926"/><linearGradient id="Dégradé_sans_nom_926-7" x1="-4.87" y1="147.45" x2="13.75" y2="146.78" xlink:href="#Dégradé_sans_nom_926"/><linearGradient id="Dégradé_sans_nom_926-8" x1="83.45" y1="136.67" x2="91.67" y2="202.11" xlink:href="#Dégradé_sans_nom_926"/><linearGradient id="Dégradé_sans_nom_926-9" x1="92.06" y1="159.9" x2="83.91" y2="100.69" xlink:href="#Dégradé_sans_nom_926"/><linearGradient id="Dégradé_sans_nom_926-10" x1="100.64" y1="158.6" x2="93" y2="103.14" xlink:href="#Dégradé_sans_nom_926"/><linearGradient id="Dégradé_sans_nom_926-11" x1="0.18" y1="193.87" x2="166.99" y2="193.87" xlink:href="#Dégradé_sans_nom_926"/><linearGradient id="Dégradé_sans_nom_926-12" x1="75.28" y1="243.59" x2="-4.14" y2="274.09" xlink:href="#Dégradé_sans_nom_926"/><linearGradient id="Dégradé_sans_nom_926-13" x1="130.8" y1="193.63" x2="186.82" y2="226.6" xlink:href="#Dégradé_sans_nom_926"/><linearGradient id="Dégradé_sans_nom_926-14" x1="216.42" y1="279.72" x2="323.31" y2="-60.64" xlink:href="#Dégradé_sans_nom_926"/><linearGradient id="Dégradé_sans_nom_926-15" x1="303.84" y1="89.57" x2="346.74" y2="2.7" xlink:href="#Dégradé_sans_nom_926"/><linearGradient id="Dégradé_sans_nom_58" x1="230.97" y1="19.33" x2="232.51" y2="-36.1" gradientUnits="userSpaceOnUse"><stop offset="0.29" stop-color="#f2ba2e" stop-opacity="0"/><stop offset="0.99" stop-color="#f2ba2e"/></linearGradient><linearGradient id="Dégradé_sans_nom_926-16" x1="166.99" y1="82.14" x2="291.17" y2="82.14" xlink:href="#Dégradé_sans_nom_926"/><linearGradient id="Dégradé_sans_nom_134" x1="-4.51" y1="-8.3" x2="153.97" y2="98.06" gradientUnits="userSpaceOnUse"><stop offset="0" stop-color="#003028" stop-opacity="0"/><stop offset="0.96" stop-color="#005e28"/></linearGradient><linearGradient id="Dégradé_sans_nom_926-18" x1="166.76" y1="82.88" x2="281.35" y2="82.88" xlink:href="#Dégradé_sans_nom_926"/><linearGradient id="Dégradé_sans_nom_44" x1="99.06" y1="163.25" x2="14.32" y2="72.84" gradientUnits="userSpaceOnUse"><stop offset="0" stop-color="#c382b7" stop-opacity="0"/><stop offset="1" stop-color="#e76dc7"/></linearGradient><linearGradient id="Dégradé_sans_nom_114" x1="90.19" y1="170.38" x2="42.97" y2="130.47" gradientUnits="userSpaceOnUse"><stop offset="0.2" stop-color="#a3a6ba" stop-opacity="0.24"/><stop offset="0.94" stop-color="#a3a6ba"/></linearGradient><linearGradient id="Dégradé_sans_nom_926-19" x1="37.99" y1="185.21" x2="-10.94" y2="224.21" xlink:href="#Dégradé_sans_nom_926"/><linearGradient id="Dégradé_sans_nom_129" x1="0.93" y1="292.34" x2="145.31" y2="193.42" gradientUnits="userSpaceOnUse"><stop offset="0" stop-color="#454a75" stop-opacity="0"/><stop offset="1" stop-color="#001670"/></linearGradient><radialGradient id="Dégradé_sans_nom_130" cx="230.69" cy="226.08" r="267.03" xlink:href="#Dégradé_sans_nom_926"/><linearGradient id="Dégradé_sans_nom_926-20" x1="155.12" y1="293.62" x2="147.94" y2="236.19" xlink:href="#Dégradé_sans_nom_926"/><linearGradient id="Dégradé_sans_nom_926-21" x1="85.6" y1="345.75" x2="91.98" y2="147.56" xlink:href="#Dégradé_sans_nom_926"/><linearGradient id="Dégradé_sans_nom_123" x1="384.08" y1="258.72" x2="171.88" y2="111.94" xlink:href="#Dégradé_sans_nom_58"/><linearGradient id="Dégradé_sans_nom_120" x1="163.35" y1="-0.71" x2="226.82" y2="76.58" gradientUnits="userSpaceOnUse"><stop offset="0.02" stop-color="#1d1d1b" stop-opacity="0"/><stop offset="1"/></linearGradient></defs><g id="Calque_2" data-name="Calque 2"><g id="TEXT_AND_INFOS" data-name="TEXT AND INFOS"><path d="M200.26,36.07C134.67,36.58,65.05,74,36,127.33a116.6,116.6,0,0,0-7.77,17.52l137.2,2.76Z" style="fill:url(#Dégradé_sans_nom_926)"/><path d="M194.54,36.21,200.26,17C134.67,17.53,65.05,54.92,36,108.28a116.16,116.16,0,0,0-7.77,17.52l8.53.17C65.38,74.89,131.22,38.75,194.54,36.21Z" style="fill:url(#Dégradé_sans_nom_926-2)"/><path d="M205.57,19.05l-5.31,17-34.8,111.54,1.53,0L267,51l14.34-13.86C261.18,25.67,235.37,19.05,205.57,19.05Z" style="fill:url(#Dégradé_sans_nom_926-3)"/><path d="M205.57,19.05c23.88,0,45.19,4.26,63.09,11.87l12.69-12.8C261.18,6.62,235.37,0,205.57,0Z" style="fill:url(#Dégradé_sans_nom_926-4)"/><path d="M205.57,19.05l-5.31,17L167,147.65s-.51-19.07,0-19.06L205.57,0Z" style="fill:url(#Dégradé_sans_nom_926-5)"/><path d="M167,147.66h0l-1.53,0-137.2-2.76L10.7,144.5c-5.44,15.85-7,31.43-5.1,45.53C50,178.47,109.74,162.56,167,147.66Z" style="fill:url(#Dégradé_sans_nom_926-6)"/><path d="M10.7,144.5v-19C5.53,140.51,3.88,155,5.32,168.52A108.18,108.18,0,0,1,10.7,144.5Z" style="fill:url(#Dégradé_sans_nom_926-7)"/><path d="M167,147.66h0c-.51,0,0-19.06,0-19.06l-161.42,42c0,.12,0,19.54,0,19.4C50,178.47,109.74,162.56,167,147.66Z" style="fill:url(#Dégradé_sans_nom_926-8)"/><path d="M10.7,125.45c0,4.5-.36,10.7,0,19L167,147.65V128.59C166.61,128.49,39.92,126.09,10.7,125.45Z" style="fill:url(#Dégradé_sans_nom_926-9)"/><path d="M28.26,125.8c0,4.5-.33,10.7,0,19,4.58.11,138.73,2.8,138.73,2.8V128.59C166.65,128.49,54.16,126.44,28.26,125.8Z" style="fill:url(#Dégradé_sans_nom_926-10)"/><path d="M167,147.65C107.65,163.1,46.32,179.43.28,191.41l-.1,0A86.56,86.56,0,0,0,23.39,240.1L167,148.56Z" style="fill:url(#Dégradé_sans_nom_926-11)"/><path d="M167,148.56h0L21.26,241.78l-6.85,4.38C39.59,273,80.1,285.73,124.57,284.49Z" style="fill:url(#Dégradé_sans_nom_926-12)"/><polyline points="166.98 147.66 166.98 147.66 166.98 147.66 166.99 128.59 126.49 258.37 126.49 277.43" style="fill:url(#Dégradé_sans_nom_926-13)"/><path d="M291.17,47.39,167,155.64v0h0L124.23,306.48c95.26,0,191.73-61.71,215.48-137.84C353,121.4,335,71.28,291.17,47.39Z" style="fill:url(#Dégradé_sans_nom_926-14)"/><path d="M291.17,47.39c28.21,15.38,45.73,41.64,51.08,71,10.68-46.88-10-87.35-51.08-109.75Z" style="fill:url(#Dégradé_sans_nom_926-15)"/><path d="M291.17,27.69l-9.82,9.48L267,51l-87.93,69.82L167,147.66l17.1-33.54s53.12-52,107.09-105.48C291.17,13.09,291.18,17.83,291.17,27.69Z" style="opacity:0.84;fill:url(#Dégradé_sans_nom_58)"/><path d="M167,128.59v27L291.17,47.39V8.64C225.07,75.05,167,128.59,167,128.59Z" style="fill:url(#Dégradé_sans_nom_926-16)"/><path d="M167,128.59v27L291.17,47.39V8.64C225.07,75.05,167,128.59,167,128.59Z" style="fill:url(#Dégradé_sans_nom_926-16)"/><path d="M200.26,17C134.67,17.53,65.05,54.92,36,108.28a116.16,116.16,0,0,0-7.77,17.52L167,128.59Z" style="fill:url(#Dégradé_sans_nom_134)"/><path d="M281.35,37.17,167,147.65s-.51-19.07,0-19.06L267.34,32.25l14-14.13Z" style="fill:url(#Dégradé_sans_nom_926-18)"/><path d="M167,128.61h0v0l-1.53,0L28.26,125.8l-17.56-.35c-5.44,15.85-7,31.08-5.13,45.18Z" style="fill:url(#Dégradé_sans_nom_44)"/><path d="M167,128.61.29,172l-.1,0A86.25,86.25,0,0,0,23.31,220.5Z" style="fill:url(#Dégradé_sans_nom_114)"/><path d="M23.31,220.5a87.27,87.27,0,0,1-18.6-30C2.42,184.79.86,176,.29,172c-.6.16-.07,19.7-.1,19.7a86.25,86.25,0,0,0,23.12,48.47Z" style="fill:url(#Dégradé_sans_nom_926-19)"/><path d="M167,128.61h0L21.26,221.82l-6.85,4.38C39.59,253,80.1,265.77,124.57,264.54Z" style="fill:url(#Dégradé_sans_nom_129)"/><path d="M339.71,127.87C316.46,202.41,223.49,263.12,130.2,265.62l-6,.09v40.77c95.26,0,191.73-61.71,215.48-137.84,4.67-15,6.18-51.11,4.86-64.62A115.92,115.92,0,0,1,339.71,127.87Z" style="fill:url(#Dégradé_sans_nom_130)"/><polygon points="166.99 128.59 124.23 265.71 124.23 306.48 166.99 155.64 166.99 128.59" style="fill:url(#Dégradé_sans_nom_926-20)"/><path d="M167,128.59l-42.42,136c-37.46,1-72.1-7.86-97.14-26.71l-13-11.63v20C39.59,273,80.1,285.73,124.57,284.49L167,148.56h0Z" style="fill:url(#Dégradé_sans_nom_926-21)"/><path d="M291.17,8.64l-9.82,9.48-14,14.13L167,128.59v0h0L126.49,258.37l-2.26,7.26c95.26,0,191.73-61.71,215.48-137.84C355.57,77,335,32.53,291.17,8.64Z" style="fill:url(#Dégradé_sans_nom_123)"/><path d="M205.57,0l-5.31,17L167,128.59,267.34,32.25l14-14.13C261.18,6.62,235.37,0,205.57,0Z" style="fill:url(#Dégradé_sans_nom_120)"/><line x1="27.12" y1="9.55" x2="100.95" y2="76.73" style="fill:none;stroke:#fff;stroke-linecap:round;stroke-miterlimit:10"/><polyline points="100.95 158.62 100.95 218.06 27.12 285.23 14.49 285.23" style="fill:none;stroke:#fff;stroke-linecap:round;stroke-miterlimit:10"/><polyline points="100.95 244.66 100.95 268.27 27.12 335.44 22.14 335.44" style="fill:none;stroke:#fff;stroke-linecap:round;stroke-miterlimit:10"/><polyline points="269.55 165.51 269.55 268.27 343.37 335.44 348.36 335.44" style="fill:none;stroke:#fff;stroke-linecap:round;stroke-miterlimit:10"/><polyline points="205.59 76.73 269.55 76.73 343.37 9.55 348.36 9.55" style="fill:none;stroke:#fff;stroke-linecap:round;stroke-miterlimit:10"/><polyline points="100.95 132.59 27.12 65.42 14.99 65.42" style="fill:none;stroke:#fff;stroke-linecap:round;stroke-miterlimit:10"/><polygon points="203.42 75.49 203.42 78.02 205.6 79.28 207.78 78.02 207.78 75.49 205.6 74.23 203.42 75.49" style="fill:#fff"/><polygon points="267.36 164.1 267.36 166.62 269.55 167.88 271.73 166.62 271.73 164.1 269.55 162.84 267.36 164.1" style="fill:#fff"/><polygon points="98.76 243.4 98.76 245.92 100.95 247.18 103.13 245.92 103.13 243.4 100.95 242.14 98.76 243.4" style="fill:#fff"/><polygon points="98.76 157.35 98.76 159.88 100.95 161.14 103.13 159.88 103.13 157.35 100.95 156.09 98.76 157.35" style="fill:#fff"/><polygon points="98.76 131.33 98.76 133.85 100.95 135.12 103.13 133.85 103.13 131.33 100.95 130.07 98.76 131.33" style="fill:#fff"/><polygon points="98.76 75.49 98.76 78.02 100.95 79.28 103.13 78.02 103.13 75.49 100.95 74.23 98.76 75.49" style="fill:#fff"/></g></g></svg>