<svg id="Calque_1" data-name="Calque 1" xmlns="http://www.w3.org/2000/svg" viewBox="0 0 1276.84 485.97"><polygon points="124.9 190.91 124.9 295.05 215.09 347.12 305.27 295.05 305.27 190.91 215.09 138.85 124.9 190.91" style="fill:#fff"/><path d="M294.38,175.73a34.71,34.71,0,1,0-46,32.78l11.33,54,11.32-54A34.71,34.71,0,0,0,294.38,175.73Z" transform="translate(-44.58 -141.02)" style="fill:#fff"/><path d="M225,592.27a34.71,34.71,0,1,0,46-32.78l-11.33-54-11.32,54A34.7,34.7,0,0,0,225,592.27Z" transform="translate(-44.58 -141.02)" style="fill:#fff"/><path d="M96.65,249.8A34.71,34.71,0,1,0,102,306.06l52.43,17.19-41.1-36.8A34.71,34.71,0,0,0,96.65,249.8Z" transform="translate(-44.58 -141.02)" style="fill:#fff"/><path d="M422.68,518.2a34.71,34.71,0,1,0-5.37-56.26l-52.43-17.19,41.1,36.8A34.71,34.71,0,0,0,422.68,518.2Z" transform="translate(-44.58 -141.02)" style="fill:#fff"/><path d="M422.68,249.8a34.71,34.71,0,1,1-5.37,56.26l-52.43,17.19,41.1-36.8A34.71,34.71,0,0,1,422.68,249.8Z" transform="translate(-44.58 -141.02)" style="fill:#fff"/><path d="M96.65,518.2A34.71,34.71,0,1,1,102,461.94l52.43-17.19-41.1,36.8A34.71,34.71,0,0,1,96.65,518.2Z" transform="translate(-44.58 -141.02)" style="fill:#fff"/><path d="M611,365.58c0-46,33.81-81.29,81.49-81.29,30.35,0,52.68,12.58,67.63,31.87l-31.65,22.32c-7.58-11.7-19.72-18.42-35.76-18.42-24.49,0-44,19.51-44,45.52,0,26.87,18.42,45.3,44.65,45.3,18.21,0,31-9.11,36.41-24.71h-44V351.05h85v18c0,41.84-31,77.82-76.73,77.82-32.95,0-57.68-15.3-71.24-37.77A84,84,0,0,1,611,365.58Z" transform="translate(-44.58 -141.02)" style="fill:#fff"/><path d="M842,386.17c0-33.6,26.23-60.91,61.56-60.91,35.76,0,60.9,25.79,60.9,60.26v12.79H877.37c3.9,11.7,13.66,18.2,27.09,18.2,11.27,0,19.3-4.55,24.06-12.35L958,421.28c-11.92,16-28,25.58-54.19,25.58C865.66,446.86,842,420.2,842,386.17Zm36.41-14.74h50.07c-3.9-10.4-12.79-15.83-24.71-15.83C892.1,355.6,883,361.68,878.45,371.43Z" transform="translate(-44.58 -141.02)" style="fill:#fff"/><path d="M980.73,327.65h36.63V341.3c7.38-10,18.21-16,31.43-16,25.8,0,42.48,17.13,42.48,45.95v73.48h-37.49V378.58c0-13.44-5.86-21.24-17.78-21.24-10.61,0-18.42,7.59-18.42,23v64.37H980.73Z" transform="translate(-44.58 -141.02)" style="fill:#fff"/><path d="M1283.7,327.65,1259.86,394l-19.2-49.8a25.8,25.8,0,0,0-24.08-16.52h-57.92V282.56l-36,19.72v25.37h-20.16v32.07h20.16v40.54c0,34.68,15,46.6,41,46.6a51,51,0,0,0,31.21-10.41l-16.47-27.52c-3,2.82-6.06,4.12-9.54,4.12-6.28,0-10.18-3-10.18-15V359.72h43.54a9.43,9.43,0,0,1,8.73,5.87l30.51,75-1.74,4.34c-4.11,10.83-10.62,15.39-19.93,15.39-6.51,0-11.71-3-15.83-7.37l-20.8,28.61c9.53,7.15,23.18,12.57,37,12.57,26.67,0,39.89-10.62,52.46-42.7l48.77-123.76Z" transform="translate(-44.58 -141.02)" style="fill:#fff"/><path d="M789.39,293.61l36.19-19.72v170.8H789.39Z" transform="translate(-44.58 -141.02)" style="fill:#fff"/></svg>