<svg id="background" xmlns="http://www.w3.org/2000/svg" xmlns:xlink="http://www.w3.org/1999/xlink" viewBox="0 0 2500 14945.17"><defs><radialGradient id="Dégradé_sans_nom_671" cx="4947.42" cy="13483.02" r="3735.93" gradientTransform="translate(7618.47 16696.89) rotate(180)" gradientUnits="userSpaceOnUse"><stop offset="0.49" stop-color="#fff" stop-opacity="0"/><stop offset="1" stop-color="#788cff"/></radialGradient><radialGradient id="Dégradé_sans_nom_664" cx="6432.79" cy="14006.16" r="2268.44" gradientTransform="translate(7618.47 16696.89) rotate(180)" gradientUnits="userSpaceOnUse"><stop offset="0" stop-color="#fff" stop-opacity="0"/><stop offset="1" stop-color="#788cff"/></radialGradient><radialGradient id="Dégradé_sans_nom_664-2" cx="6474.39" cy="14356.17" r="3171.87" xlink:href="#Dégradé_sans_nom_664"/><radialGradient id="Dégradé_sans_nom_670" cx="6078.87" cy="13720.18" r="3188.88" gradientTransform="translate(7618.47 16696.89) rotate(180)" gradientUnits="userSpaceOnUse"><stop offset="0.26" stop-color="#fff" stop-opacity="0"/><stop offset="1" stop-color="#788cff"/></radialGradient><radialGradient id="Dégradé_sans_nom_664-5" cx="6432.79" cy="14236.77" r="1925.94" xlink:href="#Dégradé_sans_nom_664"/><radialGradient id="Dégradé_sans_nom_674" cx="6539.22" cy="14298.16" r="3171.87" gradientTransform="translate(7618.47 16696.89) rotate(180)" gradientUnits="userSpaceOnUse"><stop offset="0.43" stop-color="#fff" stop-opacity="0"/><stop offset="1" stop-color="#788cff"/></radialGradient><radialGradient id="Dégradé_sans_nom_664-7" cx="6021.13" cy="14006.16" r="1936.27" xlink:href="#Dégradé_sans_nom_664"/><radialGradient id="Dégradé_sans_nom_668" cx="6237.63" cy="14039.3" r="2499.16" gradientTransform="translate(7618.47 16696.89) rotate(180)" gradientUnits="userSpaceOnUse"><stop offset="0.56" stop-color="#fff" stop-opacity="0"/><stop offset="1" stop-color="#788cff"/></radialGradient><radialGradient id="Dégradé_sans_nom_17" cx="6474.39" cy="14356.17" r="3171.87" gradientTransform="translate(7618.47 16696.89) rotate(180)" gradientUnits="userSpaceOnUse"><stop offset="0" stop-color="#fff" stop-opacity="0"/><stop offset="1" stop-color="#788cff" stop-opacity="0.6"/></radialGradient><radialGradient id="Dégradé_sans_nom_671-2" cx="4947.42" cy="11158.05" r="3735.93" xlink:href="#Dégradé_sans_nom_671"/><radialGradient id="Dégradé_sans_nom_664-11" cx="6432.79" cy="11681.18" r="2268.44" xlink:href="#Dégradé_sans_nom_664"/><radialGradient id="Dégradé_sans_nom_664-12" cx="6474.39" cy="12031.2" r="3171.87" xlink:href="#Dégradé_sans_nom_664"/><radialGradient id="Dégradé_sans_nom_670-2" cx="6078.87" cy="11395.21" r="3188.88" xlink:href="#Dégradé_sans_nom_670"/><radialGradient id="Dégradé_sans_nom_664-15" cx="6432.79" cy="11911.8" r="1925.94" xlink:href="#Dégradé_sans_nom_664"/><radialGradient id="Dégradé_sans_nom_674-2" cx="6539.22" cy="11973.19" r="3171.87" xlink:href="#Dégradé_sans_nom_674"/><radialGradient id="Dégradé_sans_nom_664-17" cx="6021.13" cy="11681.18" r="1936.27" xlink:href="#Dégradé_sans_nom_664"/><radialGradient id="Dégradé_sans_nom_668-2" cx="6237.63" cy="11714.33" r="2499.16" xlink:href="#Dégradé_sans_nom_668"/><radialGradient id="Dégradé_sans_nom_17-2" cx="6474.39" cy="12031.2" r="3171.87" xlink:href="#Dégradé_sans_nom_17"/><radialGradient id="Dégradé_sans_nom_671-3" cx="4947.42" cy="8833.08" r="3735.93" xlink:href="#Dégradé_sans_nom_671"/><radialGradient id="Dégradé_sans_nom_664-21" cx="6432.79" cy="9356.21" r="2268.44" xlink:href="#Dégradé_sans_nom_664"/><radialGradient id="Dégradé_sans_nom_664-22" cx="6474.39" cy="9706.23" r="3171.87" xlink:href="#Dégradé_sans_nom_664"/><radialGradient id="Dégradé_sans_nom_670-3" cx="6078.87" cy="9070.24" r="3188.88" xlink:href="#Dégradé_sans_nom_670"/><radialGradient id="Dégradé_sans_nom_664-25" cx="6432.79" cy="9586.83" r="1925.94" xlink:href="#Dégradé_sans_nom_664"/><radialGradient id="Dégradé_sans_nom_674-3" cx="6539.22" cy="9648.22" r="3171.87" xlink:href="#Dégradé_sans_nom_674"/><radialGradient id="Dégradé_sans_nom_664-27" cx="6021.13" cy="9356.21" r="1936.27" xlink:href="#Dégradé_sans_nom_664"/><radialGradient id="Dégradé_sans_nom_668-3" cx="6237.63" cy="9389.36" r="2499.16" xlink:href="#Dégradé_sans_nom_668"/><radialGradient id="Dégradé_sans_nom_17-3" cx="6474.39" cy="9706.23" r="3171.87" xlink:href="#Dégradé_sans_nom_17"/><radialGradient id="Dégradé_sans_nom_671-4" cx="4947.42" cy="6508.11" r="3735.93" xlink:href="#Dégradé_sans_nom_671"/><radialGradient id="Dégradé_sans_nom_664-31" cx="6432.79" cy="7031.24" r="2268.44" xlink:href="#Dégradé_sans_nom_664"/><radialGradient id="Dégradé_sans_nom_664-32" cx="6474.39" cy="7381.26" r="3171.87" xlink:href="#Dégradé_sans_nom_664"/><radialGradient id="Dégradé_sans_nom_670-4" cx="6078.87" cy="6745.27" r="3188.88" xlink:href="#Dégradé_sans_nom_670"/><radialGradient id="Dégradé_sans_nom_664-35" cx="6432.79" cy="7261.85" r="1925.94" xlink:href="#Dégradé_sans_nom_664"/><radialGradient id="Dégradé_sans_nom_674-4" cx="6539.22" cy="7323.25" r="3171.87" xlink:href="#Dégradé_sans_nom_674"/><radialGradient id="Dégradé_sans_nom_664-37" cx="6021.13" cy="7031.24" r="1936.27" xlink:href="#Dégradé_sans_nom_664"/><radialGradient id="Dégradé_sans_nom_668-4" cx="6237.63" cy="7064.38" r="2499.16" xlink:href="#Dégradé_sans_nom_668"/><radialGradient id="Dégradé_sans_nom_17-4" cx="6474.39" cy="7381.26" r="3171.87" xlink:href="#Dégradé_sans_nom_17"/><radialGradient id="Dégradé_sans_nom_671-5" cx="4947.42" cy="4183.14" r="3735.93" xlink:href="#Dégradé_sans_nom_671"/><radialGradient id="Dégradé_sans_nom_664-41" cx="6432.79" cy="4706.27" r="2268.44" xlink:href="#Dégradé_sans_nom_664"/><radialGradient id="Dégradé_sans_nom_664-42" cx="6474.39" cy="5056.29" r="3171.87" xlink:href="#Dégradé_sans_nom_664"/><radialGradient id="Dégradé_sans_nom_670-5" cx="6078.87" cy="4420.3" r="3188.88" xlink:href="#Dégradé_sans_nom_670"/><radialGradient id="Dégradé_sans_nom_664-45" cx="6432.79" cy="4936.88" r="1925.94" xlink:href="#Dégradé_sans_nom_664"/><radialGradient id="Dégradé_sans_nom_674-5" cx="6539.22" cy="4998.28" r="3171.87" xlink:href="#Dégradé_sans_nom_674"/><radialGradient id="Dégradé_sans_nom_664-47" cx="6021.13" cy="4706.27" r="1936.27" xlink:href="#Dégradé_sans_nom_664"/><radialGradient id="Dégradé_sans_nom_668-5" cx="6237.63" cy="4739.41" r="2499.16" xlink:href="#Dégradé_sans_nom_668"/><radialGradient id="Dégradé_sans_nom_17-5" cx="6474.39" cy="5056.29" r="3171.87" xlink:href="#Dégradé_sans_nom_17"/><radialGradient id="Dégradé_sans_nom_671-6" cx="4947.42" cy="1858.16" r="3735.93" xlink:href="#Dégradé_sans_nom_671"/><radialGradient id="Dégradé_sans_nom_664-51" cx="6432.79" cy="2381.3" r="2268.44" xlink:href="#Dégradé_sans_nom_664"/><radialGradient id="Dégradé_sans_nom_664-52" cx="6474.39" cy="2731.32" r="3171.87" xlink:href="#Dégradé_sans_nom_664"/><radialGradient id="Dégradé_sans_nom_670-6" cx="6078.87" cy="2095.33" r="3188.88" xlink:href="#Dégradé_sans_nom_670"/><radialGradient id="Dégradé_sans_nom_664-55" cx="6432.79" cy="2611.91" r="1925.94" xlink:href="#Dégradé_sans_nom_664"/><radialGradient id="Dégradé_sans_nom_674-6" cx="6539.22" cy="2673.31" r="3171.87" xlink:href="#Dégradé_sans_nom_674"/><radialGradient id="Dégradé_sans_nom_664-57" cx="6021.13" cy="2381.3" r="1936.27" xlink:href="#Dégradé_sans_nom_664"/><radialGradient id="Dégradé_sans_nom_668-6" cx="6237.63" cy="2414.44" r="2499.16" xlink:href="#Dégradé_sans_nom_668"/><radialGradient id="Dégradé_sans_nom_17-6" cx="6474.39" cy="2731.32" r="3171.87" xlink:href="#Dégradé_sans_nom_17"/><linearGradient id="Dégradé_sans_nom_688" x1="826.94" y1="151.9" x2="-705.41" y2="1696.22" gradientUnits="userSpaceOnUse"><stop offset="0" stop-color="#fff" stop-opacity="0"/><stop offset="0.09" stop-color="#fbfcff" stop-opacity="0.03"/><stop offset="0.22" stop-color="#f1f3ff" stop-opacity="0.11"/><stop offset="0.37" stop-color="#dfe4ff" stop-opacity="0.23"/><stop offset="0.55" stop-color="#c7d0ff" stop-opacity="0.41"/><stop offset="0.74" stop-color="#a9b6ff" stop-opacity="0.64"/><stop offset="0.94" stop-color="#8496ff" stop-opacity="0.91"/><stop offset="1" stop-color="#788cff"/></linearGradient><linearGradient id="Dégradé_sans_nom_688-2" x1="826.94" y1="4579.11" x2="-705.41" y2="6123.43" xlink:href="#Dégradé_sans_nom_688"/><linearGradient id="Dégradé_sans_nom_688-3" x1="1762.31" y1="7528.05" x2="-1353.6" y2="10668.31" xlink:href="#Dégradé_sans_nom_688"/><linearGradient id="Dégradé_sans_nom_688-4" x1="2376.19" y1="11439.48" x2="394.47" y2="13436.69" xlink:href="#Dégradé_sans_nom_688"/><linearGradient id="Dégradé_sans_nom_688-5" x1="2907.55" y1="1386.11" x2="1700.45" y2="554.55" xlink:href="#Dégradé_sans_nom_688"/><linearGradient id="Dégradé_sans_nom_688-6" x1="2907.55" y1="4481.99" x2="1700.45" y2="3650.43" xlink:href="#Dégradé_sans_nom_688"/><linearGradient id="Dégradé_sans_nom_688-7" x1="564.3" y1="5962.79" x2="-393.42" y2="8037.84" xlink:href="#Dégradé_sans_nom_688"/><linearGradient id="Dégradé_sans_nom_688-8" x1="558.52" y1="10559.73" x2="7.83" y2="12515.07" xlink:href="#Dégradé_sans_nom_688"/><linearGradient id="Dégradé_sans_nom_688-9" x1="2076.51" y1="13651.02" x2="1525.82" y2="15606.36" xlink:href="#Dégradé_sans_nom_688"/><linearGradient id="Dégradé_sans_nom_688-10" x1="1587.89" y1="8300.08" x2="2529.65" y2="8778.94" xlink:href="#Dégradé_sans_nom_688"/><linearGradient id="Dégradé_sans_nom_693" x1="2594.98" y1="211.12" x2="1992.42" y2="630.12" gradientUnits="userSpaceOnUse"><stop offset="0.22" stop-color="#788cff" stop-opacity="0"/><stop offset="1" stop-color="#788cff"/></linearGradient><linearGradient id="Dégradé_sans_nom_693-2" x1="2594.98" y1="4643.6" x2="1992.42" y2="5062.6" xlink:href="#Dégradé_sans_nom_693"/><linearGradient id="Dégradé_sans_nom_2" x1="1250" y1="773.12" x2="1250" y2="-64.71" gradientUnits="userSpaceOnUse"><stop offset="0" stop-color="#0016ff" stop-opacity="0"/><stop offset="0.34" stop-color="#151dcb" stop-opacity="0.42"/><stop offset="0.63" stop-color="#2423a4" stop-opacity="0.74"/><stop offset="0.86" stop-color="#2e268c" stop-opacity="0.93"/><stop offset="1" stop-color="#312783"/></linearGradient><radialGradient id="Dégradé_sans_nom_671-7" cx="1355.92" cy="360.65" r="3735.93" gradientTransform="matrix(1, 0, 0, 1, 0, 0)" xlink:href="#Dégradé_sans_nom_671"/><radialGradient id="Dégradé_sans_nom_664-61" cx="1314.31" cy="390.43" r="2268.44" gradientTransform="matrix(1, 0, 0, 1, 0, 0)" xlink:href="#Dégradé_sans_nom_664"/><radialGradient id="Dégradé_sans_nom_664-62" cx="1355.92" cy="740.45" r="3171.87" gradientTransform="matrix(1, 0, 0, 1, 0, 0)" xlink:href="#Dégradé_sans_nom_664"/><radialGradient id="Dégradé_sans_nom_670-7" cx="960.4" cy="104.46" r="3188.88" gradientTransform="matrix(1, 0, 0, 1, 0, 0)" xlink:href="#Dégradé_sans_nom_670"/><radialGradient id="Dégradé_sans_nom_664-65" cx="1314.31" cy="621.04" r="1925.94" gradientTransform="matrix(1, 0, 0, 1, 0, 0)" xlink:href="#Dégradé_sans_nom_664"/><radialGradient id="Dégradé_sans_nom_674-7" cx="1420.75" cy="682.44" r="3171.87" gradientTransform="matrix(1, 0, 0, 1, 0, 0)" xlink:href="#Dégradé_sans_nom_674"/><radialGradient id="Dégradé_sans_nom_664-67" cx="902.66" cy="390.43" r="1936.27" gradientTransform="matrix(1, 0, 0, 1, 0, 0)" xlink:href="#Dégradé_sans_nom_664"/><radialGradient id="Dégradé_sans_nom_668-7" cx="1127.66" cy="864.4" r="1118.16" gradientTransform="matrix(1, 0, 0, 1, 0, 0)" xlink:href="#Dégradé_sans_nom_668"/><linearGradient id="Dégradé_sans_nom_2-2" x1="1250" y1="379.56" x2="1250" y2="-252.2" xlink:href="#Dégradé_sans_nom_2"/></defs><rect y="0.02" width="2500" height="14945.16" style="fill:#788cff"/><polygon points="0 3366.39 1250 4088.08 1250 2644.7 0 3366.39" style="fill:url(#Dégradé_sans_nom_671)"/><polygon points="1250 2644.7 491 2206.5 491 3082.91 1250 2644.7" style="fill:url(#Dégradé_sans_nom_664)"/><polygon points="1250 2644.7 0 1923.02 0 3366.39 1250 2644.7" style="fill:url(#Dégradé_sans_nom_664-2)"/><polygon points="1250 3521.11 2008.99 3082.91 1250 2644.7 1250 3521.11" style="fill:url(#Dégradé_sans_nom_664)"/><polygon points="1250 4088.08 2500 3366.39 1250 2644.7 1250 4088.08" style="fill:url(#Dégradé_sans_nom_670)"/><polygon points="1250 1768.29 491 2206.5 1250 2644.7 1250 1768.29" style="fill:url(#Dégradé_sans_nom_664)"/><polygon points="1250 1768.29 491 2206.5 1250 2644.7 1250 1768.29" style="fill:url(#Dégradé_sans_nom_664-5)"/><polygon points="1250 1201.33 0 1923.02 1250 2644.7 1250 1201.33" style="fill:url(#Dégradé_sans_nom_674)"/><polygon points="2008.99 3082.91 2008.99 2206.5 1250 2644.7 2008.99 3082.91" style="fill:url(#Dégradé_sans_nom_664)"/><polygon points="2008.99 3082.91 2008.99 2206.5 1250 2644.7 2008.99 3082.91" style="fill:url(#Dégradé_sans_nom_664-7)"/><polygon points="2500 3366.39 2500 1923.02 1250 2644.7 2500 3366.39" style="fill:url(#Dégradé_sans_nom_668)"/><polygon points="2008.99 2206.5 1250 1768.29 1250 2644.7 2008.99 2206.5" style="fill:url(#Dégradé_sans_nom_664)"/><polygon points="2008.99 2206.5 1250 1768.29 1250 2644.7 2008.99 2206.5" style="fill:url(#Dégradé_sans_nom_664-5)"/><polygon points="2008.99 2206.5 1250 1768.29 1250 2644.7 2008.99 2206.5" style="fill:url(#Dégradé_sans_nom_664-7)"/><polygon points="2500 1923.02 1250 1201.33 1250 2644.7 2500 1923.02" style="fill:url(#Dégradé_sans_nom_17)"/><polygon points="0 5691.36 1250 6413.05 1250 4969.67 0 5691.36" style="fill:url(#Dégradé_sans_nom_671-2)"/><polygon points="1250 4969.67 491 4531.47 491 5407.88 1250 4969.67" style="fill:url(#Dégradé_sans_nom_664-11)"/><polygon points="1250 4969.67 0 4247.99 0 5691.36 1250 4969.67" style="fill:url(#Dégradé_sans_nom_664-12)"/><polygon points="1250 5846.09 2008.99 5407.88 1250 4969.67 1250 5846.09" style="fill:url(#Dégradé_sans_nom_664-11)"/><polygon points="1250 6413.05 2500 5691.36 1250 4969.67 1250 6413.05" style="fill:url(#Dégradé_sans_nom_670-2)"/><polygon points="1250 4093.26 491 4531.47 1250 4969.67 1250 4093.26" style="fill:url(#Dégradé_sans_nom_664-11)"/><polygon points="1250 4093.26 491 4531.47 1250 4969.67 1250 4093.26" style="fill:url(#Dégradé_sans_nom_664-15)"/><polygon points="1250 3526.3 0 4247.99 1250 4969.67 1250 3526.3" style="fill:url(#Dégradé_sans_nom_674-2)"/><polygon points="2008.99 5407.88 2008.99 4531.47 1250 4969.67 2008.99 5407.88" style="fill:url(#Dégradé_sans_nom_664-11)"/><polygon points="2008.99 5407.88 2008.99 4531.47 1250 4969.67 2008.99 5407.88" style="fill:url(#Dégradé_sans_nom_664-17)"/><polygon points="2500 5691.36 2500 4247.99 1250 4969.67 2500 5691.36" style="fill:url(#Dégradé_sans_nom_668-2)"/><polygon points="2008.99 4531.47 1250 4093.26 1250 4969.67 2008.99 4531.47" style="fill:url(#Dégradé_sans_nom_664-11)"/><polygon points="2008.99 4531.47 1250 4093.26 1250 4969.67 2008.99 4531.47" style="fill:url(#Dégradé_sans_nom_664-15)"/><polygon points="2008.99 4531.47 1250 4093.26 1250 4969.67 2008.99 4531.47" style="fill:url(#Dégradé_sans_nom_664-17)"/><polygon points="2500 4247.99 1250 3526.3 1250 4969.67 2500 4247.99" style="fill:url(#Dégradé_sans_nom_17-2)"/><polygon points="0 8016.33 1250 8738.02 1250 7294.65 0 8016.33" style="fill:url(#Dégradé_sans_nom_671-3)"/><polygon points="1250 7294.65 491 6856.44 491 7732.85 1250 7294.65" style="fill:url(#Dégradé_sans_nom_664-21)"/><polygon points="1250 7294.65 0 6572.96 0 8016.33 1250 7294.65" style="fill:url(#Dégradé_sans_nom_664-22)"/><polygon points="1250 8171.06 2008.99 7732.85 1250 7294.65 1250 8171.06" style="fill:url(#Dégradé_sans_nom_664-21)"/><polygon points="1250 8738.02 2500 8016.33 1250 7294.65 1250 8738.02" style="fill:url(#Dégradé_sans_nom_670-3)"/><polygon points="1250 6418.23 491 6856.44 1250 7294.65 1250 6418.23" style="fill:url(#Dégradé_sans_nom_664-21)"/><polygon points="1250 6418.23 491 6856.44 1250 7294.65 1250 6418.23" style="fill:url(#Dégradé_sans_nom_664-25)"/><polygon points="1250 5851.27 0 6572.96 1250 7294.65 1250 5851.27" style="fill:url(#Dégradé_sans_nom_674-3)"/><polygon points="2008.99 7732.85 2008.99 6856.44 1250 7294.65 2008.99 7732.85" style="fill:url(#Dégradé_sans_nom_664-21)"/><polygon points="2008.99 7732.85 2008.99 6856.44 1250 7294.65 2008.99 7732.85" style="fill:url(#Dégradé_sans_nom_664-27)"/><polygon points="2500 8016.33 2500 6572.96 1250 7294.65 2500 8016.33" style="fill:url(#Dégradé_sans_nom_668-3)"/><polygon points="2008.99 6856.44 1250 6418.23 1250 7294.65 2008.99 6856.44" style="fill:url(#Dégradé_sans_nom_664-21)"/><polygon points="2008.99 6856.44 1250 6418.23 1250 7294.65 2008.99 6856.44" style="fill:url(#Dégradé_sans_nom_664-25)"/><polygon points="2008.99 6856.44 1250 6418.23 1250 7294.65 2008.99 6856.44" style="fill:url(#Dégradé_sans_nom_664-27)"/><polygon points="2500 6572.96 1250 5851.27 1250 7294.65 2500 6572.96" style="fill:url(#Dégradé_sans_nom_17-3)"/><polygon points="0 10341.3 1250 11062.99 1250 9619.62 0 10341.3" style="fill:url(#Dégradé_sans_nom_671-4)"/><polygon points="1250 9619.62 491 9181.41 491 10057.82 1250 9619.62" style="fill:url(#Dégradé_sans_nom_664-31)"/><polygon points="1250 9619.62 0 8897.93 0 10341.3 1250 9619.62" style="fill:url(#Dégradé_sans_nom_664-32)"/><polygon points="1250 10496.03 2008.99 10057.82 1250 9619.62 1250 10496.03" style="fill:url(#Dégradé_sans_nom_664-31)"/><polygon points="1250 11062.99 2500 10341.3 1250 9619.62 1250 11062.99" style="fill:url(#Dégradé_sans_nom_670-4)"/><polygon points="1250 8743.2 491 9181.41 1250 9619.62 1250 8743.2" style="fill:url(#Dégradé_sans_nom_664-31)"/><polygon points="1250 8743.2 491 9181.41 1250 9619.62 1250 8743.2" style="fill:url(#Dégradé_sans_nom_664-35)"/><polygon points="1250 8176.24 0 8897.93 1250 9619.62 1250 8176.24" style="fill:url(#Dégradé_sans_nom_674-4)"/><polygon points="2008.99 10057.82 2008.99 9181.41 1250 9619.62 2008.99 10057.82" style="fill:url(#Dégradé_sans_nom_664-31)"/><polygon points="2008.99 10057.82 2008.99 9181.41 1250 9619.62 2008.99 10057.82" style="fill:url(#Dégradé_sans_nom_664-37)"/><polygon points="2500 10341.3 2500 8897.93 1250 9619.62 2500 10341.3" style="fill:url(#Dégradé_sans_nom_668-4)"/><polygon points="2008.99 9181.41 1250 8743.2 1250 9619.62 2008.99 9181.41" style="fill:url(#Dégradé_sans_nom_664-31)"/><polygon points="2008.99 9181.41 1250 8743.2 1250 9619.62 2008.99 9181.41" style="fill:url(#Dégradé_sans_nom_664-35)"/><polygon points="2008.99 9181.41 1250 8743.2 1250 9619.62 2008.99 9181.41" style="fill:url(#Dégradé_sans_nom_664-37)"/><polygon points="2500 8897.93 1250 8176.24 1250 9619.62 2500 8897.93" style="fill:url(#Dégradé_sans_nom_17-4)"/><polygon points="0 12666.27 1250 13387.96 1250 11944.59 0 12666.27" style="fill:url(#Dégradé_sans_nom_671-5)"/><polygon points="1250 11944.59 491 11506.38 491 12382.79 1250 11944.59" style="fill:url(#Dégradé_sans_nom_664-41)"/><polygon points="1250 11944.59 0 11222.9 0 12666.27 1250 11944.59" style="fill:url(#Dégradé_sans_nom_664-42)"/><polygon points="1250 12821 2008.99 12382.79 1250 11944.59 1250 12821" style="fill:url(#Dégradé_sans_nom_664-41)"/><polygon points="1250 13387.96 2500 12666.27 1250 11944.59 1250 13387.96" style="fill:url(#Dégradé_sans_nom_670-5)"/><polygon points="1250 11068.17 491 11506.38 1250 11944.59 1250 11068.17" style="fill:url(#Dégradé_sans_nom_664-41)"/><polygon points="1250 11068.17 491 11506.38 1250 11944.59 1250 11068.17" style="fill:url(#Dégradé_sans_nom_664-45)"/><polygon points="1250 10501.21 0 11222.9 1250 11944.59 1250 10501.21" style="fill:url(#Dégradé_sans_nom_674-5)"/><polygon points="2008.99 12382.79 2008.99 11506.38 1250 11944.59 2008.99 12382.79" style="fill:url(#Dégradé_sans_nom_664-41)"/><polygon points="2008.99 12382.79 2008.99 11506.38 1250 11944.59 2008.99 12382.79" style="fill:url(#Dégradé_sans_nom_664-47)"/><polygon points="2500 12666.27 2500 11222.9 1250 11944.59 2500 12666.27" style="fill:url(#Dégradé_sans_nom_668-5)"/><polygon points="2008.99 11506.38 1250 11068.17 1250 11944.59 2008.99 11506.38" style="fill:url(#Dégradé_sans_nom_664-41)"/><polygon points="2008.99 11506.38 1250 11068.17 1250 11944.59 2008.99 11506.38" style="fill:url(#Dégradé_sans_nom_664-45)"/><polygon points="2008.99 11506.38 1250 11068.17 1250 11944.59 2008.99 11506.38" style="fill:url(#Dégradé_sans_nom_664-47)"/><polygon points="2500 11222.9 1250 10501.21 1250 11944.59 2500 11222.9" style="fill:url(#Dégradé_sans_nom_17-5)"/><polygon points="0 14991.25 1250 15712.93 1250 14269.56 0 14991.25" style="fill:url(#Dégradé_sans_nom_671-6)"/><polygon points="1250 14269.56 491 13831.35 491 14707.76 1250 14269.56" style="fill:url(#Dégradé_sans_nom_664-51)"/><polygon points="1250 14269.56 0 13547.87 0 14991.25 1250 14269.56" style="fill:url(#Dégradé_sans_nom_664-52)"/><polygon points="1250 15145.97 2008.99 14707.76 1250 14269.56 1250 15145.97" style="fill:url(#Dégradé_sans_nom_664-51)"/><polygon points="1250 15712.93 2500 14991.25 1250 14269.56 1250 15712.93" style="fill:url(#Dégradé_sans_nom_670-6)"/><polygon points="1250 13393.15 491 13831.35 1250 14269.56 1250 13393.15" style="fill:url(#Dégradé_sans_nom_664-51)"/><polygon points="1250 13393.15 491 13831.35 1250 14269.56 1250 13393.15" style="fill:url(#Dégradé_sans_nom_664-55)"/><polygon points="1250 12826.18 0 13547.87 1250 14269.56 1250 12826.18" style="fill:url(#Dégradé_sans_nom_674-6)"/><polygon points="2008.99 14707.76 2008.99 13831.35 1250 14269.56 2008.99 14707.76" style="fill:url(#Dégradé_sans_nom_664-51)"/><polygon points="2008.99 14707.76 2008.99 13831.35 1250 14269.56 2008.99 14707.76" style="fill:url(#Dégradé_sans_nom_664-57)"/><polygon points="2500 14991.25 2500 13547.87 1250 14269.56 2500 14991.25" style="fill:url(#Dégradé_sans_nom_668-6)"/><polygon points="2008.99 13831.35 1250 13393.15 1250 14269.56 2008.99 13831.35" style="fill:url(#Dégradé_sans_nom_664-51)"/><polygon points="2008.99 13831.35 1250 13393.15 1250 14269.56 2008.99 13831.35" style="fill:url(#Dégradé_sans_nom_664-55)"/><polygon points="2008.99 13831.35 1250 13393.15 1250 14269.56 2008.99 13831.35" style="fill:url(#Dégradé_sans_nom_664-57)"/><polygon points="2500 13547.87 1250 12826.18 1250 14269.56 2500 13547.87" style="fill:url(#Dégradé_sans_nom_17-6)"/><polygon points="-43.87 263.44 -43.87 821.49 439.4 1100.5 922.68 821.49 922.68 263.44 439.4 -15.57 -43.87 263.44" style="fill:url(#Dégradé_sans_nom_688)"/><polygon points="-43.87 4690.65 -43.87 5248.69 439.4 5527.71 922.68 5248.69 922.68 4690.65 439.4 4411.64 -43.87 4690.65" style="fill:url(#Dégradé_sans_nom_688-2)"/><polygon points="-8.42 7754.87 -8.42 8889.6 974.28 9456.97 1956.99 8889.6 1956.99 7754.87 974.28 7187.51 -8.42 7754.87" style="fill:url(#Dégradé_sans_nom_688-3)"/><polygon points="1250 11583.74 1250 12305.43 1875 12666.27 2500 12305.43 2500 11583.74 1875 11222.9 1250 11583.74" style="fill:url(#Dégradé_sans_nom_688-4)"/><polygon points="1616.4 533.83 1616.4 918.75 1949.76 1111.22 2283.11 918.75 2283.11 533.83 1949.76 341.36 1616.4 533.83" style="fill:url(#Dégradé_sans_nom_688-5)"/><polygon points="1616.4 3629.71 1616.4 4014.64 1949.76 4207.1 2283.11 4014.64 2283.11 3629.71 1949.76 3437.25 1616.4 3629.71" style="fill:url(#Dégradé_sans_nom_688-6)"/><polygon points="0 5848.71 0 6411.21 487.14 6692.46 974.28 6411.21 974.28 5848.71 487.14 5567.46 0 5848.71" style="fill:url(#Dégradé_sans_nom_688-7)"/><polygon points="157.65 10606.99 157.65 10991.91 491 11184.38 824.36 10991.91 824.36 10606.99 491 10414.52 157.65 10606.99" style="fill:url(#Dégradé_sans_nom_688-8)"/><polygon points="1675.64 13698.28 1675.64 14083.21 2008.99 14275.67 2342.35 14083.21 2342.35 13698.28 2008.99 13505.82 1675.64 13698.28" style="fill:url(#Dégradé_sans_nom_688-9)"/><polygon points="1586.24 8276.28 1586.24 8661.21 1919.6 8853.67 2252.96 8661.21 2252.96 8276.28 1919.6 8083.82 1586.24 8276.28" style="fill:url(#Dégradé_sans_nom_688-10)"/><polygon points="2008.49 351.38 2008.49 594.13 2218.72 715.51 2428.95 594.13 2428.95 351.38 2218.72 230 2008.49 351.38" style="fill:url(#Dégradé_sans_nom_693)"/><polygon points="2008.49 4783.86 2008.49 5026.61 2218.72 5147.99 2428.95 5026.61 2428.95 4783.86 2218.72 4662.48 2008.49 4783.86" style="fill:url(#Dégradé_sans_nom_693-2)"/><rect y="0.01" width="2500" height="919.08" style="fill:url(#Dégradé_sans_nom_2)"/><polygon points="2500 -285.22 1250 -1006.91 1250 436.47 2500 -285.22" style="fill:url(#Dégradé_sans_nom_671-7)"/><polygon points="1250 436.47 2008.99 874.67 2008.99 -1.74 1250 436.47" style="fill:url(#Dégradé_sans_nom_664-61)"/><polygon points="1250 436.47 2500 1158.15 2500 -285.22 1250 436.47" style="fill:url(#Dégradé_sans_nom_664-62)"/><polygon points="1250 -439.94 491 -1.74 1250 436.47 1250 -439.94" style="fill:url(#Dégradé_sans_nom_664-61)"/><polygon points="1250 -1006.91 0 -285.22 1250 436.47 1250 -1006.91" style="fill:url(#Dégradé_sans_nom_670-7)"/><polygon points="1250 1312.88 2008.99 874.67 1250 436.47 1250 1312.88" style="fill:url(#Dégradé_sans_nom_664-61)"/><polygon points="1250 1312.88 2008.99 874.67 1250 436.47 1250 1312.88" style="fill:url(#Dégradé_sans_nom_664-65)"/><polygon points="1250 1879.84 2500 1158.15 1250 436.47 1250 1879.84" style="fill:url(#Dégradé_sans_nom_674-7)"/><polygon points="491 -1.74 491 874.67 1250 436.47 491 -1.74" style="fill:url(#Dégradé_sans_nom_664-61)"/><polygon points="491 -1.74 491 874.67 1250 436.47 491 -1.74" style="fill:url(#Dégradé_sans_nom_664-67)"/><polygon points="0 -285.22 0 1158.15 1250 436.47 0 -285.22" style="fill:url(#Dégradé_sans_nom_668-7)"/><polygon points="491 874.67 1250 1312.88 1250 436.47 491 874.67" style="fill:url(#Dégradé_sans_nom_664-61)"/><polygon points="491 874.67 1250 1312.88 1250 436.47 491 874.67" style="fill:url(#Dégradé_sans_nom_664-65)"/><polygon points="491 874.67 1250 1312.88 1250 436.47 491 874.67" style="fill:url(#Dégradé_sans_nom_664-67)"/><polygon points="0 1158.15 1250 1879.84 1250 436.47 0 1158.15" style="fill:url(#Dégradé_sans_nom_664-62)"/><rect x="0.13" y="0.18" width="2499.74" height="443.23" style="fill:url(#Dégradé_sans_nom_2-2)"/></svg>