<?xml version="1.0" encoding="utf-8"?>
<!-- Generator: Adobe Illustrator 24.3.0, SVG Export Plug-In . SVG Version: 6.00 Build 0)  -->
<svg version="1.1" id="Calque_1" xmlns="http://www.w3.org/2000/svg" xmlns:xlink="http://www.w3.org/1999/xlink" x="0px" y="0px"
	 viewBox="0 0 58.53 58.53" style="enable-background:new 0 0 58.53 58.53;" xml:space="preserve">
<style type="text/css">
	.st0{fill:#FFFFFF;}
	.st1{opacity:0.6;}
	.st2{clip-path:url(#SVGID_2_);fill:#010101;}
	.st3{opacity:0.45;}
	.st4{clip-path:url(#SVGID_4_);fill:#010101;}
	.st5{opacity:0.8;}
	.st6{clip-path:url(#SVGID_6_);fill:#010101;}
	.st7{clip-path:url(#SVGID_8_);fill:#010101;}
	.st8{clip-path:url(#SVGID_10_);fill:#010101;}
	.st9{fill:#010202;}
	.st10{fill:#EB611D;}
	.st11{fill:#E41322;}
	.st12{fill:#F59E21;}
	.st13{fill:#E4761B;stroke:#E4761B;stroke-width:0.238;stroke-miterlimit:10;}
	.st14{fill:#F6851B;stroke:#F6851B;stroke-width:0.238;stroke-miterlimit:10;}
	.st15{fill:#763D16;stroke:#763D16;stroke-width:0.238;stroke-miterlimit:10;}
	.st16{fill:#E2761B;stroke:#E2761B;stroke-width:0.238;stroke-miterlimit:10;}
	.st17{fill:#C0AD9E;stroke:#C0AD9E;stroke-width:0.238;stroke-miterlimit:10;}
	.st18{fill:#CD6116;stroke:#CD6116;stroke-width:0.238;stroke-miterlimit:10;}
	.st19{fill:#E4751F;stroke:#E4751F;stroke-width:0.238;stroke-miterlimit:10;}
	.st20{fill:#233447;stroke:#233447;stroke-width:0.238;stroke-miterlimit:10;}
	.st21{fill:#D7C1B3;stroke:#D7C1B3;stroke-width:0.238;stroke-miterlimit:10;}
	.st22{fill:#161616;stroke:#161616;stroke-width:0.238;stroke-miterlimit:10;}
	.st23{fill:#222454;}
	.st24{fill:#552E7A;}
	.st25{fill:#F3BA2F;}
</style>
<g>
	<circle class="st0" cx="29.26" cy="29.26" r="29.26"/>
	<g>
		<path class="st13" d="M46.41,36.93l-2.32,7.85l-4.56-1.25L46.41,36.93z"/>
		<path class="st13" d="M39.53,43.53l4.39-6.02l2.48-0.58L39.53,43.53z"/>
		<path class="st14" d="M43,31.01l3.41,5.92l-2.48,0.58L43,31.01z M43,31.01l2.2-1.52l1.22,7.44L43,31.01z"/>
		<path class="st15" d="M40.2,26.54l6.31-2.59l-0.31,1.42L40.2,26.54z M46,27.08l-5.8-0.53l6-1.17L46,27.08z"/>
		<path class="st15" d="M46,27.08l-0.81,2.42l-4.99-2.95L46,27.08z M47.27,24.56l-1.07,0.82l0.31-1.42L47.27,24.56z M46,27.08
			l0.2-1.7l0.85,0.7L46,27.08z"/>
		<path class="st16" d="M34.64,41.62l1.58,0.5l3.32,1.41L34.64,41.62z"/>
		<path class="st15" d="M45.19,29.49L46,27.08l0.69,0.53L45.19,29.49z M45.19,29.49l-6.55-2.16l1.56-0.79L45.19,29.49z"/>
		<path class="st15" d="M41.76,19.14l-1.56,7.41l-1.56,0.79L41.76,19.14z"/>
		<path class="st15" d="M46.51,23.96l-6.31,2.59l1.56-7.41L46.51,23.96z"/>
		<path class="st15" d="M41.76,19.14l6.59-0.76l-1.84,5.58L41.76,19.14z"/>
		<path class="st14" d="M45.19,29.49L43,31.01l-4.36-3.68L45.19,29.49z"/>
		<path class="st15" d="M48.06,13.04l0.29,5.34l-6.59,0.76L48.06,13.04z"/>
		<path class="st16" d="M48.06,13.04l-13.17,9.58l-0.17-6.5L48.06,13.04z"/>
		<path class="st14" d="M24.93,15.34l9.8,0.78l0.17,6.5L24.93,15.34z"/>
		<path class="st15" d="M38.64,27.33l-3.75-4.72l6.87-3.48L38.64,27.33z"/>
		<path class="st13" d="M38.64,27.33L43,31.01l-6.11,0.68L38.64,27.33z"/>
		<path class="st13" d="M36.88,31.69l-1.99-9.07l3.75,4.72L36.88,31.69z"/>
		<path class="st15" d="M41.76,19.14l-6.87,3.48l13.17-9.58L41.76,19.14z"/>
		<path class="st17" d="M25.01,43.38l3.11,3.24l-4.23-3.85L25.01,43.38z"/>
		<path class="st18" d="M39.53,43.53l1.47-5.6l2.92-0.42L39.53,43.53z"/>
		<path class="st16" d="M12.4,27.77l5.38-5.66L13.1,27.1L12.4,27.77z"/>
		<path class="st14" d="M43.93,37.51l-2.92,0.42L43,31.01L43.93,37.51z M34.89,22.62l-5.24-0.17l-4.73-7.1L34.89,22.62z"/>
		<path class="st19" d="M43,31.01l-1.99,6.91l-0.16-3.38L43,31.01z"/>
		<path class="st18" d="M36.88,31.69L43,31.01l-2.15,3.54L36.88,31.69z"/>
		<path class="st14" d="M29.65,22.44l5.24,0.17l1.99,9.07L29.65,22.44z"/>
		<path class="st13" d="M29.65,22.44L15.51,9.36l9.41,5.98L29.65,22.44z M24.92,45.36l-12.29,3.8l-2.45-9.37L24.92,45.36z"/>
		<path class="st15" d="M14.23,30.11l4.64-3.64l3.89,0.9L14.23,30.11z"/>
		<path class="st15" d="M22.76,27.37l-3.89-0.9l2.08-8.6L22.76,27.37z"/>
		<path class="st15" d="M13.1,27.1l5.77-0.63l-4.64,3.64L13.1,27.1z"/>
		<path class="st18" d="M40.85,34.55l-2.4-1.21l-1.57-1.65L40.85,34.55z"/>
		<path class="st15" d="M13.1,27.1l-0.41-2.16l6.18,1.53L13.1,27.1z"/>
		<path class="st20" d="M37.96,36.06l0.49-2.72l2.4,1.21L37.96,36.06z"/>
		<path class="st14" d="M41.01,37.93l-3.05-1.86l2.89-1.51L41.01,37.93z"/>
		<path class="st15" d="M18.87,26.47l-6.18-1.53l-0.5-1.82L18.87,26.47z M20.95,17.87l-2.08,8.6l-6.69-3.35L20.95,17.87z
			 M20.95,17.87l8.7,4.57l-6.89,4.93L20.95,17.87z"/>
		<path class="st13" d="M22.76,27.37l6.89-4.93l3.07,9.39L22.76,27.37z M32.73,31.83l-9.53-0.2l-0.44-4.26L32.73,31.83z"/>
		<path class="st14" d="M14.23,30.11l8.53-2.74l0.44,4.26L14.23,30.11z M36.88,31.69l-4.16,0.14l-3.07-9.39L36.88,31.69z"/>
		<path class="st18" d="M38.45,33.34l-0.49,2.72l-1.07-4.37L38.45,33.34z"/>
		<path class="st15" d="M15.51,9.36l14.14,13.09l-8.7-4.57L15.51,9.36z"/>
		<path class="st13" d="M10.18,39.8l11.93-0.49l2.81,6.06L10.18,39.8z"/>
		<path class="st18" d="M24.92,45.36l-2.81-6.06l5.86-0.29L24.92,45.36z"/>
		<path class="st14" d="M37.96,36.06l3.05,1.86l1.68,3.97L37.96,36.06z M23.2,31.63L10.18,39.8l4.05-9.69L23.2,31.63z M22.1,39.31
			L10.18,39.8l13.02-8.17L22.1,39.31z M36.88,31.69l0.78,2.83l-3.77,0.22L36.88,31.69z M33.89,34.74l-1.17-2.91l4.16-0.14
			L33.89,34.74z"/>
		<path class="st17" d="M28.12,46.62l-3.2-1.26l11.15,1.87L28.12,46.62z"/>
		<path class="st15" d="M14.23,30.11l-1.83-2.34l0.69-0.68L14.23,30.11z"/>
		<path class="st21" d="M37.33,45.85l-1.26,1.39l-11.15-1.87L37.33,45.85z"/>
		<path class="st13" d="M37.93,42.44l-13.01,2.92l3.04-6.34L37.93,42.44z"/>
		<path class="st21" d="M24.92,45.36l13.01-2.92l-0.6,3.4L24.92,45.36z"/>
		<path class="st15" d="M12.18,23.12l-0.43-7.31l9.2,2.06L12.18,23.12z M13.1,27.1l-1.26-1.28l0.86-0.87L13.1,27.1z"/>
		<path class="st18" d="M30.6,33.71l2.13-1.88l-0.3,4.6L30.6,33.71z"/>
		<path class="st18" d="M32.73,31.83l-2.13,1.88l-3.1,1.61L32.73,31.83z"/>
		<path class="st14" d="M42.69,41.89l-0.58-0.43l-4.16-5.4L42.69,41.89z"/>
		<path class="st18" d="M27.49,35.32l-4.3-3.69l9.53,0.2L27.49,35.32z"/>
		<path class="st19" d="M32.42,36.43l0.3-4.6l1.17,2.91L32.42,36.43z"/>
		<path class="st15" d="M11.41,23.84l0.77-0.72l0.5,1.82L11.41,23.84z"/>
		<path class="st20" d="M32.42,36.43l-4.93-1.11l3.1-1.61L32.42,36.43z"/>
		<path class="st15" d="M20.95,17.87l-9.2-2.06l3.76-6.45L20.95,17.87z"/>
		<path class="st17" d="M36.06,47.24l0.52,1.43l-8.46-2.04L36.06,47.24z"/>
		<path class="st14" d="M27.96,39.02l-0.47-3.7l4.93,1.11L27.96,39.02z"/>
		<path class="st19" d="M23.2,31.63l4.3,3.69l0.47,3.7L23.2,31.63z"/>
		<path class="st14" d="M33.89,34.74l3.77-0.22l4.45,6.94L33.89,34.74z M23.2,31.63l4.76,7.39l-5.86,0.29L23.2,31.63z"/>
		<path class="st19" d="M33.89,34.74l4.68,7.12l-6.15-5.43L33.89,34.74z"/>
		<path class="st14" d="M32.42,36.43l6.15,5.43l-0.65,0.58L32.42,36.43z"/>
		<path class="st14" d="M37.93,42.44l-9.97-3.42l4.46-2.59L37.93,42.44z M42.11,41.46l-3.54,0.4l-4.68-7.12L42.11,41.46z"/>
		<path class="st17" d="M43.04,44.81l-1.52,3.05l-4.94,0.8L43.04,44.81z M36.59,48.66l-0.52-1.43l1.26-1.39L36.59,48.66z"/>
		<path class="st17" d="M37.33,45.85l0.93-0.37l-1.67,3.19L37.33,45.85z M36.59,48.66l1.67-3.19l4.78-0.67L36.59,48.66z"/>
		<path class="st22" d="M42.11,41.46l1.17,0.71l-3.56,0.43L42.11,41.46z"/>
		<path class="st22" d="M39.72,42.61l-1.15-0.74l3.54-0.4L39.72,42.61z M39.32,43.17l4.33-0.52l-0.6,2.17L39.32,43.17z"/>
		<path class="st22" d="M43.04,44.81l-4.78,0.67l1.06-2.31L43.04,44.81z M38.26,45.48l-0.93,0.37l0.6-3.4L38.26,45.48z M37.93,42.44
			l0.65-0.58l1.15,0.74L37.93,42.44z M43.28,42.18l0.36,0.47l-4.33,0.52L43.28,42.18z"/>
		<path class="st22" d="M39.32,43.17l0.41-0.56l3.56-0.43L39.32,43.17z M37.93,42.44l1.39,0.72l-1.06,2.31L37.93,42.44z"/>
		<path class="st22" d="M39.72,42.61l-0.41,0.56l-1.39-0.72L39.72,42.61z"/>
	</g>
</g>
</svg>
