<?xml version="1.0" encoding="utf-8"?>
<!-- Generator: Adobe Illustrator 24.3.0, SVG Export Plug-In . SVG Version: 6.00 Build 0)  -->
<svg version="1.1" id="Calque_1" xmlns="http://www.w3.org/2000/svg" xmlns:xlink="http://www.w3.org/1999/xlink" x="0px" y="0px"
	 viewBox="0 0 58.53 58.53" style="enable-background:new 0 0 58.53 58.53;" xml:space="preserve">
<style type="text/css">
	.st0{fill:#FFFFFF;}
	.st1{opacity:0.6;}
	.st2{clip-path:url(#SVGID_2_);fill:#010101;}
	.st3{opacity:0.45;}
	.st4{clip-path:url(#SVGID_4_);fill:#010101;}
	.st5{opacity:0.8;}
	.st6{clip-path:url(#SVGID_6_);fill:#010101;}
	.st7{clip-path:url(#SVGID_8_);fill:#010101;}
	.st8{clip-path:url(#SVGID_10_);fill:#010101;}
	.st9{fill:#010202;}
	.st10{fill:#EB611D;}
	.st11{fill:#E41322;}
	.st12{fill:#F59E21;}
	.st13{fill:#E4761B;stroke:#E4761B;stroke-width:0.238;stroke-miterlimit:10;}
	.st14{fill:#F6851B;stroke:#F6851B;stroke-width:0.238;stroke-miterlimit:10;}
	.st15{fill:#763D16;stroke:#763D16;stroke-width:0.238;stroke-miterlimit:10;}
	.st16{fill:#E2761B;stroke:#E2761B;stroke-width:0.238;stroke-miterlimit:10;}
	.st17{fill:#C0AD9E;stroke:#C0AD9E;stroke-width:0.238;stroke-miterlimit:10;}
	.st18{fill:#CD6116;stroke:#CD6116;stroke-width:0.238;stroke-miterlimit:10;}
	.st19{fill:#E4751F;stroke:#E4751F;stroke-width:0.238;stroke-miterlimit:10;}
	.st20{fill:#233447;stroke:#233447;stroke-width:0.238;stroke-miterlimit:10;}
	.st21{fill:#D7C1B3;stroke:#D7C1B3;stroke-width:0.238;stroke-miterlimit:10;}
	.st22{fill:#161616;stroke:#161616;stroke-width:0.238;stroke-miterlimit:10;}
	.st23{fill:#222454;}
	.st24{fill:#552E7A;}
	.st25{fill:#F3BA2F;}
</style>
<g>
	<circle class="st0" cx="29.26" cy="29.26" r="29.26"/>
	<g>
		<path class="st9" d="M21.39,39.54c0-0.4,0.26-0.73,0.69-0.73c0.41,0,0.69,0.32,0.69,0.73c0,0.41-0.27,0.73-0.69,0.73
			C21.65,40.27,21.39,39.94,21.39,39.54 M23.23,39.54V38.4h-0.49v0.27c-0.16-0.2-0.39-0.33-0.72-0.33c-0.64,0-1.14,0.5-1.14,1.19
			c0,0.7,0.5,1.19,1.14,1.19c0.32,0,0.56-0.13,0.72-0.33v0.27h0.49V39.54z M39.94,39.54c0-0.4,0.26-0.73,0.69-0.73
			c0.41,0,0.69,0.32,0.69,0.73c0,0.41-0.27,0.73-0.69,0.73C40.2,40.27,39.94,39.94,39.94,39.54 M41.78,39.54v-2.05h-0.49v1.19
			c-0.15-0.2-0.39-0.33-0.72-0.33c-0.64,0-1.14,0.5-1.14,1.19c0,0.7,0.5,1.19,1.14,1.19c0.32,0,0.56-0.13,0.72-0.33v0.27h0.49V39.54
			z M29.37,38.79c0.32,0,0.53,0.2,0.58,0.55h-1.18C28.81,39.02,29.02,38.79,29.37,38.79 M29.38,38.35c-0.67,0-1.13,0.48-1.13,1.19
			c0,0.72,0.48,1.19,1.17,1.19c0.34,0,0.65-0.08,0.93-0.32l-0.25-0.37c-0.19,0.15-0.44,0.24-0.66,0.24c-0.32,0-0.61-0.15-0.68-0.55
			h1.69c0.01-0.06,0.01-0.13,0.01-0.19C30.45,38.83,30.02,38.35,29.38,38.35 M35.35,39.54c0-0.4,0.26-0.73,0.69-0.73
			c0.41,0,0.68,0.32,0.68,0.73c0,0.41-0.27,0.73-0.68,0.73C35.61,40.27,35.35,39.94,35.35,39.54 M37.19,39.54V38.4h-0.49v0.27
			c-0.15-0.2-0.39-0.33-0.72-0.33c-0.64,0-1.14,0.5-1.14,1.19c0,0.7,0.5,1.19,1.14,1.19c0.32,0,0.56-0.13,0.72-0.33v0.27h0.49V39.54
			z M32.56,39.54c0,0.69,0.48,1.19,1.21,1.19c0.34,0,0.57-0.08,0.82-0.27l-0.25-0.39c-0.19,0.13-0.38,0.2-0.6,0.2
			c-0.39-0.01-0.69-0.29-0.69-0.73c0-0.44,0.29-0.72,0.69-0.73c0.21,0,0.41,0.07,0.6,0.2l0.24-0.4c-0.25-0.2-0.48-0.27-0.82-0.27
			C33.03,38.35,32.56,38.85,32.56,39.54 M38.93,38.35c-0.29,0-0.47,0.13-0.6,0.33V38.4h-0.49v2.28h0.49v-1.27
			c0-0.37,0.16-0.58,0.48-0.58c0.1,0,0.2,0.01,0.31,0.06l0.15-0.46C39.17,38.37,39.03,38.35,38.93,38.35 M25.67,38.59
			c-0.24-0.15-0.57-0.24-0.93-0.24c-0.58,0-0.95,0.27-0.95,0.72c0,0.37,0.27,0.6,0.79,0.67l0.23,0.04c0.27,0.04,0.4,0.11,0.4,0.24
			c0,0.18-0.18,0.27-0.52,0.27c-0.34,0-0.59-0.11-0.76-0.24l-0.23,0.39c0.27,0.2,0.61,0.29,0.98,0.29c0.65,0,1.04-0.31,1.04-0.74
			c0-0.4-0.3-0.61-0.79-0.68l-0.23-0.04c-0.22-0.03-0.39-0.07-0.39-0.22c0-0.17,0.16-0.27,0.44-0.27c0.29,0,0.57,0.11,0.71,0.2
			L25.67,38.59z M32.06,38.35c-0.29,0-0.47,0.13-0.6,0.33V38.4h-0.49v2.28h0.49v-1.27c0-0.37,0.16-0.58,0.48-0.58
			c0.1,0,0.2,0.01,0.31,0.06l0.15-0.46C32.3,38.37,32.16,38.35,32.06,38.35 M27.84,38.41h-0.81v-0.69h-0.5v0.69h-0.46v0.45h0.46
			v1.04c0,0.53,0.2,0.84,0.79,0.84c0.21,0,0.46-0.06,0.62-0.18l-0.14-0.42c-0.15,0.08-0.31,0.13-0.44,0.13
			c-0.25,0-0.33-0.15-0.33-0.38v-1.03h0.81L27.84,38.41L27.84,38.41z M20.44,40.68v-1.43c0-0.54-0.34-0.9-0.89-0.91
			c-0.29-0.01-0.59,0.08-0.8,0.4c-0.15-0.25-0.41-0.4-0.75-0.4c-0.25,0-0.48,0.07-0.67,0.34V38.4h-0.5v2.28h0.5v-1.26
			c0-0.39,0.22-0.6,0.55-0.6c0.33,0,0.49,0.22,0.49,0.6v1.26h0.5v-1.26c0-0.39,0.23-0.6,0.55-0.6c0.34,0,0.5,0.22,0.5,0.6v1.26
			H20.44z"/>
		<rect x="25.51" y="21.08" class="st10" width="7.49" height="13.46"/>
		<path class="st11" d="M25.99,27.81c0-2.73,1.28-5.16,3.27-6.74c-1.45-1.14-3.29-1.83-5.29-1.83c-4.73,0-8.56,3.83-8.56,8.56
			c0,4.73,3.83,8.56,8.56,8.56c1.99,0,3.83-0.68,5.29-1.83C27.27,32.98,25.99,30.55,25.99,27.81"/>
		<path class="st12" d="M43.11,27.81c0,4.73-3.83,8.56-8.56,8.56c-1.99,0-3.83-0.68-5.3-1.83c1.99-1.57,3.27-4,3.27-6.74
			s-1.28-5.16-3.27-6.74c1.45-1.14,3.29-1.83,5.3-1.83C39.28,19.25,43.11,23.08,43.11,27.81"/>
	</g>
</g>
</svg>
