<?xml version="1.0" encoding="utf-8"?>
<!-- Generator: Adobe Illustrator 24.3.0, SVG Export Plug-In . SVG Version: 6.00 Build 0)  -->
<svg version="1.1" id="Calque_1" xmlns="http://www.w3.org/2000/svg" xmlns:xlink="http://www.w3.org/1999/xlink" x="0px" y="0px"
	 viewBox="0 0 58.53 58.53" style="enable-background:new 0 0 58.53 58.53;" xml:space="preserve">
<style type="text/css">
	.st0{fill:#FFFFFF;}
	.st1{opacity:0.6;}
	.st2{clip-path:url(#SVGID_2_);fill:#010101;}
	.st3{opacity:0.45;}
	.st4{clip-path:url(#SVGID_4_);fill:#010101;}
	.st5{opacity:0.8;}
	.st6{clip-path:url(#SVGID_6_);fill:#010101;}
	.st7{clip-path:url(#SVGID_8_);fill:#010101;}
	.st8{clip-path:url(#SVGID_10_);fill:#010101;}
	.st9{fill:#010202;}
	.st10{fill:#EB611D;}
	.st11{fill:#E41322;}
	.st12{fill:#F59E21;}
	.st13{fill:#E4761B;stroke:#E4761B;stroke-width:0.238;stroke-miterlimit:10;}
	.st14{fill:#F6851B;stroke:#F6851B;stroke-width:0.238;stroke-miterlimit:10;}
	.st15{fill:#763D16;stroke:#763D16;stroke-width:0.238;stroke-miterlimit:10;}
	.st16{fill:#E2761B;stroke:#E2761B;stroke-width:0.238;stroke-miterlimit:10;}
	.st17{fill:#C0AD9E;stroke:#C0AD9E;stroke-width:0.238;stroke-miterlimit:10;}
	.st18{fill:#CD6116;stroke:#CD6116;stroke-width:0.238;stroke-miterlimit:10;}
	.st19{fill:#E4751F;stroke:#E4751F;stroke-width:0.238;stroke-miterlimit:10;}
	.st20{fill:#233447;stroke:#233447;stroke-width:0.238;stroke-miterlimit:10;}
	.st21{fill:#D7C1B3;stroke:#D7C1B3;stroke-width:0.238;stroke-miterlimit:10;}
	.st22{fill:#161616;stroke:#161616;stroke-width:0.238;stroke-miterlimit:10;}
	.st23{fill:#222454;}
	.st24{fill:#552E7A;}
	.st25{fill:#F3BA2F;}
</style>
<g>
	<g>
		<circle class="st25" cx="29.26" cy="29.26" r="29.26"/>
		<g>
			<path class="st0" d="M20.61,25.71l8.65-8.65l8.65,8.65l5.03-5.03L29.26,7L15.58,20.68L20.61,25.71 M6.99,29.26l5.03-5.03
				l5.03,5.03l-5.03,5.03L6.99,29.26z M20.61,32.82l8.65,8.65l8.65-8.65l5.04,5.03l0,0L29.26,51.53L15.58,37.85l-0.01-0.01
				L20.61,32.82 M41.46,29.27l5.03-5.03l5.03,5.03L46.5,34.3L41.46,29.27z"/>
			<path class="st0" d="M34.37,29.26L34.37,29.26l-5.1-5.11l-3.77,3.77h0l-0.43,0.43l-0.89,0.89l-0.01,0.01l0.01,0.01l5.1,5.1
				L34.37,29.26L34.37,29.26L34.37,29.26"/>
		</g>
	</g>
</g>
</svg>
