<?xml version="1.0" encoding="utf-8"?>
<!-- Generator: Adobe Illustrator 24.3.0, SVG Export Plug-In . SVG Version: 6.00 Build 0)  -->
<svg version="1.1" id="Calque_1" xmlns="http://www.w3.org/2000/svg" xmlns:xlink="http://www.w3.org/1999/xlink" x="0px" y="0px"
	 viewBox="0 0 58.53 58.53" style="enable-background:new 0 0 58.53 58.53;" xml:space="preserve">
<style type="text/css">
	.st0{fill:#FFFFFF;}
	.st1{opacity:0.6;}
	.st2{clip-path:url(#SVGID_2_);fill:#010101;}
	.st3{opacity:0.45;}
	.st4{clip-path:url(#SVGID_4_);fill:#010101;}
	.st5{opacity:0.8;}
	.st6{clip-path:url(#SVGID_6_);fill:#010101;}
	.st7{clip-path:url(#SVGID_8_);fill:#010101;}
	.st8{clip-path:url(#SVGID_10_);fill:#010101;}
	.st9{fill:#010202;}
	.st10{fill:#EB611D;}
	.st11{fill:#E41322;}
	.st12{fill:#F59E21;}
	.st13{fill:#E4761B;stroke:#E4761B;stroke-width:0.238;stroke-miterlimit:10;}
	.st14{fill:#F6851B;stroke:#F6851B;stroke-width:0.238;stroke-miterlimit:10;}
	.st15{fill:#763D16;stroke:#763D16;stroke-width:0.238;stroke-miterlimit:10;}
	.st16{fill:#E2761B;stroke:#E2761B;stroke-width:0.238;stroke-miterlimit:10;}
	.st17{fill:#C0AD9E;stroke:#C0AD9E;stroke-width:0.238;stroke-miterlimit:10;}
	.st18{fill:#CD6116;stroke:#CD6116;stroke-width:0.238;stroke-miterlimit:10;}
	.st19{fill:#E4751F;stroke:#E4751F;stroke-width:0.238;stroke-miterlimit:10;}
	.st20{fill:#233447;stroke:#233447;stroke-width:0.238;stroke-miterlimit:10;}
	.st21{fill:#D7C1B3;stroke:#D7C1B3;stroke-width:0.238;stroke-miterlimit:10;}
	.st22{fill:#161616;stroke:#161616;stroke-width:0.238;stroke-miterlimit:10;}
	.st23{fill:#222454;}
	.st24{fill:#552E7A;}
	.st25{fill:#F3BA2F;}
</style>
<g>
	<circle class="st23" cx="29.26" cy="29.26" r="29.26"/>
	<g>
		<path class="st0" d="M29.87,27.19c-0.02,1.58,1.4,2.47,2.48,2.99c1.11,0.54,1.47,0.88,1.47,1.37c-0.02,0.73-0.88,1.06-1.7,1.08
			c-1.42,0.02-2.25-0.39-2.92-0.69l-0.51,2.4c0.67,0.31,1.89,0.57,3.15,0.59c2.99,0,4.93-1.47,4.95-3.76c0.02-2.89-4-3.05-3.98-4.34
			c0.02-0.39,0.39-0.82,1.21-0.91c0.41-0.05,1.54-0.1,2.79,0.49l0.51-2.32c-0.69-0.24-1.57-0.49-2.66-0.49
			C31.86,23.56,29.88,25.05,29.87,27.19 M42.12,23.76c-0.54,0-1,0.31-1.21,0.8l-4.26,10.17h2.97l0.59-1.63h3.66l0.34,1.63h2.63
			l-2.29-10.97H42.12 M42.52,26.73l0.87,4.12h-2.35L42.52,26.73 M26.26,23.76l-2.35,10.97h2.84l2.35-10.97H26.26 M22.05,23.76
			l-2.96,7.48l-1.19-6.35c-0.15-0.7-0.7-1.11-1.31-1.11h-4.83l-0.07,0.33c1,0.21,2.12,0.56,2.81,0.93c0.42,0.23,0.54,0.42,0.67,0.96
			l2.27,8.75h3l4.61-10.97h-3"/>
	</g>
</g>
</svg>
