<svg id="background" xmlns="http://www.w3.org/2000/svg" xmlns:xlink="http://www.w3.org/1999/xlink" viewBox="0 0 2543.87 3474.91"><defs><style>.cls-1{fill:#788cff;}.cls-2{fill:url(#Dégradé_sans_nom_688);}.cls-3{fill:url(#Dégradé_sans_nom_688-2);}.cls-4{fill:url(#Dégradé_sans_nom_693);}.cls-5{fill:url(#Dégradé_sans_nom_695);}.cls-6{fill:#ebedf4;}.cls-7{fill:url(#Dégradé_sans_nom_671);}.cls-8{fill:url(#Dégradé_sans_nom_664);}.cls-9{fill:url(#Dégradé_sans_nom_664-2);}.cls-10{fill:url(#Dégradé_sans_nom_670);}.cls-11{fill:url(#Dégradé_sans_nom_664-5);}.cls-12{fill:url(#Dégradé_sans_nom_674);}.cls-13{fill:url(#Dégradé_sans_nom_664-7);}.cls-14{fill:url(#Dégradé_sans_nom_668);}.cls-15{fill:url(#Dégradé_sans_nom_686);}.cls-16{fill:url(#Dégradé_sans_nom_686-2);}.cls-17{fill:url(#Dégradé_sans_nom_686-3);}.cls-18{fill:url(#Dégradé_sans_nom_686-4);}.cls-19{fill:url(#Dégradé_sans_nom_686-5);}.cls-20{fill:url(#Dégradé_sans_nom_684);}.cls-21{fill:url(#Dégradé_sans_nom_684-2);}.cls-22{fill:url(#Dégradé_sans_nom_684-3);}.cls-23{fill:url(#Dégradé_sans_nom_684-4);}.cls-24{fill:url(#Dégradé_sans_nom_684-5);}.cls-25{fill:url(#Dégradé_sans_nom_684-6);}.cls-26{fill:url(#Dégradé_sans_nom_684-7);}.cls-27{fill:url(#Dégradé_sans_nom_684-8);}.cls-28{fill:url(#Dégradé_sans_nom_684-9);}.cls-29{fill:url(#Dégradé_sans_nom_684-10);}</style><linearGradient id="Dégradé_sans_nom_688" x1="870.82" y1="1158.81" x2="-661.53" y2="2703.13" gradientUnits="userSpaceOnUse"><stop offset="0" stop-color="#fff" stop-opacity="0"/><stop offset="0.09" stop-color="#fbfcff" stop-opacity="0.03"/><stop offset="0.22" stop-color="#f1f3ff" stop-opacity="0.11"/><stop offset="0.37" stop-color="#dfe4ff" stop-opacity="0.23"/><stop offset="0.55" stop-color="#c7d0ff" stop-opacity="0.41"/><stop offset="0.74" stop-color="#a9b6ff" stop-opacity="0.64"/><stop offset="0.94" stop-color="#8496ff" stop-opacity="0.91"/><stop offset="1" stop-color="#788cff"/></linearGradient><linearGradient id="Dégradé_sans_nom_688-2" x1="2951.43" y1="2393.01" x2="1744.32" y2="1561.45" xlink:href="#Dégradé_sans_nom_688"/><linearGradient id="Dégradé_sans_nom_693" x1="2638.85" y1="1218.03" x2="2036.29" y2="1637.03" gradientUnits="userSpaceOnUse"><stop offset="0.22" stop-color="#788cff" stop-opacity="0"/><stop offset="1" stop-color="#788cff"/></linearGradient><linearGradient id="Dégradé_sans_nom_695" x1="1293.87" y1="1790.19" x2="1293.87" y2="1010.69" gradientUnits="userSpaceOnUse"><stop offset="0" stop-color="#0016ff" stop-opacity="0"/><stop offset="0.34" stop-color="#151dcb" stop-opacity="0.42"/><stop offset="0.63" stop-color="#2423a4" stop-opacity="0.74"/><stop offset="0.86" stop-color="#2e268c" stop-opacity="0.93"/><stop offset="1" stop-color="#312783"/></linearGradient><radialGradient id="Dégradé_sans_nom_671" cx="1399.79" cy="1367.56" r="3735.93" gradientUnits="userSpaceOnUse"><stop offset="0.49" stop-color="#fff" stop-opacity="0"/><stop offset="1" stop-color="#788cff"/></radialGradient><radialGradient id="Dégradé_sans_nom_664" cx="1358.19" cy="1397.34" r="2268.44" gradientUnits="userSpaceOnUse"><stop offset="0" stop-color="#fff" stop-opacity="0"/><stop offset="1" stop-color="#788cff"/></radialGradient><radialGradient id="Dégradé_sans_nom_664-2" cx="1399.79" cy="1747.36" r="3171.87" xlink:href="#Dégradé_sans_nom_664"/><radialGradient id="Dégradé_sans_nom_670" cx="1004.27" cy="1111.37" r="3188.88" gradientUnits="userSpaceOnUse"><stop offset="0.26" stop-color="#fff" stop-opacity="0"/><stop offset="1" stop-color="#788cff"/></radialGradient><radialGradient id="Dégradé_sans_nom_664-5" cx="1358.19" cy="1627.95" r="1925.94" xlink:href="#Dégradé_sans_nom_664"/><radialGradient id="Dégradé_sans_nom_674" cx="1464.62" cy="1689.34" r="3171.87" gradientUnits="userSpaceOnUse"><stop offset="0.43" stop-color="#fff" stop-opacity="0"/><stop offset="1" stop-color="#788cff"/></radialGradient><radialGradient id="Dégradé_sans_nom_664-7" cx="946.53" cy="1397.34" r="1936.27" xlink:href="#Dégradé_sans_nom_664"/><radialGradient id="Dégradé_sans_nom_668" cx="1163.03" cy="1430.48" r="2499.16" gradientUnits="userSpaceOnUse"><stop offset="0.56" stop-color="#fff" stop-opacity="0"/><stop offset="1" stop-color="#788cff"/></radialGradient><radialGradient id="Dégradé_sans_nom_686" cx="1300.78" cy="1438.43" r="243.58" gradientUnits="userSpaceOnUse"><stop offset="0" stop-color="#fff" stop-opacity="0"/><stop offset="0.49" stop-color="#788cff"/></radialGradient><radialGradient id="Dégradé_sans_nom_686-2" cx="1300.78" cy="1463.19" r="206.8" xlink:href="#Dégradé_sans_nom_686"/><radialGradient id="Dégradé_sans_nom_686-3" cx="1274.99" cy="1421.73" r="207.91" xlink:href="#Dégradé_sans_nom_686"/><radialGradient id="Dégradé_sans_nom_686-4" cx="1305" cy="1459.41" r="206.8" xlink:href="#Dégradé_sans_nom_686"/><radialGradient id="Dégradé_sans_nom_686-5" cx="1285.34" cy="1442.54" r="162.94" xlink:href="#Dégradé_sans_nom_686"/><linearGradient id="Dégradé_sans_nom_684" x1="1608.15" y1="1183.64" x2="1652.63" y2="1163.08" gradientUnits="userSpaceOnUse"><stop offset="0" stop-color="#ebedf4" stop-opacity="0"/><stop offset="1" stop-color="#ebedf4"/></linearGradient><linearGradient id="Dégradé_sans_nom_684-2" x1="-358.36" y1="-2557.8" x2="-313.89" y2="-2578.36" gradientTransform="translate(-548.87 2797.37) rotate(67.26)" xlink:href="#Dégradé_sans_nom_684"/><linearGradient id="Dégradé_sans_nom_684-3" x1="2310.3" y1="1456.19" x2="2380.79" y2="1485.46" xlink:href="#Dégradé_sans_nom_684"/><linearGradient id="Dégradé_sans_nom_684-4" x1="-667.95" y1="-1790.23" x2="-604.04" y2="-1819.79" gradientTransform="translate(-548.87 2797.37) rotate(67.26)" xlink:href="#Dégradé_sans_nom_684"/><linearGradient id="Dégradé_sans_nom_684-5" x1="622.98" y1="1404.55" x2="537.93" y2="1432.34" xlink:href="#Dégradé_sans_nom_684"/><linearGradient id="Dégradé_sans_nom_684-6" x1="215.14" y1="245.88" x2="173.5" y2="259.49" gradientTransform="translate(-84.06 1166) rotate(-35.95)" xlink:href="#Dégradé_sans_nom_684"/><linearGradient id="Dégradé_sans_nom_684-7" x1="729.82" y1="1143.03" x2="665.34" y2="1094.67" xlink:href="#Dégradé_sans_nom_684"/><linearGradient id="Dégradé_sans_nom_684-8" x1="961.75" y1="1139.83" x2="936.94" y2="1121.7" xlink:href="#Dégradé_sans_nom_684"/><linearGradient id="Dégradé_sans_nom_684-9" x1="1994.77" y1="1121.48" x2="2023.12" y2="1113.98" xlink:href="#Dégradé_sans_nom_684"/><linearGradient id="Dégradé_sans_nom_684-10" x1="2164.45" y1="1333.2" x2="2176.12" y2="1317.08" xlink:href="#Dégradé_sans_nom_684"/></defs><rect class="cls-1" x="43.87" y="1056.91" width="2500" height="2418"/><polygon class="cls-2" points="0 1270.35 0 1828.39 483.28 2107.41 966.55 1828.39 966.55 1270.35 483.28 991.33 0 1270.35"/><polygon class="cls-3" points="1660.28 1540.74 1660.28 1925.66 1993.63 2118.13 2326.99 1925.66 2326.99 1540.74 1993.63 1348.27 1660.28 1540.74"/><polygon class="cls-4" points="2052.36 1358.29 2052.36 1601.04 2262.6 1722.42 2472.83 1601.04 2472.83 1358.29 2262.6 1236.91 2052.36 1358.29"/><rect class="cls-5" x="43.87" y="1070.91" width="2500" height="855.1"/><polygon class="cls-6" points="1212.91 1396.63 1212.91 1490.12 1293.87 1536.86 1374.83 1490.12 1374.83 1396.63 1293.87 1349.89 1212.91 1396.63"/><path class="cls-6" d="M1281.16,249.5a31.16,31.16,0,1,0-41.33,29.43L1250,327.4l10.17-48.47A31.15,31.15,0,0,0,1281.16,249.5Z" transform="translate(43.87 1006.91)"/><path class="cls-6" d="M1218.84,623.44A31.16,31.16,0,1,0,1260.17,594L1250,545.54,1239.83,594A31.14,31.14,0,0,0,1218.84,623.44Z" transform="translate(43.87 1006.91)"/><path class="cls-6" d="M1103.66,316a31.16,31.16,0,1,0,4.82,50.5l47.06,15.43-36.89-33A31.15,31.15,0,0,0,1103.66,316Z" transform="translate(43.87 1006.91)"/><path class="cls-6" d="M1396.34,556.94a31.16,31.16,0,1,0-4.82-50.51L1344.46,491l36.89,33A31.16,31.16,0,0,0,1396.34,556.94Z" transform="translate(43.87 1006.91)"/><path class="cls-6" d="M1396.34,316a31.16,31.16,0,1,1-4.82,50.5l-47.06,15.43,36.89-33A31.15,31.15,0,0,1,1396.34,316Z" transform="translate(43.87 1006.91)"/><path class="cls-6" d="M1103.66,556.94a31.16,31.16,0,1,1,4.82-50.51L1155.54,491l-36.89,33A31.16,31.16,0,0,1,1103.66,556.94Z" transform="translate(43.87 1006.91)"/><polygon class="cls-7" points="2543.87 721.69 1293.87 0 1293.87 1443.38 2543.87 721.69"/><polygon class="cls-8" points="1293.87 1443.38 2052.87 1881.58 2052.87 1005.17 1293.87 1443.38"/><polygon class="cls-9" points="1293.87 1443.38 2543.87 2165.06 2543.87 721.69 1293.87 1443.38"/><polygon class="cls-8" points="1293.87 566.96 534.88 1005.17 1293.87 1443.38 1293.87 566.96"/><polygon class="cls-10" points="1293.87 0 43.87 721.69 1293.87 1443.38 1293.87 0"/><polygon class="cls-8" points="1293.87 2319.79 2052.87 1881.58 1293.87 1443.38 1293.87 2319.79"/><polygon class="cls-11" points="1293.87 2319.79 2052.87 1881.58 1293.87 1443.38 1293.87 2319.79"/><polygon class="cls-12" points="1293.87 2886.75 2543.87 2165.06 1293.87 1443.38 1293.87 2886.75"/><polygon class="cls-8" points="534.88 1005.17 534.88 1881.58 1293.87 1443.38 534.88 1005.17"/><polygon class="cls-13" points="534.88 1005.17 534.88 1881.58 1293.87 1443.38 534.88 1005.17"/><polygon class="cls-14" points="43.87 721.69 43.87 2165.06 1293.87 1443.38 43.87 721.69"/><polygon class="cls-8" points="534.88 1881.58 1293.87 2319.79 1293.87 1443.38 534.88 1881.58"/><polygon class="cls-11" points="534.88 1881.58 1293.87 2319.79 1293.87 1443.38 534.88 1881.58"/><polygon class="cls-13" points="534.88 1881.58 1293.87 2319.79 1293.87 1443.38 534.88 1881.58"/><polygon class="cls-9" points="43.87 2165.06 1293.87 2886.75 1293.87 1443.38 43.87 2165.06"/><polygon class="cls-15" points="1375.37 1396.32 1293.87 1349.27 1293.87 1443.38 1375.37 1396.32"/><polygon class="cls-16" points="1293.87 1443.38 1375.37 1490.43 1375.37 1396.32 1293.87 1443.38"/><polygon class="cls-17" points="1293.87 1349.27 1212.38 1396.32 1293.87 1443.38 1293.87 1349.27"/><polygon class="cls-18" points="1293.87 1537.48 1375.37 1490.43 1293.87 1443.38 1293.87 1537.48"/><polygon class="cls-19" points="1212.38 1396.32 1212.38 1490.43 1293.87 1443.38 1212.38 1396.32"/><polygon class="cls-16" points="1212.38 1490.43 1293.87 1537.48 1293.87 1443.38 1212.38 1490.43"/><polygon class="cls-20" points="1627.68 1156.5 1619.42 1170.8 1627.68 1185.09 1644.18 1185.09 1652.44 1170.8 1644.18 1156.5 1627.68 1156.5"/><polygon class="cls-21" points="1704.24 1485.79 1687.87 1483.7 1677.87 1496.84 1684.25 1512.07 1700.63 1514.15 1710.62 1501.02 1704.24 1485.79"/><polygon class="cls-22" points="2315.11 1441.35 2300.4 1448.84 2299.54 1465.33 2313.38 1474.32 2328.09 1466.82 2328.95 1450.34 2315.11 1441.35"/><polygon class="cls-23" points="890.91 1500.21 867.38 1497.21 853.01 1516.09 862.18 1537.96 885.71 1540.96 900.08 1522.09 890.91 1500.21"/><polygon class="cls-24" points="596.28 1396.88 578.82 1402.15 574.65 1419.9 587.94 1432.39 605.4 1427.12 609.57 1409.37 596.28 1396.88"/><polygon class="cls-25" points="221.66 1243.4 216.25 1250.51 219.7 1258.74 228.56 1259.87 233.97 1252.76 230.52 1244.53 221.66 1243.4"/><polygon class="cls-26" points="723.76 1118.06 708.51 1108.05 692.22 1116.24 691.16 1134.45 706.41 1144.47 722.71 1136.27 723.76 1118.06"/><polygon class="cls-27" points="952.42 1126.67 948.15 1118.46 938.91 1118.05 933.93 1125.85 938.2 1134.06 947.45 1134.47 952.42 1126.67"/><polygon class="cls-28" points="2014.39 1119.14 2010.13 1110.93 2000.88 1110.53 1995.91 1118.33 2000.18 1126.54 2009.42 1126.94 2014.39 1119.14"/><polygon class="cls-29" points="2166.44 1315.86 2161.75 1323.98 2166.44 1332.09 2175.81 1332.09 2180.5 1323.98 2175.81 1315.86 2166.44 1315.86"/></svg>