<svg xmlns="http://www.w3.org/2000/svg" xmlns:xlink="http://www.w3.org/1999/xlink" viewBox="0 0 303.99 190"><defs><style>.cls-1{fill:url(#Dégradé_sans_nom_967);}.cls-2{fill:#f3ba2f;}.cls-3,.cls-8,.cls-9{fill:#fff;}.cls-4{fill:#1e1616;}.cls-5{fill:#454a75;}.cls-6{fill:none;}.cls-7{fill:url(#Dégradé_sans_nom_298);}.cls-8{opacity:0.5;}.cls-9{opacity:0.75;}.cls-10{fill:#001670;}.cls-11{fill:url(#Dégradé_sans_nom_298-2);}.cls-12{fill:url(#Dégradé_sans_nom_298-3);}</style><radialGradient id="Dégradé_sans_nom_967" cx="41.99" cy="83.72" r="158.82" gradientUnits="userSpaceOnUse"><stop offset="0" stop-color="#fff" stop-opacity="0"/><stop offset="0.11" stop-color="#fff" stop-opacity="0.6"/><stop offset="0.87" stop-color="#788cff" stop-opacity="0"/></radialGradient><linearGradient id="Dégradé_sans_nom_298" x1="197.85" y1="113.39" x2="158.03" y2="143.6" gradientUnits="userSpaceOnUse"><stop offset="0" stop-color="#001670"/><stop offset="1" stop-color="#001670" stop-opacity="0"/></linearGradient><linearGradient id="Dégradé_sans_nom_298-2" x1="232.52" y1="100.94" x2="282.3" y2="114.5" xlink:href="#Dégradé_sans_nom_298"/><linearGradient id="Dégradé_sans_nom_298-3" x1="9122.78" y1="-11505.56" x2="9172.55" y2="-11492" gradientTransform="translate(14727.9 2219.41) rotate(-120)" xlink:href="#Dégradé_sans_nom_298"/></defs><g id="Layer_2" data-name="Layer 2"><g id="TEXT_AND_INFOS" data-name="TEXT AND INFOS"><path class="cls-1" d="M304,95a95,95,0,0,1-95,95C156.53,190,0,95,0,95S38.86,71.41,84.35,47.74c7.05-3.66,14.25-7.33,21.5-10.91C145.69,17.12,186.72,0,209,0A95,95,0,0,1,304,95Z"/><circle class="cls-2" cx="40" cy="95" r="40"/><path class="cls-3" d="M28.17,90.14,40,78.32,51.83,90.15l6.87-6.88L40,64.56,21.3,83.26l6.87,6.88M9.56,95l6.88-6.88L23.32,95l-6.88,6.88Zm18.61,4.86L40,111.68,51.82,99.85l6.89,6.88h0L40,125.44l-18.71-18.7h0l6.88-6.87M56.68,95l6.88-6.87L70.44,95l-6.88,6.88Z"/><path class="cls-3" d="M47,95h0l-7-7-5.16,5.16h0l-.59.59L33,95h0l7,7,7-7h0"/><path class="cls-4" d="M240.12,89.17a32,32,0,0,1,.54,5.83,31.67,31.67,0,0,1-59.87,14.4c-8-.32-15.49-3.32-22.27-8.16-17.77-12.34-27.12-30.81-34-49.76a95,95,0,0,0,130.55,126.6c3.91-10.53,8-21.13,8.53-31.62C264.14,126.14,257.94,100.9,240.12,89.17Z"/><path class="cls-2" d="M304,95a94.93,94.93,0,0,0-47.82-82.47c-8.82,5.16-18.23,9.56-27,14.19-14.64,7.91-22.15,21.72-26,37.15a31.66,31.66,0,0,1,36.94,25.3c17.82,11.73,24,37,23.49,57.29-.51,10.49-4.62,21.09-8.53,31.62A95,95,0,0,0,304,95Z"/><path class="cls-5" d="M158.52,101.24c6.78,4.84,14.3,7.84,22.27,8.16a31.68,31.68,0,0,1,22.39-45.53c3.89-15.43,11.4-29.24,26-37.15,8.72-4.63,18.13-9,27-14.19A95,95,0,0,0,124.53,51.48C131.4,70.43,140.75,88.9,158.52,101.24Z"/><line class="cls-6" x1="208.99" y1="95" x2="208.99" y2="63.33"/><line class="cls-6" x1="208.99" y1="95" x2="236.42" y2="110.83"/><line class="cls-6" x1="208.99" y1="95" x2="181.57" y2="110.83"/><path class="cls-2" d="M181.59,110.83h0A31.65,31.65,0,0,1,209,63.34h89.56a94.59,94.59,0,0,0-42.06-50.6c-.56-.33-1.12-.64-1.69-1C201-17.89,142.31,42.8,173.05,96Z"/><path class="cls-3" d="M254,61.13c7.1-5.3,5.68-13.35,1.4-22l10.46-6.36L262,26.4l-10.19,6.19c-1-1.67-2.09-3.36-3.15-5l10.25-6.23L255.07,15l-10.45,6.35c-.87-1.36-1.72-2.7-2.52-4l0,0L236.8,8.48,230,12.62s2.95,4.64,2.81,4.62c1.57,2.58.58,4.33-.56,5.36l-11.92,7.23C220.44,30,203.59,40,203.59,40A2.63,2.63,0,0,1,200,38.89c0,.12-2.81-4.63-2.81-4.63l-8.38,3.35,5,8.29c.93,1.54,1.83,3.08,2.72,4.57L186,56.9l3.86,6.36,10.47-6.36c1,1.77,2,3.47,3,5.12L193,68.34l3.86,6.37,10.57-6.41c7.11,10.33,14.36,16.18,25,11,8.55-4.17,9.85-10.17,7.62-17.13,4.12,2.55,8.83,2.85,14-1ZM226,66c-7.91,4.81-15.23-9.27-17.85-13.59l14-8.51C224.78,48.18,234.24,61,226,66Zm18-15c-7.2,4.37-13.22-7.43-15.4-11l12.71-7.72c2.19,3.6,10.19,14.19,2.69,18.75Z"/><path class="cls-4" d="M209,63.32h0a31.67,31.67,0,0,1,27.42,47.5h0l-44.78,77.56a94.62,94.62,0,0,0,64.87-11.1c.56-.33,1.1-.67,1.65-1,52.62-31.79,29.4-113-32.08-113Z"/><g id="Layer_2-2" data-name="Layer 2"><g id="Layer_1-2" data-name="Layer 1-2"><path class="cls-3" d="M237.6,131.12l17.92,4.8-4.8,17.93,10.43,2.8,7.59-28.37-28.35-7.59-2.79,10.43m-15-15.2L233,118.71l-2.8,10.43-10.43-2.79Zm5.66,20.59-4.8,17.92,17.93,4.81-2.79,10.43h0l-28.36-7.6,7.6-28.36h0l10.43,2.81m20.48,24.7L259.17,164l-2.79,10.43L246,171.64Z"/><path class="cls-3" d="M243.36,151.88h0l2.84-10.58-10.57-2.84h0v0l-2.83,10.57,10.58,2.84h0"/></g></g><path class="cls-5" d="M236.42,110.83h0a31.66,31.66,0,0,1-54.84,0h0L136.79,33.27A94.6,94.6,0,0,0,114,95c0,.64,0,1.29,0,1.93,1.23,61.47,83.13,81.94,113.87,28.69Z"/><path class="cls-7" d="M209,126.67c-.85,0-1.69,0-2.52-.11-23.43,23.2-60.3,21.6-83.12,2,22.55,35.06,79.92,39.67,104.53-2.94l8.54-14.8h0A31.63,31.63,0,0,1,209,126.67Z"/><g id="Layer_1-2-2" data-name="Layer_1"><g id="_1421394342400" data-name=" 1421394342400"><polygon class="cls-8" points="135.44 52.46 126.47 105.77 158.49 110.88 147.78 83.73 135.44 52.46"/><polygon class="cls-9" points="160.42 115.8 168.81 137.04 180.35 90.21 160.42 115.8"/><polygon class="cls-8" points="168.81 137.04 160.42 115.8 128.41 110.7 168.81 137.04"/><polygon class="cls-3" points="158.49 110.88 178.4 85.3 147.78 83.73 158.49 110.88"/><polygon class="cls-9" points="135.44 52.46 178.4 85.3 147.78 83.73 135.44 52.46"/><polygon class="cls-9" points="126.47 105.77 158.49 110.88 147.78 83.73 126.47 105.77"/></g></g><circle class="cls-10" cx="208.99" cy="95" r="31.67"/><circle class="cls-10" cx="208.99" cy="95" r="28.87"/><polygon class="cls-3" points="199.44 89.48 199.44 100.51 209 106.03 218.55 100.51 218.55 89.48 209 83.97 199.44 89.48"/><path class="cls-3" d="M212.67,72.94a3.68,3.68,0,1,0-4.88,3.47l1.2,5.72,1.2-5.72A3.66,3.66,0,0,0,212.67,72.94Z"/><path class="cls-3" d="M205.32,117.06a3.68,3.68,0,1,0,4.87-3.47l-1.2-5.72-1.2,5.72A3.67,3.67,0,0,0,205.32,117.06Z"/><path class="cls-3" d="M191.73,80.78a3.68,3.68,0,1,0,.57,6l5.55,1.82-4.36-3.9A3.68,3.68,0,0,0,191.73,80.78Z"/><path class="cls-3" d="M226.26,109.21a3.67,3.67,0,1,0-.57-6l-5.55-1.82,4.35,3.9A3.69,3.69,0,0,0,226.26,109.21Z"/><path class="cls-3" d="M226.26,80.78a3.68,3.68,0,1,1-.57,6l-5.55,1.82,4.35-3.9A3.7,3.7,0,0,1,226.26,80.78Z"/><path class="cls-3" d="M191.73,109.21a3.67,3.67,0,1,1,.57-6l5.55-1.82-4.36,3.9A3.67,3.67,0,0,1,191.73,109.21Z"/><path class="cls-2" d="M181.59,110.83h0a31.63,31.63,0,0,1,0-31.66c5.86-10.15-26.3-92.07,74.93-66.44-.56-.33-1.12-.64-1.69-1C201-17.89,142.31,42.8,173.05,96Z"/><path class="cls-11" d="M236.41,79.15c.43.74.81,1.49,1.17,2.24,31.81,8.7,48.85,41.42,43.3,71,19.09-37.06-5.6-89.05-54.81-89.05H209A31.66,31.66,0,0,1,236.41,79.15Z"/><path class="cls-12" d="M181.59,79.17c.43-.74.88-1.45,1.36-2.14-8.38-31.89,11.44-63,39.82-73-41.64,2-74.32,49.38-49.72,92l8.54,14.79h0C176.14,101.35,180.35,90.21,181.59,79.17Z"/></g></g></svg>