<svg id="background" xmlns="http://www.w3.org/2000/svg" xmlns:xlink="http://www.w3.org/1999/xlink" viewBox="0 0 2500 1487.86"><defs><linearGradient id="Dégradé_sans_nom_688" x1="826.94" y1="151.9" x2="-705.41" y2="1696.22" gradientUnits="userSpaceOnUse"><stop offset="0" stop-color="#fff" stop-opacity="0"/><stop offset="0.09" stop-color="#fbfcff" stop-opacity="0.03"/><stop offset="0.22" stop-color="#f1f3ff" stop-opacity="0.11"/><stop offset="0.37" stop-color="#dfe4ff" stop-opacity="0.23"/><stop offset="0.55" stop-color="#c7d0ff" stop-opacity="0.41"/><stop offset="0.74" stop-color="#a9b6ff" stop-opacity="0.64"/><stop offset="0.94" stop-color="#8496ff" stop-opacity="0.91"/><stop offset="1" stop-color="#788cff"/></linearGradient><linearGradient id="Dégradé_sans_nom_695" x1="1250" y1="783.28" x2="1250" y2="3.78" gradientUnits="userSpaceOnUse"><stop offset="0" stop-color="#0016ff" stop-opacity="0"/><stop offset="0.34" stop-color="#151dcb" stop-opacity="0.42"/><stop offset="0.63" stop-color="#2423a4" stop-opacity="0.74"/><stop offset="0.86" stop-color="#2e268c" stop-opacity="0.93"/><stop offset="1" stop-color="#312783"/></linearGradient><radialGradient id="Dégradé_sans_nom_671" cx="1355.92" cy="360.65" r="3735.93" gradientUnits="userSpaceOnUse"><stop offset="0.49" stop-color="#fff" stop-opacity="0"/><stop offset="1" stop-color="#788cff"/></radialGradient><radialGradient id="Dégradé_sans_nom_664" cx="1314.31" cy="390.43" r="2268.44" gradientUnits="userSpaceOnUse"><stop offset="0" stop-color="#fff" stop-opacity="0"/><stop offset="1" stop-color="#788cff"/></radialGradient><radialGradient id="Dégradé_sans_nom_664-2" cx="1355.92" cy="740.45" r="3171.87" xlink:href="#Dégradé_sans_nom_664"/><radialGradient id="Dégradé_sans_nom_670" cx="960.4" cy="104.46" r="3188.88" gradientUnits="userSpaceOnUse"><stop offset="0.26" stop-color="#fff" stop-opacity="0"/><stop offset="1" stop-color="#788cff"/></radialGradient><radialGradient id="Dégradé_sans_nom_664-5" cx="1455.14" cy="681.76" r="1113.4" xlink:href="#Dégradé_sans_nom_664"/><radialGradient id="Dégradé_sans_nom_664-7" cx="902.66" cy="390.43" r="1936.27" xlink:href="#Dégradé_sans_nom_664"/><radialGradient id="Dégradé_sans_nom_668" cx="1712.94" cy="1250.15" r="2679.82" gradientUnits="userSpaceOnUse"><stop offset="0.56" stop-color="#fff" stop-opacity="0"/><stop offset="1" stop-color="#788cff"/></radialGradient><radialGradient id="Dégradé_sans_nom_664-9" cx="1314.31" cy="621.04" r="1925.94" xlink:href="#Dégradé_sans_nom_664"/><radialGradient id="Dégradé_sans_nom_664-11" cx="839.32" cy="1001.09" r="3171.87" xlink:href="#Dégradé_sans_nom_664"/><linearGradient id="Dégradé_sans_nom_2" x1="1250" y1="379.56" x2="1250" y2="-252.2" xlink:href="#Dégradé_sans_nom_695"/><radialGradient id="Dégradé_sans_nom_674" cx="24491.11" cy="2890.67" r="3171.87" gradientTransform="translate(25570.37 5289.41) rotate(180)" gradientUnits="userSpaceOnUse"><stop offset="0.43" stop-color="#fff" stop-opacity="0"/><stop offset="1" stop-color="#788cff"/></radialGradient><radialGradient id="Dégradé_sans_nom_664-12" cx="24426.29" cy="2948.69" r="3171.87" gradientTransform="translate(25570.37 5289.41) rotate(180)" xlink:href="#Dégradé_sans_nom_664"/></defs><rect x="0.18" y="0.18" width="2499.82" height="1502.7" style="fill:#312783"/><polygon points="-43.87 263.44 -43.87 821.49 439.4 1100.5 922.68 821.49 922.68 263.44 439.4 -15.57 -43.87 263.44" style="fill:url(#Dégradé_sans_nom_688)"/><rect y="64" width="2500" height="855.1" style="fill:url(#Dégradé_sans_nom_695)"/><polygon points="2500 -285.22 1250 -1006.91 1250 436.47 2500 -285.22" style="fill:url(#Dégradé_sans_nom_671)"/><polygon points="1250 436.47 2008.99 874.67 2008.99 -1.74 1250 436.47" style="fill:url(#Dégradé_sans_nom_664)"/><polygon points="1250 436.47 2500 1158.15 2500 -285.22 1250 436.47" style="fill:url(#Dégradé_sans_nom_664-2)"/><polygon points="1250 -439.94 491 -1.74 1250 436.47 1250 -439.94" style="fill:url(#Dégradé_sans_nom_664)"/><polygon points="1250 -1006.91 0 -285.22 1250 436.47 1250 -1006.91" style="fill:url(#Dégradé_sans_nom_670)"/><polygon points="1250 1312.88 2008.99 874.67 1250 436.47 1250 1312.88" style="fill:url(#Dégradé_sans_nom_664)"/><polygon points="1250 1312.88 2008.99 874.67 1250 436.47 1250 1312.88" style="fill:url(#Dégradé_sans_nom_664-5)"/><polygon points="491 -1.74 491 874.67 1250 436.47 491 -1.74" style="fill:url(#Dégradé_sans_nom_664)"/><polygon points="491 -1.74 491 874.67 1250 436.47 491 -1.74" style="fill:url(#Dégradé_sans_nom_664-7)"/><polygon points="0 -285.22 0 1158.15 1250 436.47 0 -285.22" style="fill:url(#Dégradé_sans_nom_668)"/><polygon points="491 874.67 1250 1312.88 1250 436.47 491 874.67" style="fill:url(#Dégradé_sans_nom_664)"/><polygon points="491 874.67 1250 1312.88 1250 436.47 491 874.67" style="fill:url(#Dégradé_sans_nom_664-9)"/><polygon points="491 874.67 1250 1312.88 1250 436.47 491 874.67" style="fill:url(#Dégradé_sans_nom_664-7)"/><polygon points="0 1158.15 1250 1879.84 1250 436.47 0 1158.15" style="fill:url(#Dégradé_sans_nom_664-11)"/><rect x="0.13" y="0.18" width="2499.74" height="443.23" style="fill:url(#Dégradé_sans_nom_2)"/><polygon points="1250 1201.33 0 1923.02 1250 2644.7 1250 1201.33" style="fill:url(#Dégradé_sans_nom_674)"/><polygon points="2500 1923.02 1250 1201.33 1250 2644.7 2500 1923.02" style="fill:url(#Dégradé_sans_nom_664-12)"/></svg>