<svg xmlns="http://www.w3.org/2000/svg" xmlns:xlink="http://www.w3.org/1999/xlink" viewBox="0 0 402.47 115.85"><defs><linearGradient id="Dégradé_sans_nom_926" x1="221.75" y1="65.19" x2="214.95" y2="-46.86" gradientUnits="userSpaceOnUse"><stop offset="0" stop-color="#788cff" stop-opacity="0"/><stop offset="0.22" stop-color="#9baaff" stop-opacity="0.26"/><stop offset="0.5" stop-color="#c6ceff" stop-opacity="0.57"/><stop offset="0.74" stop-color="#e5e8ff" stop-opacity="0.8"/><stop offset="0.91" stop-color="#f8f9ff" stop-opacity="0.95"/><stop offset="1" stop-color="#fff"/></linearGradient><linearGradient id="Dégradé_sans_nom_926-2" x1="203.63" y1="-8.87" x2="197.48" y2="45.01" xlink:href="#Dégradé_sans_nom_926"/><linearGradient id="Dégradé_sans_nom_926-3" x1="201.69" y1="111.23" x2="199.06" y2="67.89" xlink:href="#Dégradé_sans_nom_926"/><linearGradient id="Dégradé_sans_nom_926-4" x1="182.51" y1="51.33" x2="179.02" y2="157.93" xlink:href="#Dégradé_sans_nom_926"/><linearGradient id="Dégradé_sans_nom_926-5" x1="197.03" y1="111.97" x2="206.03" y2="-3.65" xlink:href="#Dégradé_sans_nom_926"/><linearGradient id="Dégradé_sans_nom_926-6" x1="287.98" y1="111.97" x2="296.98" y2="-3.65" xlink:href="#Dégradé_sans_nom_926"/><linearGradient id="Dégradé_sans_nom_926-7" x1="106.63" y1="104.93" x2="115.63" y2="-10.69" xlink:href="#Dégradé_sans_nom_926"/><linearGradient id="Dégradé_sans_nom_926-8" x1="343.03" y1="70.26" x2="447.18" y2="38.22" xlink:href="#Dégradé_sans_nom_926"/><linearGradient id="Dégradé_sans_nom_926-9" x1="-20.76" y1="70.26" x2="83.38" y2="38.22" xlink:href="#Dégradé_sans_nom_926"/></defs><g id="Calque_2" data-name="Calque 2"><g id="TEXT_AND_INFOS" data-name="TEXT AND INFOS"><rect x="38.67" width="363.8" height="91.61" style="fill:url(#Dégradé_sans_nom_926)"/><polygon points="363.8 24.24 0 24.24 38.67 0 402.47 0 363.8 24.24" style="fill:url(#Dégradé_sans_nom_926-2)"/><polygon points="402.47 91.61 38.67 91.61 0 115.85 363.8 115.85 402.47 91.61" style="fill:url(#Dégradé_sans_nom_926-3)"/><rect y="24.24" width="363.8" height="91.61" style="fill:url(#Dégradé_sans_nom_926-4)"/><polygon points="220.57 91.61 181.9 115.85 181.9 24.24 220.57 0 220.57 91.61" style="fill:url(#Dégradé_sans_nom_926-5)"/><polygon points="311.52 91.61 272.85 115.85 272.85 24.24 311.52 0 311.52 91.61" style="fill:url(#Dégradé_sans_nom_926-6)"/><polygon points="129.62 91.61 90.95 115.85 90.95 24.24 129.62 0 129.62 91.61" style="fill:url(#Dégradé_sans_nom_926-7)"/><polygon points="402.47 91.61 363.8 115.85 363.8 24.24 402.47 0 402.47 91.61" style="fill:url(#Dégradé_sans_nom_926-8)"/><polygon points="38.67 91.61 0 115.85 0 24.24 38.67 0 38.67 91.61" style="fill:url(#Dégradé_sans_nom_926-9)"/></g></g></svg>