<svg xmlns="http://www.w3.org/2000/svg" xmlns:xlink="http://www.w3.org/1999/xlink" viewBox="0 0 304.37 190.74"><defs><radialGradient id="Dégradé_sans_nom_967" cx="41.99" cy="84.09" r="158.82" gradientUnits="userSpaceOnUse"><stop offset="0" stop-color="#fff" stop-opacity="0"/><stop offset="0.11" stop-color="#fff" stop-opacity="0.6"/><stop offset="0.87" stop-color="#788cff" stop-opacity="0"/></radialGradient></defs><g id="Calque_2" data-name="Calque 2"><g id="TEXT_AND_INFOS" data-name="TEXT AND INFOS"><path d="M304,95.37a95,95,0,0,1-95,95c-52.46,0-209-95-209-95S38.86,71.78,84.35,48.12c7.05-3.67,14.25-7.34,21.5-10.92C145.69,17.49,186.72.37,209,.37A95,95,0,0,1,304,95.37Z" style="fill:url(#Dégradé_sans_nom_967)"/><circle cx="40" cy="95.37" r="40" style="fill:#f3ba2f"/><path d="M28.17,90.52,40,78.69,51.83,90.52l6.87-6.88L40,64.94,21.3,83.64l6.87,6.88M9.56,95.37l6.88-6.88,6.88,6.88-6.88,6.88Zm18.61,4.86L40,112.05l11.82-11.82,6.89,6.87h0L40,125.81l-18.71-18.7h0l6.88-6.87m28.51-4.85,6.88-6.88,6.88,6.88-6.88,6.88Z" style="fill:#fff"/><path d="M47,95.37h0l-7-7-5.16,5.16h0l-.59.59L33,95.36h0l7,7,7-7h0" style="fill:#fff"/><circle cx="208.99" cy="95.37" r="95.37" style="fill:#fff"/><polygon points="180.77 79.07 180.77 111.67 209 127.96 237.22 111.67 237.22 79.07 209 62.78 180.77 79.07" style="fill:#001670"/><path d="M219.86,30.18a10.87,10.87,0,1,0-14.41,10.27L209,57.35l3.54-16.9A10.87,10.87,0,0,0,219.86,30.18Z" style="fill:#001670"/><path d="M198.13,160.56a10.87,10.87,0,1,0,14.41-10.26L209,133.4l-3.55,16.9A10.85,10.85,0,0,0,198.13,160.56Z" style="fill:#001670"/><path d="M158,53.37A10.86,10.86,0,1,0,159.66,71l16.4,5.38L163.2,64.84A10.87,10.87,0,0,0,158,53.37Z" style="fill:#001670"/><path d="M260,137.37a10.86,10.86,0,1,0-1.68-17.61l-16.41-5.38,12.86,11.52A10.87,10.87,0,0,0,260,137.37Z" style="fill:#001670"/><path d="M260,53.37A10.86,10.86,0,1,1,258.34,71l-16.41,5.38,12.86-11.52A10.87,10.87,0,0,1,260,53.37Z" style="fill:#001670"/><path d="M158,137.37a10.86,10.86,0,1,1,1.69-17.61l16.4-5.38L163.2,125.9A10.87,10.87,0,0,1,158,137.37Z" style="fill:#001670"/></g></g></svg>