<svg xmlns="http://www.w3.org/2000/svg" xmlns:xlink="http://www.w3.org/1999/xlink" viewBox="0 0 1085.3 526.57"><defs><clipPath id="clip-path"><path d="M1085.3,40.36A40.36,40.36,0,0,0,1044.94,0H40.36A40.36,40.36,0,0,0,0,40.36V486.21a40.36,40.36,0,0,0,40.36,40.36H1044.94a40.36,40.36,0,0,0,40.36-40.36Z" style="fill:none"/></clipPath><linearGradient id="Dégradé_sans_nom_751" x1="-1.71" y1="263.28" x2="1087.09" y2="263.28" gradientUnits="userSpaceOnUse"><stop offset="0" stop-color="#312783"/><stop offset="1" stop-color="#312783"/></linearGradient><radialGradient id="Dégradé_sans_nom_671" cx="2077.92" cy="-1526.79" r="829.55" gradientTransform="translate(-5992.89 5073.32) scale(2.8 2.8)" gradientUnits="userSpaceOnUse"><stop offset="0.49" stop-color="#fff" stop-opacity="0"/><stop offset="1" stop-color="#788cff"/></radialGradient><radialGradient id="Dégradé_sans_nom_664" cx="2449.83" cy="-1727.82" r="636.99" gradientTransform="translate(-5992.89 5073.32) scale(2.8 2.8)" gradientUnits="userSpaceOnUse"><stop offset="0" stop-color="#fff" stop-opacity="0"/><stop offset="1" stop-color="#788cff"/></radialGradient><radialGradient id="Dégradé_sans_nom_664-2" cx="2346.08" cy="-1680.71" r="381.59" xlink:href="#Dégradé_sans_nom_664"/><radialGradient id="Dégradé_sans_nom_664-3" cx="2222.42" cy="-1835.04" r="646.57" xlink:href="#Dégradé_sans_nom_664"/><radialGradient id="Dégradé_sans_nom_664-4" cx="2467.65" cy="-1872.68" r="396.88" xlink:href="#Dégradé_sans_nom_664"/><radialGradient id="Dégradé_sans_nom_670" cx="2298.5" cy="-1757.23" r="383.63" gradientTransform="translate(-5992.89 5073.32) scale(2.8 2.8)" gradientUnits="userSpaceOnUse"><stop offset="0.26" stop-color="#fff" stop-opacity="0"/><stop offset="1" stop-color="#788cff"/></radialGradient><radialGradient id="Dégradé_sans_nom_664-5" cx="2341.07" cy="-1722.82" r="272.9" xlink:href="#Dégradé_sans_nom_664"/><radialGradient id="Dégradé_sans_nom_664-6" cx="2375.83" cy="-1636.71" r="177.51" xlink:href="#Dégradé_sans_nom_664"/><radialGradient id="Dégradé_sans_nom_674" cx="2211.01" cy="-1766.6" r="530.58" gradientTransform="translate(-5992.89 5073.32) scale(2.8 2.8)" gradientUnits="userSpaceOnUse"><stop offset="0.43" stop-color="#fff" stop-opacity="0"/><stop offset="1" stop-color="#788cff"/></radialGradient><radialGradient id="Dégradé_sans_nom_664-8" cx="2228.12" cy="-1727.25" r="788.71" xlink:href="#Dégradé_sans_nom_664"/><radialGradient id="Dégradé_sans_nom_668" cx="2651.93" cy="-1439.53" r="648.4" gradientTransform="translate(-5992.89 5073.32) scale(2.8 2.8)" gradientUnits="userSpaceOnUse"><stop offset="0.56" stop-color="#fff" stop-opacity="0"/><stop offset="1" stop-color="#788cff"/></radialGradient><radialGradient id="Dégradé_sans_nom_664-10" cx="2341.07" cy="-1695.08" r="231.7" xlink:href="#Dégradé_sans_nom_664"/><radialGradient id="Dégradé_sans_nom_664-11" cx="2316.84" cy="-1593.15" r="540.35" xlink:href="#Dégradé_sans_nom_664"/><radialGradient id="Dégradé_sans_nom_686" cx="19636.41" cy="3554.05" r="703.98" gradientTransform="translate(55892.99 9852.32) rotate(180) scale(2.8 2.8)" gradientUnits="userSpaceOnUse"><stop offset="0" stop-color="#fff" stop-opacity="0"/><stop offset="0.49" stop-color="#788cff"/></radialGradient><radialGradient id="Dégradé_sans_nom_686-2" cx="19602.64" cy="3504.28" r="796.18" xlink:href="#Dégradé_sans_nom_686"/><radialGradient id="Dégradé_sans_nom_686-3" cx="19634.04" cy="3291.58" r="246.7" xlink:href="#Dégradé_sans_nom_686"/><radialGradient id="Dégradé_sans_nom_686-4" cx="19789.87" cy="3545.76" r="268.71" xlink:href="#Dégradé_sans_nom_686"/><radialGradient id="Dégradé_sans_nom_686-5" cx="19568.87" cy="3380.45" r="425.59" xlink:href="#Dégradé_sans_nom_686"/><radialGradient id="Dégradé_sans_nom_686-6" cx="19637.01" cy="3584.27" r="414.71" xlink:href="#Dégradé_sans_nom_686"/><radialGradient id="Dégradé_sans_nom_664-13" cx="19766.32" cy="4113.12" r="179.69" gradientTransform="translate(55892.99 12237.05) rotate(180) scale(2.8 2.8)" xlink:href="#Dégradé_sans_nom_664"/><radialGradient id="Dégradé_sans_nom_664-14" cx="19789.2" cy="4169.82" r="116.88" gradientTransform="translate(55892.99 12237.05) rotate(180) scale(2.8 2.8)" xlink:href="#Dégradé_sans_nom_664"/><radialGradient id="Dégradé_sans_nom_674-2" cx="19680.68" cy="4084.3" r="349.36" gradientTransform="translate(55892.99 12237.05) rotate(180) scale(2.8 2.8)" xlink:href="#Dégradé_sans_nom_674"/><radialGradient id="Dégradé_sans_nom_664-16" cx="19766.32" cy="4131.39" r="152.56" gradientTransform="translate(55892.99 12237.05) rotate(180) scale(2.8 2.8)" xlink:href="#Dégradé_sans_nom_664"/><radialGradient id="Dégradé_sans_nom_664-17" cx="19750.36" cy="4198.5" r="355.79" gradientTransform="translate(55892.99 12237.05) rotate(180) scale(2.8 2.8)" xlink:href="#Dégradé_sans_nom_664"/><radialGradient id="Dégradé_sans_nom_664-18" cx="19769.61" cy="4140.85" r="251.25" gradientTransform="translate(55892.99 12237.05) rotate(180) scale(2.8 2.8)" xlink:href="#Dégradé_sans_nom_664"/><radialGradient id="Dégradé_sans_nom_664-19" cx="2341.73" cy="-141.29" r="251.25" gradientTransform="translate(-5992.89 337.92) scale(2.8 2.8)" xlink:href="#Dégradé_sans_nom_664"/><radialGradient id="Dégradé_sans_nom_664-20" cx="2338.43" cy="-169.02" r="179.69" gradientTransform="translate(-5992.89 337.92) scale(2.8 2.8)" xlink:href="#Dégradé_sans_nom_664"/><radialGradient id="Dégradé_sans_nom_664-21" cx="2361.32" cy="-112.32" r="116.88" gradientTransform="translate(-5992.89 337.92) scale(2.8 2.8)" xlink:href="#Dégradé_sans_nom_664"/><radialGradient id="Dégradé_sans_nom_674-3" cx="2252.79" cy="-197.84" r="349.36" gradientTransform="translate(-5992.89 337.92) scale(2.8 2.8)" xlink:href="#Dégradé_sans_nom_674"/><radialGradient id="Dégradé_sans_nom_668-2" cx="2543.12" cy="17.52" r="426.94" gradientTransform="translate(-5992.89 337.92) scale(2.8 2.8)" xlink:href="#Dégradé_sans_nom_668"/><radialGradient id="Dégradé_sans_nom_664-23" cx="2338.43" cy="-150.75" r="152.56" gradientTransform="translate(-5992.89 337.92) scale(2.8 2.8)" xlink:href="#Dégradé_sans_nom_664"/><radialGradient id="Dégradé_sans_nom_664-24" cx="2322.48" cy="-83.64" r="355.79" gradientTransform="translate(-5992.89 337.92) scale(2.8 2.8)" xlink:href="#Dégradé_sans_nom_664"/><linearGradient id="Dégradé_sans_nom_1041" x1="542.65" y1="-205.92" x2="542.65" y2="1317.5" gradientUnits="userSpaceOnUse"><stop offset="0" stop-color="#516aff"/><stop offset="0.89" stop-color="#516aff" stop-opacity="0.11"/><stop offset="1" stop-color="#516aff" stop-opacity="0"/></linearGradient><radialGradient id="Dégradé_sans_nom_5" cx="2334.19" cy="-1714.62" r="251.99" gradientTransform="translate(-5995.78 5072.18) scale(2.8 2.8)" gradientUnits="userSpaceOnUse"><stop offset="0.01" stop-opacity="0"/><stop offset="0.11" stop-opacity="0.23"/><stop offset="1"/></radialGradient><radialGradient id="Dégradé_sans_nom_162" cx="2325.85" cy="-1711.99" r="107.02" gradientTransform="translate(-5992.89 5073.32) scale(2.8 2.8)" gradientUnits="userSpaceOnUse"><stop offset="0" stop-color="#788cff"/><stop offset="0.89" stop-color="#556eff" stop-opacity="0.11"/><stop offset="1" stop-color="#516aff" stop-opacity="0"/></radialGradient><radialGradient id="Dégradé_sans_nom_263" cx="-3825.2" cy="-891.55" r="107.02" gradientTransform="translate(6811.12 3945.2) scale(1.64 4.11)" gradientUnits="userSpaceOnUse"><stop offset="0.01" stop-color="#788cff"/><stop offset="0.89" stop-color="#556eff" stop-opacity="0.11"/><stop offset="1" stop-color="#516aff" stop-opacity="0"/></radialGradient><linearGradient id="Dégradé_sans_nom_239" x1="449.2" y1="197.98" x2="1020.51" y2="-101.55" gradientUnits="userSpaceOnUse"><stop offset="0" stop-color="#fff" stop-opacity="0"/><stop offset="1" stop-color="#fff"/></linearGradient><linearGradient id="Dégradé_sans_nom_239-2" x1="662.79" y1="234.44" x2="1096.99" y2="395.22" xlink:href="#Dégradé_sans_nom_239"/><linearGradient id="Dégradé_sans_nom_239-3" x1="614.48" y1="404.89" x2="348.42" y2="112.7" xlink:href="#Dégradé_sans_nom_239"/><linearGradient id="Dégradé_sans_nom_239-4" x1="568.6" y1="384.87" x2="959.54" y2="651.75" xlink:href="#Dégradé_sans_nom_239"/><linearGradient id="Dégradé_sans_nom_239-5" x1="505.5" y1="137.53" x2="208.42" y2="46.12" xlink:href="#Dégradé_sans_nom_239"/><linearGradient id="Dégradé_sans_nom_239-6" x1="389.31" y1="246.91" x2="643.95" y2="55.92" xlink:href="#Dégradé_sans_nom_239"/><linearGradient id="Dégradé_sans_nom_239-7" x1="507.72" y1="378" x2="717.47" y2="566.53" xlink:href="#Dégradé_sans_nom_239"/><linearGradient id="Dégradé_sans_nom_239-8" x1="195.89" y1="266.06" x2="167.5" y2="273.67" xlink:href="#Dégradé_sans_nom_239"/><linearGradient id="Dégradé_sans_nom_239-9" x1="146.32" y1="184.45" x2="131.97" y2="185.33" xlink:href="#Dégradé_sans_nom_239"/><linearGradient id="Dégradé_sans_nom_239-10" x1="736.85" y1="542.57" x2="990.89" y2="-89.6" xlink:href="#Dégradé_sans_nom_239"/><linearGradient id="Dégradé_sans_nom_239-11" x1="760.33" y1="404.84" x2="788.1" y2="335.74" xlink:href="#Dégradé_sans_nom_239"/><linearGradient id="Dégradé_sans_nom_239-12" x1="904.04" y1="194.39" x2="931.81" y2="125.29" xlink:href="#Dégradé_sans_nom_239"/><linearGradient id="Dégradé_sans_nom_239-13" x1="166.71" y1="229.41" x2="185.84" y2="168.93" xlink:href="#Dégradé_sans_nom_239"/><linearGradient id="Dégradé_sans_nom_239-14" x1="213.04" y1="42.33" x2="213.04" y2="683.91" xlink:href="#Dégradé_sans_nom_239"/><linearGradient id="Dégradé_sans_nom_239-15" x1="259.49" y1="42.33" x2="259.49" y2="683.91" xlink:href="#Dégradé_sans_nom_239"/><linearGradient id="Dégradé_sans_nom_239-16" x1="253.73" y1="201.26" x2="279.68" y2="259.89" xlink:href="#Dégradé_sans_nom_239"/><linearGradient id="Dégradé_sans_nom_239-17" x1="209.5" y1="300.23" x2="205.99" y2="420.03" xlink:href="#Dégradé_sans_nom_239"/><linearGradient id="Dégradé_sans_nom_239-18" x1="156.99" y1="318.99" x2="116.02" y2="354.98" xlink:href="#Dégradé_sans_nom_239"/><linearGradient id="Dégradé_sans_nom_239-19" x1="257.4" y1="63.04" x2="272.32" y2="533.66" xlink:href="#Dégradé_sans_nom_239"/><linearGradient id="Dégradé_sans_nom_239-20" x1="189.73" y1="222.23" x2="228.36" y2="131.3" xlink:href="#Dégradé_sans_nom_239"/><linearGradient id="Dégradé_sans_nom_239-21" x1="278.93" y1="45.32" x2="297.43" y2="628.48" xlink:href="#Dégradé_sans_nom_239"/><linearGradient id="Dégradé_sans_nom_239-22" x1="176.12" y1="65.62" x2="191.04" y2="536.24" xlink:href="#Dégradé_sans_nom_239"/><linearGradient id="Dégradé_sans_nom_239-23" x1="198.45" y1="64.91" x2="213.37" y2="535.53" xlink:href="#Dégradé_sans_nom_239"/><linearGradient id="Dégradé_sans_nom_239-24" x1="211.47" y1="42.33" x2="211.47" y2="683.91" xlink:href="#Dégradé_sans_nom_239"/><linearGradient id="Dégradé_sans_nom_239-25" x1="83.6" y1="356.2" x2="306.03" y2="183.71" xlink:href="#Dégradé_sans_nom_239"/><linearGradient id="Dégradé_sans_nom_239-26" x1="206.62" y1="198.41" x2="243.64" y2="216.41" xlink:href="#Dégradé_sans_nom_239"/><linearGradient id="Dégradé_sans_nom_239-27" x1="264.61" y1="244.77" x2="195.25" y2="260.28" xlink:href="#Dégradé_sans_nom_239"/><linearGradient id="Dégradé_sans_nom_239-28" x1="406.78" y1="282.62" x2="406.78" y2="119.25" xlink:href="#Dégradé_sans_nom_239"/><linearGradient id="Dégradé_sans_nom_239-29" x1="405.02" y1="277.22" x2="376.92" y2="425.9" xlink:href="#Dégradé_sans_nom_239"/><linearGradient id="Dégradé_sans_nom_239-30" x1="406.66" y1="187.37" x2="406.66" y2="161.89" xlink:href="#Dégradé_sans_nom_239"/><linearGradient id="Dégradé_sans_nom_239-31" x1="366.29" y1="377.15" x2="620.33" y2="-255.02" xlink:href="#Dégradé_sans_nom_239"/><linearGradient id="Dégradé_sans_nom_239-32" x1="357.62" y1="390.18" x2="611.66" y2="-242" xlink:href="#Dégradé_sans_nom_239"/><linearGradient id="Dégradé_sans_nom_239-33" x1="405.6" y1="64.28" x2="405.6" y2="426.83" xlink:href="#Dégradé_sans_nom_239"/><linearGradient id="Dégradé_sans_nom_239-34" x1="610.91" y1="270.32" x2="610.91" y2="174.88" xlink:href="#Dégradé_sans_nom_239"/><linearGradient id="Dégradé_sans_nom_239-35" x1="608.68" y1="305.44" x2="608.68" y2="422.69" xlink:href="#Dégradé_sans_nom_239"/><linearGradient id="Dégradé_sans_nom_239-36" x1="542.04" y1="447.78" x2="796.08" y2="-184.4" xlink:href="#Dégradé_sans_nom_239"/><linearGradient id="Dégradé_sans_nom_239-37" x1="610.79" y1="216.52" x2="610.79" y2="157.81" xlink:href="#Dégradé_sans_nom_239"/><linearGradient id="Dégradé_sans_nom_239-38" x1="533.37" y1="460.8" x2="787.41" y2="-171.37" xlink:href="#Dégradé_sans_nom_239"/><linearGradient id="Dégradé_sans_nom_239-39" x1="609.73" y1="64.28" x2="609.73" y2="426.83" xlink:href="#Dégradé_sans_nom_239"/><linearGradient id="Dégradé_sans_nom_239-40" x1="771.34" y1="238.91" x2="771.34" y2="313.41" xlink:href="#Dégradé_sans_nom_239"/><linearGradient id="Dégradé_sans_nom_239-41" x1="781.34" y1="159.36" x2="770.42" y2="232.33" xlink:href="#Dégradé_sans_nom_239"/><linearGradient id="Dégradé_sans_nom_239-42" x1="773.11" y1="210.42" x2="773.11" y2="126.09" xlink:href="#Dégradé_sans_nom_239"/><linearGradient id="Dégradé_sans_nom_239-43" x1="664.12" y1="496.83" x2="918.16" y2="-135.34" xlink:href="#Dégradé_sans_nom_239"/><linearGradient id="Dégradé_sans_nom_239-44" x1="656.13" y1="510.13" x2="910.17" y2="-122.04" xlink:href="#Dégradé_sans_nom_239"/><linearGradient id="Dégradé_sans_nom_239-45" x1="772.23" y1="64.28" x2="772.23" y2="426.83" xlink:href="#Dégradé_sans_nom_239"/><linearGradient id="Dégradé_sans_nom_239-46" x1="918.41" y1="257.81" x2="915.29" y2="330.39" xlink:href="#Dégradé_sans_nom_239"/><linearGradient id="Dégradé_sans_nom_239-47" x1="914.44" y1="290.42" x2="914.44" y2="437.15" xlink:href="#Dégradé_sans_nom_239"/><linearGradient id="Dégradé_sans_nom_239-48" x1="916.21" y1="311.55" x2="915.82" y2="232.72" xlink:href="#Dégradé_sans_nom_239"/><linearGradient id="Dégradé_sans_nom_239-49" x1="914.3" y1="302.91" x2="914.3" y2="387.62" xlink:href="#Dégradé_sans_nom_239"/><linearGradient id="Dégradé_sans_nom_239-50" x1="813.67" y1="573.44" x2="1067.71" y2="-58.73" xlink:href="#Dégradé_sans_nom_239"/><linearGradient id="Dégradé_sans_nom_239-51" x1="915.33" y1="64.28" x2="915.33" y2="426.83" xlink:href="#Dégradé_sans_nom_239"/><linearGradient id="Dégradé_sans_nom_239-52" x1="738.61" y1="526.77" x2="992.65" y2="-105.41" xlink:href="#Dégradé_sans_nom_239"/><linearGradient id="Dégradé_sans_nom_394" x1="218.27" y1="-23.19" x2="207.18" y2="439.94" gradientUnits="userSpaceOnUse"><stop offset="0" stop-color="#0dff00" stop-opacity="0"/><stop offset="1" stop-color="#0dff00"/></linearGradient><linearGradient id="Dégradé_sans_nom_394-2" x1="413.09" y1="-18.52" x2="402" y2="444.6" xlink:href="#Dégradé_sans_nom_394"/><linearGradient id="Dégradé_sans_nom_394-3" x1="617.1" y1="-13.64" x2="606.02" y2="449.49" xlink:href="#Dégradé_sans_nom_394"/><linearGradient id="Dégradé_sans_nom_394-4" x1="851.01" y1="-8.04" x2="839.93" y2="455.08" xlink:href="#Dégradé_sans_nom_394"/><linearGradient id="Dégradé_sans_nom_372" x1="135.05" y1="187.86" x2="226.4" y2="187.86" gradientUnits="userSpaceOnUse"><stop offset="0.02" stop-color="#788cff" stop-opacity="0"/><stop offset="1" stop-color="#788cff"/></linearGradient><linearGradient id="Dégradé_sans_nom_372-2" x1="181.35" y1="281.82" x2="244.74" y2="281.82" xlink:href="#Dégradé_sans_nom_372"/><linearGradient id="Dégradé_sans_nom_372-3" x1="236.62" y1="213.23" x2="282.37" y2="213.23" xlink:href="#Dégradé_sans_nom_372"/><linearGradient id="Dégradé_sans_nom_372-4" x1="236.62" y1="212.23" x2="284.12" y2="212.23" xlink:href="#Dégradé_sans_nom_372"/><linearGradient id="Dégradé_sans_nom_372-5" x1="197.5" y1="307.86" x2="254.57" y2="461.52" xlink:href="#Dégradé_sans_nom_372"/><linearGradient id="Dégradé_sans_nom_372-6" x1="124.53" y1="333.28" x2="145.23" y2="333.28" xlink:href="#Dégradé_sans_nom_372"/><linearGradient id="Dégradé_sans_nom_372-7" x1="234.86" y1="277.09" x2="293.74" y2="277.09" xlink:href="#Dégradé_sans_nom_372"/><linearGradient id="Dégradé_sans_nom_372-8" x1="136.81" y1="169.3" x2="284.12" y2="169.3" xlink:href="#Dégradé_sans_nom_372"/><linearGradient id="Dégradé_sans_nom_372-9" x1="282.37" y1="176.2" x2="284.12" y2="176.2" xlink:href="#Dégradé_sans_nom_372"/><linearGradient id="Dégradé_sans_nom_372-10" x1="182.51" y1="322.78" x2="221.14" y2="400.92" xlink:href="#Dégradé_sans_nom_372"/><linearGradient id="Dégradé_sans_nom_372-11" x1="183.11" y1="230.91" x2="224.64" y2="230.91" xlink:href="#Dégradé_sans_nom_372"/><linearGradient id="Dégradé_sans_nom_372-12" x1="130.96" y1="267.44" x2="291.97" y2="267.44" xlink:href="#Dégradé_sans_nom_372"/><linearGradient id="Dégradé_sans_nom_372-13" x1="251.56" y1="322.88" x2="296.34" y2="387.85" xlink:href="#Dégradé_sans_nom_372"/><linearGradient id="Dégradé_sans_nom_372-14" x1="212.44" y1="199.5" x2="226.4" y2="199.5" xlink:href="#Dégradé_sans_nom_372"/><linearGradient id="Dégradé_sans_nom_372-15" x1="234.86" y1="246.1" x2="246.82" y2="246.1" xlink:href="#Dégradé_sans_nom_372"/><linearGradient id="Dégradé_sans_nom_372-16" x1="365.89" y1="237.17" x2="447.67" y2="237.17" xlink:href="#Dégradé_sans_nom_372"/><linearGradient id="Dégradé_sans_nom_372-17" x1="405.83" y1="294.17" x2="426.9" y2="413.58" xlink:href="#Dégradé_sans_nom_372"/><linearGradient id="Dégradé_sans_nom_372-18" x1="316.64" y1="216.93" x2="496.67" y2="216.93" xlink:href="#Dégradé_sans_nom_372"/><linearGradient id="Dégradé_sans_nom_373" x1="363.84" y1="294.1" x2="445.61" y2="294.1" gradientUnits="userSpaceOnUse"><stop offset="0.02" stop-color="#788cff" stop-opacity="0"/><stop offset="0.2" stop-color="#788cff" stop-opacity="0.01"/><stop offset="0.33" stop-color="#788cff" stop-opacity="0.05"/><stop offset="0.45" stop-color="#788cff" stop-opacity="0.11"/><stop offset="0.55" stop-color="#788cff" stop-opacity="0.2"/><stop offset="0.65" stop-color="#788cff" stop-opacity="0.31"/><stop offset="0.74" stop-color="#788cff" stop-opacity="0.45"/><stop offset="0.83" stop-color="#788cff" stop-opacity="0.61"/><stop offset="0.92" stop-color="#788cff" stop-opacity="0.79"/><stop offset="1" stop-color="#788cff"/></linearGradient><linearGradient id="Dégradé_sans_nom_372-19" x1="316.29" y1="265.64" x2="494.92" y2="265.64" xlink:href="#Dégradé_sans_nom_372"/><linearGradient id="Dégradé_sans_nom_372-20" x1="438.99" y1="291.54" x2="591.76" y2="410.07" xlink:href="#Dégradé_sans_nom_372"/><linearGradient id="Dégradé_sans_nom_372-21" x1="570.02" y1="237.17" x2="651.8" y2="237.17" xlink:href="#Dégradé_sans_nom_372"/><linearGradient id="Dégradé_sans_nom_372-22" x1="608.95" y1="270.28" x2="603.69" y2="407.25" xlink:href="#Dégradé_sans_nom_372"/><linearGradient id="Dégradé_sans_nom_372-23" x1="567.97" y1="294.1" x2="649.74" y2="294.1" xlink:href="#Dégradé_sans_nom_372"/><linearGradient id="Dégradé_sans_nom_372-24" x1="520.77" y1="216.93" x2="700.8" y2="216.93" xlink:href="#Dégradé_sans_nom_372"/><linearGradient id="Dégradé_sans_nom_372-25" x1="520.42" y1="265.64" x2="699.05" y2="265.64" xlink:href="#Dégradé_sans_nom_372"/><linearGradient id="Dégradé_sans_nom_372-27" x1="719.19" y1="244.39" x2="823.48" y2="244.39" xlink:href="#Dégradé_sans_nom_372"/><linearGradient id="Dégradé_sans_nom_372-28" x1="751.31" y1="199.27" x2="795.2" y2="199.27" xlink:href="#Dégradé_sans_nom_372"/><linearGradient id="Dégradé_sans_nom_372-29" x1="720.97" y1="187.72" x2="825.26" y2="187.72" xlink:href="#Dégradé_sans_nom_372"/><linearGradient id="Dégradé_sans_nom_372-30" x1="749.55" y1="232.97" x2="793.44" y2="232.97" xlink:href="#Dégradé_sans_nom_372"/><linearGradient id="Dégradé_sans_nom_372-31" x1="720.94" y1="216.03" x2="823.51" y2="216.03" xlink:href="#Dégradé_sans_nom_372"/><linearGradient id="Dégradé_sans_nom_372-33" x1="894.11" y1="298.39" x2="938.01" y2="298.39" xlink:href="#Dégradé_sans_nom_372"/><linearGradient id="Dégradé_sans_nom_372-34" x1="862.29" y1="343.72" x2="966.59" y2="343.72" xlink:href="#Dégradé_sans_nom_372"/><linearGradient id="Dégradé_sans_nom_372-35" x1="864.06" y1="286.88" x2="968.37" y2="286.88" xlink:href="#Dégradé_sans_nom_372"/><linearGradient id="Dégradé_sans_nom_372-36" x1="892.36" y1="332.09" x2="936.25" y2="332.09" xlink:href="#Dégradé_sans_nom_372"/><linearGradient id="Dégradé_sans_nom_372-37" x1="864.05" y1="315.25" x2="966.61" y2="315.25" xlink:href="#Dégradé_sans_nom_372"/><linearGradient id="Dégradé_sans_nom_372-39" x1="754.92" y1="257.74" x2="934.4" y2="257.74" xlink:href="#Dégradé_sans_nom_372"/><linearGradient id="Dégradé_sans_nom_387" x1="135.05" y1="210.6" x2="226.4" y2="210.6" gradientUnits="userSpaceOnUse"><stop offset="0" stop-color="#788cff"/><stop offset="1" stop-color="#788cff" stop-opacity="0"/></linearGradient><linearGradient id="Dégradé_sans_nom_387-2" x1="181.35" y1="304.56" x2="244.74" y2="304.56" xlink:href="#Dégradé_sans_nom_387"/><linearGradient id="Dégradé_sans_nom_387-3" x1="236.62" y1="235.97" x2="282.37" y2="235.97" xlink:href="#Dégradé_sans_nom_387"/><linearGradient id="Dégradé_sans_nom_387-4" x1="236.62" y1="234.97" x2="284.12" y2="234.97" xlink:href="#Dégradé_sans_nom_387"/><linearGradient id="Dégradé_sans_nom_387-5" x1="197.5" y1="330.6" x2="254.57" y2="484.26" xlink:href="#Dégradé_sans_nom_387"/><linearGradient id="Dégradé_sans_nom_387-6" x1="124.53" y1="356.02" x2="145.23" y2="356.02" xlink:href="#Dégradé_sans_nom_387"/><linearGradient id="Dégradé_sans_nom_387-7" x1="234.86" y1="299.83" x2="293.74" y2="299.83" xlink:href="#Dégradé_sans_nom_387"/><linearGradient id="Dégradé_sans_nom_387-8" x1="136.81" y1="192.04" x2="284.12" y2="192.04" xlink:href="#Dégradé_sans_nom_387"/><linearGradient id="Dégradé_sans_nom_387-9" x1="282.37" y1="198.94" x2="284.12" y2="198.94" xlink:href="#Dégradé_sans_nom_387"/><linearGradient id="Dégradé_sans_nom_387-10" x1="182.51" y1="345.52" x2="221.14" y2="423.67" xlink:href="#Dégradé_sans_nom_387"/><linearGradient id="Dégradé_sans_nom_387-11" x1="183.11" y1="253.65" x2="224.64" y2="253.65" xlink:href="#Dégradé_sans_nom_387"/><linearGradient id="Dégradé_sans_nom_387-12" x1="130.96" y1="290.18" x2="291.97" y2="290.18" xlink:href="#Dégradé_sans_nom_387"/><linearGradient id="Dégradé_sans_nom_387-13" x1="251.56" y1="345.62" x2="296.34" y2="410.6" xlink:href="#Dégradé_sans_nom_387"/><linearGradient id="Dégradé_sans_nom_387-14" x1="212.44" y1="222.24" x2="226.4" y2="222.24" xlink:href="#Dégradé_sans_nom_387"/><linearGradient id="Dégradé_sans_nom_387-15" x1="234.86" y1="268.84" x2="246.82" y2="268.84" xlink:href="#Dégradé_sans_nom_387"/><linearGradient id="Dégradé_sans_nom_387-16" x1="365.89" y1="259.92" x2="447.67" y2="259.92" xlink:href="#Dégradé_sans_nom_387"/><linearGradient id="Dégradé_sans_nom_387-17" x1="405.83" y1="316.91" x2="426.9" y2="436.32" xlink:href="#Dégradé_sans_nom_387"/><linearGradient id="Dégradé_sans_nom_387-18" x1="316.64" y1="239.67" x2="496.67" y2="239.67" xlink:href="#Dégradé_sans_nom_387"/><linearGradient id="Dégradé_sans_nom_387-19" x1="363.84" y1="316.84" x2="445.61" y2="316.84" xlink:href="#Dégradé_sans_nom_387"/><linearGradient id="Dégradé_sans_nom_387-20" x1="316.29" y1="288.38" x2="494.92" y2="288.38" xlink:href="#Dégradé_sans_nom_387"/><linearGradient id="Dégradé_sans_nom_387-21" x1="438.99" y1="314.28" x2="591.76" y2="432.81" xlink:href="#Dégradé_sans_nom_387"/><linearGradient id="Dégradé_sans_nom_387-22" x1="570.02" y1="259.92" x2="651.8" y2="259.92" xlink:href="#Dégradé_sans_nom_387"/><linearGradient id="Dégradé_sans_nom_387-23" x1="608.95" y1="293.02" x2="603.69" y2="429.99" xlink:href="#Dégradé_sans_nom_387"/><linearGradient id="Dégradé_sans_nom_387-24" x1="567.97" y1="316.84" x2="649.74" y2="316.84" xlink:href="#Dégradé_sans_nom_387"/><linearGradient id="Dégradé_sans_nom_387-25" x1="520.77" y1="239.67" x2="700.8" y2="239.67" xlink:href="#Dégradé_sans_nom_387"/><linearGradient id="Dégradé_sans_nom_387-26" x1="520.42" y1="288.38" x2="699.05" y2="288.38" xlink:href="#Dégradé_sans_nom_387"/><linearGradient id="Dégradé_sans_nom_387-28" x1="719.19" y1="267.13" x2="823.48" y2="267.13" xlink:href="#Dégradé_sans_nom_387"/><linearGradient id="Dégradé_sans_nom_387-29" x1="751.31" y1="222.01" x2="795.2" y2="222.01" xlink:href="#Dégradé_sans_nom_387"/><linearGradient id="Dégradé_sans_nom_387-30" x1="720.97" y1="210.46" x2="825.26" y2="210.46" xlink:href="#Dégradé_sans_nom_387"/><linearGradient id="Dégradé_sans_nom_387-31" x1="749.55" y1="255.71" x2="793.44" y2="255.71" xlink:href="#Dégradé_sans_nom_387"/><linearGradient id="Dégradé_sans_nom_387-32" x1="720.94" y1="238.77" x2="823.51" y2="238.77" xlink:href="#Dégradé_sans_nom_387"/><linearGradient id="Dégradé_sans_nom_387-34" x1="894.11" y1="321.13" x2="938.01" y2="321.13" xlink:href="#Dégradé_sans_nom_387"/><linearGradient id="Dégradé_sans_nom_387-35" x1="862.29" y1="366.46" x2="966.59" y2="366.46" xlink:href="#Dégradé_sans_nom_387"/><linearGradient id="Dégradé_sans_nom_387-36" x1="864.06" y1="309.62" x2="968.37" y2="309.62" xlink:href="#Dégradé_sans_nom_387"/><linearGradient id="Dégradé_sans_nom_387-37" x1="892.36" y1="354.83" x2="936.25" y2="354.83" xlink:href="#Dégradé_sans_nom_387"/><linearGradient id="Dégradé_sans_nom_387-38" x1="864.05" y1="337.99" x2="966.61" y2="337.99" xlink:href="#Dégradé_sans_nom_387"/><linearGradient id="Dégradé_sans_nom_387-40" x1="754.92" y1="280.48" x2="934.4" y2="280.48" xlink:href="#Dégradé_sans_nom_387"/><linearGradient id="Dégradé_sans_nom_737" x1="135.05" y1="194.59" x2="226.4" y2="194.59" gradientUnits="userSpaceOnUse"><stop offset="0" stop-color="#3f8dff"/><stop offset="0.37" stop-color="#788cff" stop-opacity="0.03"/></linearGradient><linearGradient id="Dégradé_sans_nom_737-2" x1="181.35" y1="288.55" x2="244.74" y2="288.55" xlink:href="#Dégradé_sans_nom_737"/><linearGradient id="Dégradé_sans_nom_737-3" x1="236.62" y1="219.96" x2="282.37" y2="219.96" xlink:href="#Dégradé_sans_nom_737"/><linearGradient id="Dégradé_sans_nom_737-4" x1="236.62" y1="218.96" x2="284.12" y2="218.96" xlink:href="#Dégradé_sans_nom_737"/><linearGradient id="Dégradé_sans_nom_737-5" x1="197.5" y1="314.59" x2="254.57" y2="468.24" xlink:href="#Dégradé_sans_nom_737"/><linearGradient id="Dégradé_sans_nom_737-6" x1="124.53" y1="340.01" x2="145.23" y2="340.01" xlink:href="#Dégradé_sans_nom_737"/><linearGradient id="Dégradé_sans_nom_737-7" x1="234.86" y1="283.82" x2="293.74" y2="283.82" xlink:href="#Dégradé_sans_nom_737"/><linearGradient id="Dégradé_sans_nom_737-8" x1="136.81" y1="176.02" x2="284.12" y2="176.02" xlink:href="#Dégradé_sans_nom_737"/><linearGradient id="Dégradé_sans_nom_737-9" x1="282.37" y1="182.93" x2="284.12" y2="182.93" xlink:href="#Dégradé_sans_nom_737"/><linearGradient id="Dégradé_sans_nom_737-10" x1="182.51" y1="329.51" x2="221.14" y2="407.65" xlink:href="#Dégradé_sans_nom_737"/><linearGradient id="Dégradé_sans_nom_737-11" x1="183.11" y1="237.64" x2="224.64" y2="237.64" xlink:href="#Dégradé_sans_nom_737"/><linearGradient id="Dégradé_sans_nom_737-12" x1="130.96" y1="274.17" x2="291.97" y2="274.17" xlink:href="#Dégradé_sans_nom_737"/><linearGradient id="Dégradé_sans_nom_737-13" x1="251.56" y1="329.61" x2="296.34" y2="394.58" xlink:href="#Dégradé_sans_nom_737"/><linearGradient id="Dégradé_sans_nom_737-14" x1="212.44" y1="206.23" x2="226.4" y2="206.23" xlink:href="#Dégradé_sans_nom_737"/><linearGradient id="Dégradé_sans_nom_737-15" x1="234.86" y1="252.83" x2="246.82" y2="252.83" xlink:href="#Dégradé_sans_nom_737"/><linearGradient id="Dégradé_sans_nom_737-16" x1="365.89" y1="243.9" x2="447.67" y2="243.9" xlink:href="#Dégradé_sans_nom_737"/><linearGradient id="Dégradé_sans_nom_737-17" x1="405.83" y1="300.9" x2="426.9" y2="420.31" xlink:href="#Dégradé_sans_nom_737"/><linearGradient id="Dégradé_sans_nom_737-18" x1="316.64" y1="223.66" x2="496.67" y2="223.66" xlink:href="#Dégradé_sans_nom_737"/><linearGradient id="Dégradé_sans_nom_737-19" x1="363.84" y1="300.83" x2="445.61" y2="300.83" xlink:href="#Dégradé_sans_nom_737"/><linearGradient id="Dégradé_sans_nom_737-20" x1="316.29" y1="272.37" x2="494.92" y2="272.37" xlink:href="#Dégradé_sans_nom_737"/><linearGradient id="Dégradé_sans_nom_737-21" x1="438.99" y1="298.27" x2="591.76" y2="416.8" xlink:href="#Dégradé_sans_nom_737"/><linearGradient id="Dégradé_sans_nom_737-22" x1="570.02" y1="243.9" x2="651.8" y2="243.9" xlink:href="#Dégradé_sans_nom_737"/><linearGradient id="Dégradé_sans_nom_737-23" x1="608.95" y1="277" x2="603.69" y2="413.98" xlink:href="#Dégradé_sans_nom_737"/><linearGradient id="Dégradé_sans_nom_737-24" x1="567.97" y1="300.83" x2="649.74" y2="300.83" xlink:href="#Dégradé_sans_nom_737"/><linearGradient id="Dégradé_sans_nom_737-25" x1="520.77" y1="223.66" x2="700.8" y2="223.66" xlink:href="#Dégradé_sans_nom_737"/><linearGradient id="Dégradé_sans_nom_737-26" x1="520.42" y1="272.37" x2="699.05" y2="272.37" xlink:href="#Dégradé_sans_nom_737"/><linearGradient id="Dégradé_sans_nom_737-27" x1="606.22" y1="258.46" x2="721.7" y2="715.74" xlink:href="#Dégradé_sans_nom_737"/><linearGradient id="Dégradé_sans_nom_737-28" x1="719.19" y1="251.12" x2="823.48" y2="251.12" xlink:href="#Dégradé_sans_nom_737"/><linearGradient id="Dégradé_sans_nom_737-29" x1="751.31" y1="206" x2="795.2" y2="206" xlink:href="#Dégradé_sans_nom_737"/><linearGradient id="Dégradé_sans_nom_737-30" x1="720.97" y1="194.45" x2="825.26" y2="194.45" xlink:href="#Dégradé_sans_nom_737"/><linearGradient id="Dégradé_sans_nom_737-31" x1="749.55" y1="239.69" x2="793.44" y2="239.69" xlink:href="#Dégradé_sans_nom_737"/><linearGradient id="Dégradé_sans_nom_737-32" x1="720.94" y1="222.76" x2="823.51" y2="222.76" xlink:href="#Dégradé_sans_nom_737"/><linearGradient id="Dégradé_sans_nom_737-33" x1="759.2" y1="206.07" x2="855.27" y2="328.62" xlink:href="#Dégradé_sans_nom_737"/><linearGradient id="Dégradé_sans_nom_737-34" x1="894.11" y1="305.12" x2="938.01" y2="305.12" xlink:href="#Dégradé_sans_nom_737"/><linearGradient id="Dégradé_sans_nom_737-35" x1="862.29" y1="350.45" x2="966.59" y2="350.45" xlink:href="#Dégradé_sans_nom_737"/><linearGradient id="Dégradé_sans_nom_737-36" x1="864.06" y1="293.61" x2="968.37" y2="293.61" xlink:href="#Dégradé_sans_nom_737"/><linearGradient id="Dégradé_sans_nom_737-37" x1="892.36" y1="338.82" x2="936.25" y2="338.82" xlink:href="#Dégradé_sans_nom_737"/><linearGradient id="Dégradé_sans_nom_737-38" x1="864.05" y1="321.97" x2="966.61" y2="321.97" xlink:href="#Dégradé_sans_nom_737"/><linearGradient id="Dégradé_sans_nom_737-39" x1="897.61" y1="293.31" x2="1008.46" y2="472.53" xlink:href="#Dégradé_sans_nom_737"/><linearGradient id="Dégradé_sans_nom_737-40" x1="817.21" y1="229.79" x2="920.06" y2="359.74" xlink:href="#Dégradé_sans_nom_737"/><linearGradient id="Dégradé_sans_nom_394-5" x1="209.88" y1="319.99" x2="209.88" y2="69.94" xlink:href="#Dégradé_sans_nom_394"/><linearGradient id="Dégradé_sans_nom_394-6" x1="406.34" y1="319.99" x2="406.34" y2="69.94" xlink:href="#Dégradé_sans_nom_394"/><linearGradient id="Dégradé_sans_nom_394-7" x1="610.48" y1="319.99" x2="610.48" y2="69.94" xlink:href="#Dégradé_sans_nom_394"/><linearGradient id="Dégradé_sans_nom_394-8" x1="844.52" y1="319.99" x2="844.52" y2="69.94" xlink:href="#Dégradé_sans_nom_394"/></defs><g style="isolation:isolate"><g id="TEXT_AND_INFOS" data-name="TEXT AND INFOS"><g style="clip-path:url(#clip-path)"><rect x="-1.71" y="-281.12" width="1088.8" height="1088.8" style="fill:url(#Dégradé_sans_nom_751)"/><polygon points="963.89 20.1 542.69 -223.08 542.69 263.29 963.89 20.1" style="fill:url(#Dégradé_sans_nom_671)"/><polygon points="542.69 263.29 798.44 410.94 798.44 115.63 542.69 263.29" style="fill:url(#Dégradé_sans_nom_664)"/><polygon points="542.69 263.29 963.89 506.47 963.89 20.1 542.69 263.29" style="fill:url(#Dégradé_sans_nom_664-2)"/><polygon points="542.69 -32.03 286.93 115.63 542.69 263.29 542.69 -32.03" style="fill:url(#Dégradé_sans_nom_664-3)"/><polygon points="542.69 -32.03 798.44 115.63 542.69 263.29 542.69 -32.03" style="fill:url(#Dégradé_sans_nom_664-4)"/><polygon points="542.69 -223.08 121.48 20.1 542.69 263.29 542.69 -223.08" style="fill:url(#Dégradé_sans_nom_670)"/><polygon points="542.69 558.6 798.44 410.94 542.69 263.29 542.69 558.6" style="fill:url(#Dégradé_sans_nom_664-5)"/><polygon points="542.69 558.6 798.44 410.94 542.69 263.29 542.69 558.6" style="fill:url(#Dégradé_sans_nom_664-6)"/><polygon points="542.69 749.65 963.89 506.47 542.69 263.29 542.69 749.65" style="fill:url(#Dégradé_sans_nom_674)"/><polygon points="286.93 115.63 286.93 410.94 542.69 263.29 286.93 115.63" style="fill:url(#Dégradé_sans_nom_664-5)"/><polygon points="286.93 115.63 286.93 410.94 542.69 263.29 286.93 115.63" style="fill:url(#Dégradé_sans_nom_664-8)"/><polygon points="121.48 20.1 121.48 506.47 542.69 263.29 121.48 20.1" style="fill:url(#Dégradé_sans_nom_668)"/><polygon points="286.93 410.94 542.69 558.6 542.69 263.29 286.93 410.94" style="fill:url(#Dégradé_sans_nom_664-5)"/><polygon points="286.93 410.94 542.69 558.6 542.69 263.29 286.93 410.94" style="fill:url(#Dégradé_sans_nom_664-10)"/><polygon points="286.93 410.94 542.69 558.6 542.69 263.29 286.93 410.94" style="fill:url(#Dégradé_sans_nom_664-11)"/><polygon points="121.48 506.47 542.69 749.65 542.69 263.29 121.48 506.47" style="fill:url(#Dégradé_sans_nom_664-2)"/><polygon points="393.31 349.53 542.69 435.77 542.69 263.29 393.31 349.53" style="fill:url(#Dégradé_sans_nom_686)"/><polygon points="542.69 263.29 393.31 177.04 393.31 349.53 542.69 263.29" style="fill:url(#Dégradé_sans_nom_686-2)"/><polygon points="542.69 435.77 692.06 349.53 542.69 263.29 542.69 435.77" style="fill:url(#Dégradé_sans_nom_686-3)"/><polygon points="542.69 90.8 393.31 177.04 542.69 263.29 542.69 90.8" style="fill:url(#Dégradé_sans_nom_686-4)"/><polygon points="692.06 349.53 692.06 177.04 542.69 263.29 692.06 349.53" style="fill:url(#Dégradé_sans_nom_686-5)"/><polygon points="692.06 177.04 542.69 90.8 542.69 263.29 692.06 177.04" style="fill:url(#Dégradé_sans_nom_686-6)"/><g style="opacity:0.54"><polygon points="542.69 511.71 374.29 608.93 542.69 706.16 542.69 511.71" style="fill:url(#Dégradé_sans_nom_664-13)"/><polygon points="542.69 511.71 374.29 608.93 542.69 706.16 542.69 511.71" style="fill:url(#Dégradé_sans_nom_664-14)"/><polygon points="542.69 385.91 265.34 546.04 542.69 706.16 542.69 385.91" style="fill:url(#Dégradé_sans_nom_674-2)"/><polygon points="711.09 608.93 542.69 511.71 542.69 706.16 711.09 608.93" style="fill:url(#Dégradé_sans_nom_664-13)"/><polygon points="711.09 608.93 542.69 511.71 542.69 706.16 711.09 608.93" style="fill:url(#Dégradé_sans_nom_664-16)"/><polygon points="711.09 608.93 542.69 511.71 542.69 706.16 711.09 608.93" style="fill:url(#Dégradé_sans_nom_664-17)"/><polygon points="820.03 546.04 542.69 385.91 542.69 706.16 820.03 546.04" style="fill:url(#Dégradé_sans_nom_664-18)"/></g><g style="opacity:0.54"><polygon points="542.69 -125.28 820.03 34.84 820.03 -285.4 542.69 -125.28" style="fill:url(#Dégradé_sans_nom_664-19)"/><polygon points="542.69 69.17 711.09 -28.05 542.69 -125.28 542.69 69.17" style="fill:url(#Dégradé_sans_nom_664-20)"/><polygon points="542.69 69.17 711.09 -28.05 542.69 -125.28 542.69 69.17" style="fill:url(#Dégradé_sans_nom_664-21)"/><polygon points="542.69 194.97 820.03 34.84 542.69 -125.28 542.69 194.97" style="fill:url(#Dégradé_sans_nom_674-3)"/><polygon points="265.34 -285.4 265.34 34.84 542.69 -125.28 265.34 -285.4" style="fill:url(#Dégradé_sans_nom_668-2)"/><polygon points="374.29 -28.05 542.69 69.17 542.69 -125.28 374.29 -28.05" style="fill:url(#Dégradé_sans_nom_664-20)"/><polygon points="374.29 -28.05 542.69 69.17 542.69 -125.28 374.29 -28.05" style="fill:url(#Dégradé_sans_nom_664-23)"/><polygon points="374.29 -28.05 542.69 69.17 542.69 -125.28 374.29 -28.05" style="fill:url(#Dégradé_sans_nom_664-24)"/><polygon points="265.34 34.84 542.69 194.97 542.69 -125.28 265.34 34.84" style="fill:url(#Dégradé_sans_nom_664-19)"/></g><rect x="-1.79" y="-281.12" width="1088.88" height="1088.87" style="fill:url(#Dégradé_sans_nom_1041)"/><g style="mix-blend-mode:multiply"><rect x="-1.79" y="-281.12" width="1088.88" height="1088.87" style="fill:url(#Dégradé_sans_nom_5)"/></g><rect x="337" y="-32.03" width="411.37" height="607.08" style="fill:url(#Dégradé_sans_nom_162)"/><rect x="422.11" y="-173.86" width="241.15" height="890.74" style="fill:url(#Dégradé_sans_nom_263)"/><polygon points="327.54 139.07 327.54 387.5 542.69 511.71 757.83 387.5 757.83 139.07 542.69 14.86 327.54 139.07" style="fill:none;stroke:#ededed;stroke-miterlimit:10;stroke-width:0.925990479710663px"/><polygon points="180.21 54.01 180.21 472.56 542.69 681.83 905.16 472.56 905.16 54.01 542.69 -155.26 180.21 54.01" style="fill:none;stroke:#ededed;stroke-miterlimit:10;stroke-width:0.231497619927666px"/><polygon points="410.78 187.13 410.78 339.44 542.69 415.6 674.6 339.44 674.6 187.13 542.69 110.97 410.78 187.13" style="fill:none;stroke:#ededed;stroke-miterlimit:10;stroke-width:2.77797143913199px"/><polygon points="740.69 148.97 542.69 34.65 542.69 263.29 740.69 148.97" style="fill:url(#Dégradé_sans_nom_239)"/><polygon points="542.69 263.29 740.69 377.6 740.69 148.97 542.69 263.29" style="fill:url(#Dégradé_sans_nom_239-2)"/><polygon points="542.69 491.92 740.69 377.6 542.69 263.29 542.69 491.92" style="fill:url(#Dégradé_sans_nom_239-3)"/><polygon points="542.69 491.92 740.69 377.6 542.69 263.29 542.69 491.92" style="fill:url(#Dégradé_sans_nom_239-4)"/><polygon points="542.69 34.65 344.68 148.97 542.69 263.29 542.69 34.65" style="fill:url(#Dégradé_sans_nom_239-5)"/><polygon points="344.68 148.97 344.68 377.6 542.69 263.29 344.68 148.97" style="fill:url(#Dégradé_sans_nom_239-6)"/><polygon points="344.68 377.6 542.69 491.92 542.69 263.29 344.68 377.6" style="fill:url(#Dégradé_sans_nom_239-7)"/><polygon points="56.66 257.98 56.66 268.59 65.84 273.89 75.03 268.59 75.03 257.98 65.84 252.68 56.66 257.98" style="fill:#ededed"/><path d="M69.38,242.08a3.54,3.54,0,1,0-4.69,3.33l1.15,5.5,1.16-5.5A3.53,3.53,0,0,0,69.38,242.08Z" style="fill:#ededed"/><path d="M62.31,284.49A3.54,3.54,0,1,0,67,281.16l-1.16-5.5-1.15,5.5A3.53,3.53,0,0,0,62.31,284.49Z" style="fill:#ededed"/><path d="M49.24,249.62a3.53,3.53,0,1,0,.55,5.73l5.34,1.75-4.19-3.75A3.53,3.53,0,0,0,49.24,249.62Z" style="fill:#ededed"/><path d="M82.44,277a3.54,3.54,0,1,0-.54-5.73l-5.34-1.75,4.18,3.75A3.54,3.54,0,0,0,82.44,277Z" style="fill:#ededed"/><path d="M82.44,249.62a3.54,3.54,0,1,1-.54,5.73l-5.34,1.75,4.18-3.75A3.54,3.54,0,0,1,82.44,249.62Z" style="fill:#ededed"/><path d="M49.24,277a3.53,3.53,0,1,1,.55-5.73l5.34-1.75-4.19,3.75A3.53,3.53,0,0,1,49.24,277Z" style="fill:#ededed"/><polygon points="1010.34 257.98 1010.34 268.59 1019.53 273.89 1028.71 268.59 1028.71 257.98 1019.53 252.68 1010.34 257.98" style="fill:#ededed"/><path d="M1023.06,242.08a3.54,3.54,0,1,0-4.69,3.33l1.16,5.5,1.15-5.5A3.51,3.51,0,0,0,1023.06,242.08Z" style="fill:#ededed"/><path d="M1016,284.49a3.54,3.54,0,1,0,4.69-3.33l-1.15-5.5-1.16,5.5A3.53,3.53,0,0,0,1016,284.49Z" style="fill:#ededed"/><path d="M1002.93,249.62a3.54,3.54,0,1,0,.54,5.73l5.34,1.75-4.18-3.75A3.53,3.53,0,0,0,1002.93,249.62Z" style="fill:#ededed"/><path d="M1036.13,277a3.53,3.53,0,1,0-.55-5.73l-5.34-1.75,4.19,3.75A3.53,3.53,0,0,0,1036.13,277Z" style="fill:#ededed"/><path d="M1036.13,249.62a3.53,3.53,0,1,1-.55,5.73l-5.34,1.75,4.19-3.75A3.53,3.53,0,0,1,1036.13,249.62Z" style="fill:#ededed"/><path d="M1002.93,277a3.54,3.54,0,1,1,.54-5.73l5.34-1.75-4.18,3.75A3.53,3.53,0,0,1,1002.93,277Z" style="fill:#ededed"/><path d="M483.36,475.94H447.71l-6.8,16.45h-18.2l34.22-76.77h17.54l34.33,76.77H490.15Zm-5.6-13.49-12.17-29.39-12.17,29.39Z" style="fill:#ededed"/><path d="M567.74,419a25.43,25.43,0,0,1,15.63,24.46,26.61,26.61,0,0,1-4.06,14.75,25.77,25.77,0,0,1-11.57,9.65A43.22,43.22,0,0,1,550,471.23H534.57v21.16H516.8V415.62H550A42.71,42.71,0,0,1,567.74,419Zm-6.52,34.28q4.17-3.46,4.17-9.82t-4.17-9.92q-4.17-3.46-12.17-3.46H534.57v26.65h14.48Q557,456.75,561.22,453.3Z" style="fill:#ededed"/><path d="M632.83,465.2v27.19H615.07V465l-29.72-49.36h18.86l20.51,34.11,20.51-34.11h17.43Z" style="fill:#ededed"/><polygon points="181.35 261.54 181.35 293.7 183.11 277.9 183.11 245.73 181.35 261.54" style="fill:url(#Dégradé_sans_nom_239-8)"/><polygon points="135.05 173.45 135.05 212.53 136.81 196.73 136.81 157.64 135.05 173.45" style="fill:url(#Dégradé_sans_nom_239-9)"/><path d="M787.58,254q5.86-8.42,5.86-25t-5.86-25a18.57,18.57,0,0,0-16.08-8.41q-9.93,0-15.94,8.56t-6,24.81q0,16.23,6,24.8t15.94,8.57A18.57,18.57,0,0,0,787.58,254Z" style="fill:none"/><path d="M914.3,294.91q-9.91,0-15.93,8.42t-6,24.95q0,16.53,6,25t15.93,8.42a18.5,18.5,0,0,0,16.09-8.57q5.86-8.56,5.86-24.8t-5.86-24.8A18.48,18.48,0,0,0,914.3,294.91Z" style="fill:none"/><polygon points="896.86 173.45 753.16 383.9 788.93 383.9 932.64 173.45 896.86 173.45" style="fill:url(#Dégradé_sans_nom_239-10)"/><polygon points="754.91 368.09 753.16 383.9 788.93 383.9 790.69 368.09 754.91 368.09" style="fill:url(#Dégradé_sans_nom_239-11)"/><polygon points="896.86 173.45 898.62 157.64 934.4 157.64 932.64 173.45 896.86 173.45" style="fill:url(#Dégradé_sans_nom_239-12)"/><polygon points="136.81 196.73 136.81 173.45 135.05 173.45 135.05 212.53 212.44 212.53 226.4 196.73 136.81 196.73" style="fill:url(#Dégradé_sans_nom_239-13)"/><path d="M205.35,277.9H183.11V259.55l-1.76,2V293.7H203.6q35.19,0,38.93,20.65a24.56,24.56,0,0,0,2.21-10.59Q244.74,277.9,205.35,277.9Z" style="fill:url(#Dégradé_sans_nom_239-14)"/><path d="M246.82,245.51,282.37,205V191.21l-45.75,52.12A103.5,103.5,0,0,1,246.82,245.51Z" style="fill:url(#Dégradé_sans_nom_239-15)"/><path d="M246.82,245.51,282.37,205l1.75-15.81-47.5,54.12A103.5,103.5,0,0,1,246.82,245.51Z" style="fill:url(#Dégradé_sans_nom_239-16)"/><path d="M284.12,337.58q-9.62,15.48-29.31,24.8t-48.25,9.32a165.45,165.45,0,0,1-43.75-5.86A117.76,117.76,0,0,1,131,352.3L124.53,365q15,10.82,36.53,16.68a165.39,165.39,0,0,0,43.74,5.87q28.56,0,48.25-9.32t29.32-24.81A62.87,62.87,0,0,0,292,319.56c0-.21,0-.42,0-.63A63,63,0,0,1,284.12,337.58Z" style="fill:url(#Dégradé_sans_nom_239-17)"/><polygon points="126.28 349.15 124.53 364.96 143.47 327.68 145.22 311.87 126.28 349.15" style="fill:url(#Dégradé_sans_nom_239-18)"/><path d="M277.25,279.72q14.53,15.88,14.72,39.21a64.34,64.34,0,0,0,1.77-15.17q0-23.75-14.73-39.84-11.88-13-32.19-18.41l-12,13.62Q262.52,263.65,277.25,279.72Z" style="fill:url(#Dégradé_sans_nom_239-19)"/><polygon points="282.37 191.21 284.12 189.21 284.12 157.64 136.81 157.64 136.81 173.45 282.37 173.45 282.37 191.21" style="fill:url(#Dégradé_sans_nom_239-20)"/><polygon points="282.37 173.45 282.37 205.01 284.12 189.21 284.12 157.64 282.37 173.45" style="fill:url(#Dégradé_sans_nom_239-21)"/><path d="M171.28,341.66a107.36,107.36,0,0,0,32.32,5q18.33,0,28.86-7.07t10.52-20a29.9,29.9,0,0,0-.45-5.21,23.11,23.11,0,0,1-8.31,9.4q-10.53,7.06-28.87,7.06a107,107,0,0,1-32.31-5,91.28,91.28,0,0,1-27.81-14l-18.94,37.28c1.5,1.09,3.07,2.13,4.67,3.15l12.51-24.62A91.84,91.84,0,0,0,171.28,341.66Z" style="fill:url(#Dégradé_sans_nom_239-22)"/><polygon points="212.44 212.53 183.11 245.73 183.11 259.55 224.64 212.53 212.44 212.53" style="fill:url(#Dégradé_sans_nom_239-23)"/><path d="M206.56,371.7q28.56,0,48.25-9.32t29.31-24.8A63,63,0,0,0,292,318.93q-.2-23.32-14.72-39.21-14.73-16.08-42.39-20.59l12-13.62a103.5,103.5,0,0,0-10.2-2.18l45.75-52.12V173.45H136.81v23.28H226.4l-14,15.8h12.2l-41.53,47V277.9h22.24q39.39,0,39.39,25.86a24.56,24.56,0,0,1-2.21,10.59,29.9,29.9,0,0,1,.45,5.21q0,12.93-10.52,20t-28.86,7.07a107.36,107.36,0,0,1-32.32-5,91.84,91.84,0,0,1-27.81-14L131,352.3a117.76,117.76,0,0,0,31.85,13.54A165.45,165.45,0,0,0,206.56,371.7Z" style="fill:url(#Dégradé_sans_nom_239-24)"/><path d="M206.56,371.7q28.56,0,48.25-9.32t29.31-24.8A63,63,0,0,0,292,318.93q-.2-23.32-14.72-39.21-14.73-16.08-42.39-20.59l12-13.62a103.5,103.5,0,0,0-10.2-2.18l45.75-52.12V173.45H136.81v23.28H226.4l-14,15.8h12.2l-41.53,47V277.9h22.24q39.39,0,39.39,25.86a24.56,24.56,0,0,1-2.21,10.59,29.9,29.9,0,0,1,.45,5.21q0,12.93-10.52,20t-28.86,7.07a107.36,107.36,0,0,1-32.32-5,91.84,91.84,0,0,1-27.81-14L131,352.3a117.76,117.76,0,0,0,31.85,13.54A165.45,165.45,0,0,0,206.56,371.7Z" style="fill:url(#Dégradé_sans_nom_239-25)"/><polygon points="226.4 196.73 212.44 212.53 224.64 212.53 226.4 196.73" style="fill:url(#Dégradé_sans_nom_239-26)"/><path d="M234.86,259.13l12-13.62c-3.24-.87-10.2-2.18-10.2-2.18Z" style="fill:url(#Dégradé_sans_nom_239-27)"/><path d="M376.57,314q11,16.53,29.91,16.53,19.25,0,30.22-16.53,6.23-9.39,8.91-24.59c.2-3.42.3-7,.3-10.72q0-34.56-11-51.11T404.73,211q-18.94,0-29.92,16.53-6.22,9.39-8.92,24.59c-.19,3.42-.3,7-.3,10.72Q365.59,297.45,376.57,314Z" style="fill:none"/><path d="M404.73,211q19.23,0,30.21,16.53t11,51.11c0,3.74-.1,7.3-.3,10.72a153,153,0,0,0,2.06-26.52q0-34.58-11-51.11t-30.22-16.54q-18.93,0-29.91,16.54-9.19,13.86-10.68,40.39,2.7-15.19,8.92-24.59Q385.79,211,404.73,211Z" style="fill:url(#Dégradé_sans_nom_239-28)"/><path d="M485.1,321.34q-11.58,24.51-32,37.43t-46.6,12.93q-26.14,0-46.6-12.93t-32-37.43q-11.57-24.49-11.57-58.47,0-5.85.35-11.42a167.49,167.49,0,0,0-2.11,27.22q0,34,11.58,58.48t32,37.43q20.43,12.93,46.6,12.93t46.6-12.93q20.43-12.93,32-37.43,9.59-20.28,11.23-47.06A117.61,117.61,0,0,1,485.1,321.34Z" style="fill:url(#Dégradé_sans_nom_239-29)"/><path d="M358.13,182.77q20.43-12.93,46.6-12.93t46.6,12.93q20.43,12.93,32,37.43t11.58,58.47c0,3.9-.12,7.7-.35,11.42a167.52,167.52,0,0,0,2.1-27.22q0-34-11.57-58.48t-32-37.43Q432.64,154,406.48,154T359.88,167q-20.44,12.93-32,37.43-9.57,20.3-11.22,47.06a117.5,117.5,0,0,1,9.47-31.25Q337.67,195.69,358.13,182.77Z" style="fill:url(#Dégradé_sans_nom_239-30)"/><path d="M374.81,329.78q11,16.55,29.92,16.54,19.23,0,30.21-16.54,9.19-13.84,10.67-40.39-2.69,15.19-8.91,24.59-11,16.53-30.22,16.53-18.93,0-29.91-16.53t-11-51.11c0-3.74.11-7.3.3-10.72a154,154,0,0,0-2.05,26.52Q363.84,313.25,374.81,329.78Z" style="fill:url(#Dégradé_sans_nom_239-31)"/><path d="M327.86,321.34q11.58,24.51,32,37.43t46.6,12.93q26.16,0,46.6-12.93t32-37.43a117.61,117.61,0,0,0,9.47-31.25c.23-3.72.35-7.52.35-11.42q0-34-11.58-58.47t-32-37.43q-20.46-12.93-46.6-12.93t-46.6,12.93q-20.46,12.93-32,37.43a117.5,117.5,0,0,0-9.47,31.25q-.34,5.56-.35,11.42Q316.29,296.84,327.86,321.34Zm48.71-109.58q11-16.53,29.91-16.54,19.25,0,30.22,16.54t11,51.11a153,153,0,0,1-2.06,26.52q-1.49,26.52-10.67,40.39-11,16.55-30.21,16.54-18.94,0-29.92-16.54t-11-51.11a154,154,0,0,1,2.05-26.52Q367.39,225.63,376.57,211.76Z" style="fill:url(#Dégradé_sans_nom_239-32)"/><path d="M327.86,321.34q11.58,24.51,32,37.43t46.6,12.93q26.16,0,46.6-12.93t32-37.43a117.61,117.61,0,0,0,9.47-31.25c.23-3.72.35-7.52.35-11.42q0-34-11.58-58.47t-32-37.43q-20.46-12.93-46.6-12.93t-46.6,12.93q-20.46,12.93-32,37.43a117.5,117.5,0,0,0-9.47,31.25q-.34,5.56-.35,11.42Q316.29,296.84,327.86,321.34Zm48.71-109.58q11-16.53,29.91-16.54,19.25,0,30.22,16.54t11,51.11a153,153,0,0,1-2.06,26.52q-1.49,26.52-10.67,40.39-11,16.55-30.21,16.54-18.94,0-29.92-16.54t-11-51.11a154,154,0,0,1,2.05-26.52Q367.39,225.63,376.57,211.76Z" style="fill:url(#Dégradé_sans_nom_239-33)"/><path d="M580.7,314q11,16.53,29.91,16.53,19.25,0,30.22-16.53,6.23-9.39,8.91-24.59c.2-3.42.3-7,.3-10.72q0-34.56-11-51.11T608.86,211q-18.95,0-29.92,16.53Q572.71,237,570,252.15c-.19,3.42-.3,7-.3,10.72Q569.72,297.45,580.7,314Z" style="fill:none"/><path d="M608.86,211q19.23,0,30.21,16.53t11,51.11c0,3.74-.1,7.3-.3,10.72a153,153,0,0,0,2.06-26.52q0-34.58-11-51.11t-30.22-16.54q-18.93,0-29.91,16.54-9.19,13.86-10.68,40.39,2.7-15.19,8.92-24.59Q589.92,211,608.86,211Z" style="fill:url(#Dégradé_sans_nom_239-34)"/><path d="M689.23,321.34q-11.58,24.51-32,37.43t-46.6,12.93q-26.15,0-46.6-12.93t-32-37.43q-11.58-24.49-11.58-58.47,0-5.85.35-11.42a167.49,167.49,0,0,0-2.11,27.22q0,34,11.58,58.48t32,37.43q20.43,12.93,46.6,12.93t46.6-12.93q20.43-12.93,32-37.43,9.59-20.28,11.23-47.06A117.61,117.61,0,0,1,689.23,321.34Z" style="fill:url(#Dégradé_sans_nom_239-35)"/><path d="M578.94,329.78q11,16.55,29.92,16.54,19.23,0,30.21-16.54,9.2-13.84,10.67-40.39-2.68,15.19-8.91,24.59-11,16.53-30.22,16.53-18.93,0-29.91-16.53t-11-51.11c0-3.74.11-7.3.3-10.72a154,154,0,0,0-2,26.52Q568,313.25,578.94,329.78Z" style="fill:url(#Dégradé_sans_nom_239-36)"/><path d="M562.26,182.77q20.43-12.93,46.6-12.93t46.6,12.93q20.43,12.93,32,37.43t11.58,58.47c0,3.9-.12,7.7-.35,11.42a167.52,167.52,0,0,0,2.1-27.22q0-34-11.57-58.48t-32-37.43Q636.77,154,610.61,154T564,167q-20.44,12.93-32,37.43-9.59,20.3-11.23,47.06a117.5,117.5,0,0,1,9.47-31.25Q541.81,195.69,562.26,182.77Z" style="fill:url(#Dégradé_sans_nom_239-37)"/><path d="M532,321.34q11.57,24.51,32,37.43t46.6,12.93q26.16,0,46.6-12.93t32-37.43a117.61,117.61,0,0,0,9.47-31.25c.23-3.72.35-7.52.35-11.42q0-34-11.58-58.47t-32-37.43q-20.46-12.93-46.6-12.93t-46.6,12.93q-20.46,12.93-32,37.43a117.5,117.5,0,0,0-9.47,31.25q-.35,5.56-.35,11.42Q520.42,296.84,532,321.34Zm48.7-109.58q11-16.53,29.91-16.54,19.25,0,30.22,16.54t11,51.11a153,153,0,0,1-2.06,26.52q-1.49,26.52-10.67,40.39-11,16.55-30.21,16.54-18.95,0-29.92-16.54t-11-51.11a154,154,0,0,1,2-26.52Q571.52,225.63,580.7,211.76Z" style="fill:url(#Dégradé_sans_nom_239-38)"/><path d="M532,321.34q11.57,24.51,32,37.43t46.6,12.93q26.16,0,46.6-12.93t32-37.43a117.61,117.61,0,0,0,9.47-31.25c.23-3.72.35-7.52.35-11.42q0-34-11.58-58.47t-32-37.43q-20.46-12.93-46.6-12.93t-46.6,12.93q-20.46,12.93-32,37.43a117.5,117.5,0,0,0-9.47,31.25q-.35,5.56-.35,11.42Q520.42,296.84,532,321.34Zm48.7-109.58q11-16.53,29.91-16.54,19.25,0,30.22,16.54t11,51.11a153,153,0,0,1-2.06,26.52q-1.49,26.52-10.67,40.39-11,16.55-30.21,16.54-18.95,0-29.92-16.54t-11-51.11a154,154,0,0,1,2-26.52Q571.52,225.63,580.7,211.76Z" style="fill:url(#Dégradé_sans_nom_239-39)"/><path d="M789.34,238.22q5.86-8.41,5.86-25t-5.86-24.95a18.58,18.58,0,0,0-16.09-8.42q-9.91,0-15.93,8.57t-6,24.8q0,16.25,6,24.8t15.93,8.57A18.57,18.57,0,0,0,789.34,238.22Z" style="fill:none"/><path d="M916.06,279.1q-9.93,0-15.94,8.42t-6,25q0,16.53,6,24.95t15.94,8.42a18.48,18.48,0,0,0,16.08-8.57q5.86-8.56,5.87-24.8t-5.87-24.81A18.48,18.48,0,0,0,916.06,279.1Z" style="fill:none"/><path d="M773.25,246.63a18.57,18.57,0,0,0,16.09-8.41,29.33,29.33,0,0,0,4.1-9.3q0-16.42-5.86-24.81a18.57,18.57,0,0,0-16.08-8.41q-9.93,0-15.94,8.56a30.16,30.16,0,0,0-4.25,9.5q.09,15.86,6,24.3T773.25,246.63Z" style="fill:none"/><path d="M810.83,255.5q-14.43,15.79-37.58,15.79T735.52,255.5q-14.58-15.78-14.58-42.24c0-.44,0-.87,0-1.3a78.21,78.21,0,0,0-1.78,17.11q0,26.46,14.58,42.24t37.73,15.78q23.14,0,37.58-15.78,14-15.36,14.4-40.85A53.39,53.39,0,0,1,810.83,255.5Z" style="fill:url(#Dégradé_sans_nom_239-40)"/><path d="M771.5,195.7a18.57,18.57,0,0,1,16.08,8.41q5.83,8.38,5.86,24.81a61.56,61.56,0,0,0,1.76-15.66q0-16.53-5.86-24.95a18.58,18.58,0,0,0-16.09-8.42q-9.91,0-15.93,8.57t-6,24.8v.5a30.16,30.16,0,0,1,4.25-9.5Q761.58,195.7,771.5,195.7Z" style="fill:url(#Dégradé_sans_nom_239-41)"/><path d="M771.5,171q23.14,0,37.58,15.79t14.43,42.24c0,.47,0,.92,0,1.39a79.05,79.05,0,0,0,1.78-17.2q0-26.44-14.43-42.24t-37.58-15.78q-23.14,0-37.73,15.78Q721.3,186.41,721,212a53.28,53.28,0,0,1,12.8-25.13Q748.35,171,771.5,171Z" style="fill:url(#Dégradé_sans_nom_239-42)"/><path d="M755.56,253.87q6,8.56,15.94,8.57A18.57,18.57,0,0,0,787.58,254q5.86-8.42,5.86-25v-.15a29.33,29.33,0,0,1-4.1,9.3,18.57,18.57,0,0,1-16.09,8.41q-9.91,0-15.93-8.57t-6-24.3a59.35,59.35,0,0,0-1.76,15.31Q749.55,245.3,755.56,253.87Z" style="fill:url(#Dégradé_sans_nom_239-43)"/><path d="M735.52,255.5q14.58,15.79,37.73,15.79t37.58-15.79a53.39,53.39,0,0,0,12.65-25c0-.47,0-.92,0-1.39q0-26.46-14.43-42.24T771.5,171q-23.16,0-37.73,15.79A53.28,53.28,0,0,0,721,212c0,.43,0,.86,0,1.3Q720.94,239.72,735.52,255.5Zm15.79-42.24q0-16.23,6-24.8t15.93-8.57a18.58,18.58,0,0,1,16.09,8.42q5.86,8.41,5.86,24.95a61.56,61.56,0,0,1-1.76,15.66v.15q0,16.53-5.86,25a18.57,18.57,0,0,1-16.08,8.42q-9.93,0-15.94-8.57t-6-24.8a59.35,59.35,0,0,1,1.76-15.31Z" style="fill:url(#Dégradé_sans_nom_239-44)"/><path d="M735.52,255.5q14.58,15.79,37.73,15.79t37.58-15.79a53.39,53.39,0,0,0,12.65-25c0-.47,0-.92,0-1.39q0-26.46-14.43-42.24T771.5,171q-23.16,0-37.73,15.79A53.28,53.28,0,0,0,721,212c0,.43,0,.86,0,1.3Q720.94,239.72,735.52,255.5Zm15.79-42.24q0-16.23,6-24.8t15.93-8.57a18.58,18.58,0,0,1,16.09,8.42q5.86,8.41,5.86,24.95a61.56,61.56,0,0,1-1.76,15.66v.15q0,16.53-5.86,25a18.57,18.57,0,0,1-16.08,8.42q-9.93,0-15.94-8.57t-6-24.8a59.35,59.35,0,0,1,1.76-15.31Z" style="fill:url(#Dégradé_sans_nom_239-45)"/><path d="M916.06,345.85a18.48,18.48,0,0,0,16.08-8.57,30.2,30.2,0,0,0,4.11-9.34q-.07-16-5.86-24.46a18.48,18.48,0,0,0-16.09-8.57q-9.91,0-15.93,8.42a28.81,28.81,0,0,0-4.25,9.46q0,16.31,6,24.64T916.06,345.85Z" style="fill:none"/><path d="M914.3,294.91a18.48,18.48,0,0,1,16.09,8.57q5.79,8.47,5.86,24.46A60.41,60.41,0,0,0,938,312.48q0-16.25-5.87-24.81a18.48,18.48,0,0,0-16.08-8.57q-9.93,0-15.94,8.42t-6,25c0,.1,0,.2,0,.31a28.81,28.81,0,0,1,4.25-9.46Q904.39,294.92,914.3,294.91Z" style="fill:url(#Dégradé_sans_nom_239-46)"/><path d="M953.79,354.72q-14.6,15.78-37.73,15.78a51.61,51.61,0,0,1-26.91-7.07,47.77,47.77,0,0,1-18.49-20.29q-6.61-13.23-6.61-30.66c0-.37,0-.72,0-1.08a76.89,76.89,0,0,0-1.77,16.88q0,17.45,6.61,30.66a47.76,47.76,0,0,0,18.5,20.3,51.57,51.57,0,0,0,26.9,7.06q23.15,0,37.73-15.78,14.22-15.39,14.56-40.94A53.36,53.36,0,0,1,953.79,354.72Z" style="fill:url(#Dégradé_sans_nom_239-47)"/><path d="M887.4,277.32a51.57,51.57,0,0,1,26.9-7.06q23.15,0,37.73,15.78t14.58,42.24c0,.44,0,.86,0,1.3a78.19,78.19,0,0,0,1.78-17.1q0-26.46-14.58-42.25t-37.73-15.78a51.61,51.61,0,0,0-26.91,7.07,47.83,47.83,0,0,0-18.49,20.29q-6.4,12.82-6.6,29.59a60.18,60.18,0,0,1,4.84-13.79A47.85,47.85,0,0,1,887.4,277.32Z" style="fill:url(#Dégradé_sans_nom_239-48)"/><path d="M898.37,353.23q6,8.43,15.93,8.42a18.5,18.5,0,0,0,16.09-8.57q5.86-8.56,5.86-24.8v-.34a30.2,30.2,0,0,1-4.11,9.34,18.48,18.48,0,0,1-16.08,8.57q-9.93,0-15.94-8.42t-6-24.64a60.33,60.33,0,0,0-1.76,15.49Q892.36,344.81,898.37,353.23Z" style="fill:url(#Dégradé_sans_nom_239-49)"/><path d="M870.66,343.14a47.77,47.77,0,0,0,18.49,20.29,51.61,51.61,0,0,0,26.91,7.07q23.15,0,37.73-15.78a53.36,53.36,0,0,0,12.8-25.14c0-.44,0-.86,0-1.3q0-26.44-14.58-42.24T914.3,270.26a51.57,51.57,0,0,0-26.9,7.06,47.85,47.85,0,0,0-18.5,20.29,60.18,60.18,0,0,0-4.84,13.79c0,.36,0,.71,0,1.08Q864.05,329.91,870.66,343.14Zm23.45-30.66q0-16.55,6-25t15.94-8.42a18.48,18.48,0,0,1,16.08,8.57q5.86,8.56,5.87,24.81a60.41,60.41,0,0,1-1.76,15.46v.34q0,16.23-5.86,24.8a18.5,18.5,0,0,1-16.09,8.57q-9.91,0-15.93-8.42t-6-25a60.33,60.33,0,0,1,1.76-15.49C894.11,312.68,894.11,312.58,894.11,312.48Z" style="fill:url(#Dégradé_sans_nom_239-50)"/><path d="M870.66,343.14a47.77,47.77,0,0,0,18.49,20.29,51.61,51.61,0,0,0,26.91,7.07q23.15,0,37.73-15.78a53.36,53.36,0,0,0,12.8-25.14c0-.44,0-.86,0-1.3q0-26.44-14.58-42.24T914.3,270.26a51.57,51.57,0,0,0-26.9,7.06,47.85,47.85,0,0,0-18.5,20.29,60.18,60.18,0,0,0-4.84,13.79c0,.36,0,.71,0,1.08Q864.05,329.91,870.66,343.14Zm23.45-30.66q0-16.55,6-25t15.94-8.42a18.48,18.48,0,0,1,16.08,8.57q5.86,8.56,5.87,24.81a60.41,60.41,0,0,1-1.76,15.46v.34q0,16.23-5.86,24.8a18.5,18.5,0,0,1-16.09,8.57q-9.91,0-15.93-8.42t-6-25a60.33,60.33,0,0,1,1.76-15.49C894.11,312.68,894.11,312.58,894.11,312.48Z" style="fill:url(#Dégradé_sans_nom_239-51)"/><polygon points="898.62 157.64 754.91 368.09 790.69 368.09 934.4 157.64 898.62 157.64" style="fill:url(#Dégradé_sans_nom_239-52)"/><path d="M479.65,104.61q-3.6-3.56-3.59-10.18V77.58h7V94.17q0,8.08,6.7,8.08a6.31,6.31,0,0,0,5-2c1.14-1.31,1.72-3.35,1.72-6.13V77.58h6.87V94.43q0,6.61-3.59,10.18t-10,3.57Q483.23,108.18,479.65,104.61Z" style="fill:#fff"/><path d="M530.14,78.92a10.78,10.78,0,0,1,4.53,15.36,10.09,10.09,0,0,1-4.53,3.78,17,17,0,0,1-6.94,1.31h-6.06v8.3h-7V77.58h13A16.68,16.68,0,0,1,530.14,78.92Zm-2.56,13.43a5.41,5.41,0,0,0,0-7.74,7.33,7.33,0,0,0-4.77-1.35h-5.67V93.7h5.67A7.33,7.33,0,0,0,527.58,92.35Z" style="fill:#fff"/><path d="M560,83.26H550.4V77.58h26.21v5.68H567v24.41h-7Z" style="fill:#fff"/><path d="M586,106.16a15,15,0,0,1-5.88-5.56,16,16,0,0,1,0-15.95A15,15,0,0,1,586,79.09a18.62,18.62,0,0,1,16.87,0,15.33,15.33,0,0,1,0,27.07,18.62,18.62,0,0,1-16.87,0ZM599.3,101a8.79,8.79,0,0,0,3.37-3.42,10.72,10.72,0,0,0,0-10,8.79,8.79,0,0,0-3.37-3.42,10.09,10.09,0,0,0-9.62,0,8.82,8.82,0,0,0-3.38,3.42,10.79,10.79,0,0,0,0,10,8.82,8.82,0,0,0,3.38,3.42,10.09,10.09,0,0,0,9.62,0Z" style="fill:#fff"/><g style="mix-blend-mode:multiply"><path d="M278.87,264.34q14.73,16.08,14.74,39.83A62.85,62.85,0,0,1,284,338q-9.62,15.48-29.31,24.8t-48.25,9.32a165.73,165.73,0,0,1-43.74-5.86q-21.51-5.86-36.53-16.69l18.94-37.28a91.73,91.73,0,0,0,27.81,14,107,107,0,0,0,32.32,5q18.33,0,28.86-7.06t10.52-20q0-25.85-39.38-25.85H183V246.15l43.29-49H136.67V158.06H284v31.57l-47.5,54.11Q264.14,248.26,278.87,264.34Z" style="fill:url(#Dégradé_sans_nom_394)"/><path d="M359.75,359.19q-20.46-12.92-32-37.43t-11.58-58.47q0-34,11.58-58.48t32-37.43q20.43-12.91,46.59-12.93t46.6,12.93q20.44,12.93,32,37.43t11.58,58.48q0,34-11.58,58.47t-32,37.43q-20.44,12.93-46.6,12.93T359.75,359.19Zm76.81-44.8q11-16.53,11-51.1t-11-51.11q-11-16.53-30.22-16.54-18.93,0-29.91,16.54t-11,51.11q0,34.57,11,51.1t29.91,16.54Q425.59,330.93,436.56,314.39Z" style="fill:url(#Dégradé_sans_nom_394-2)"/><path d="M563.88,359.19q-20.46-12.92-32-37.43t-11.58-58.47q0-34,11.58-58.48t32-37.43q20.43-12.91,46.6-12.93t46.59,12.93q20.45,12.93,32,37.43t11.58,58.48q0,34-11.58,58.47t-32,37.43q-20.45,12.93-46.59,12.93T563.88,359.19Zm76.81-44.8q11-16.53,11-51.1t-11-51.11q-11-16.53-30.21-16.54-18.94,0-29.92,16.54t-11,51.11q0,34.57,11,51.1t29.92,16.54Q629.71,330.93,640.69,314.39Z" style="fill:url(#Dégradé_sans_nom_394-3)"/><path d="M735.39,255.92q-14.6-15.78-14.58-42.24t14.58-42.24q14.58-15.78,37.73-15.79t37.58,15.79q14.43,15.78,14.43,42.24T810.7,255.92q-14.43,15.78-37.58,15.78T735.39,255.92Zm53.81-17.29q5.87-8.41,5.86-24.95t-5.86-25a18.57,18.57,0,0,0-16.08-8.42q-9.93,0-15.94,8.57t-6,24.8q0,16.23,6,24.8t15.94,8.57A18.55,18.55,0,0,0,789.2,238.63Zm109.28-80.57h35.78L790.55,368.51H754.78ZM889,363.85a47.83,47.83,0,0,1-18.49-20.29q-6.62-13.23-6.61-30.67t6.61-30.66A47.86,47.86,0,0,1,889,261.93a51.72,51.72,0,0,1,26.91-7.06q23.15,0,37.73,15.78t14.58,42.24q0,26.46-14.58,42.24t-37.73,15.79A51.64,51.64,0,0,1,889,363.85Zm43-26.15q5.87-8.58,5.87-24.81T932,288.09a18.47,18.47,0,0,0-16.08-8.57q-9.92,0-15.93,8.42t-6,24.95q0,16.55,6,25t15.93,8.41A18.46,18.46,0,0,0,932,337.7Z" style="fill:url(#Dégradé_sans_nom_394-4)"/></g><g style="mix-blend-mode:color-burn"><polygon points="136.81 191.59 136.81 168.32 135.05 168.32 135.05 207.4 212.44 207.4 226.4 191.59 136.81 191.59" style="fill:url(#Dégradé_sans_nom_372)"/><path d="M205.35,272.77H183.11V254.42l-1.76,2v32.17H203.6q35.19,0,38.93,20.65a24.57,24.57,0,0,0,2.21-10.6Q244.74,272.77,205.35,272.77Z" style="fill:url(#Dégradé_sans_nom_372-2)"/><path d="M246.82,240.37l35.55-40.49v-13.8l-45.75,52.11Q242,239.08,246.82,240.37Z" style="fill:url(#Dégradé_sans_nom_372-3)"/><path d="M246.82,240.37l35.55-40.49,1.75-15.8-47.5,54.11Q242,239.08,246.82,240.37Z" style="fill:url(#Dégradé_sans_nom_372-4)"/><path d="M284.12,332.45q-9.62,15.48-29.31,24.8t-48.25,9.32a165.45,165.45,0,0,1-43.75-5.86A117.45,117.45,0,0,1,131,347.16l-6.43,12.67q15,10.82,36.53,16.68a165.38,165.38,0,0,0,43.74,5.86q28.56,0,48.25-9.32t29.32-24.8A62.87,62.87,0,0,0,292,314.43c0-.21,0-.42,0-.63A63.12,63.12,0,0,1,284.12,332.45Z" style="fill:url(#Dégradé_sans_nom_372-5)"/><polygon points="126.28 344.02 124.53 359.83 143.47 322.55 145.22 306.74 126.28 344.02" style="fill:url(#Dégradé_sans_nom_372-6)"/><path d="M277.25,274.59Q291.78,290.48,292,313.8a64.36,64.36,0,0,0,1.77-15.18q0-23.75-14.73-39.83-11.88-13-32.19-18.42l-12,13.63Q262.52,258.52,277.25,274.59Z" style="fill:url(#Dégradé_sans_nom_372-7)"/><polygon points="282.37 186.08 284.12 184.08 284.12 152.51 136.81 152.51 136.81 168.32 282.37 168.32 282.37 186.08" style="fill:url(#Dégradé_sans_nom_372-8)"/><polygon points="282.37 168.32 282.37 199.88 284.12 184.08 284.12 152.51 282.37 168.32" style="fill:url(#Dégradé_sans_nom_372-9)"/><path d="M171.28,336.53a107.36,107.36,0,0,0,32.32,5q18.33,0,28.86-7.07t10.52-20a29.82,29.82,0,0,0-.45-5.21,23.18,23.18,0,0,1-8.31,9.4q-10.53,7.06-28.87,7.06a107,107,0,0,1-32.31-5,91.73,91.73,0,0,1-27.81-14L126.29,344c1.5,1.09,3.07,2.13,4.67,3.14l12.51-24.61A91.84,91.84,0,0,0,171.28,336.53Z" style="fill:url(#Dégradé_sans_nom_372-10)"/><polygon points="212.44 207.4 183.11 240.6 183.11 254.42 224.64 207.4 212.44 207.4" style="fill:url(#Dégradé_sans_nom_372-11)"/><path d="M206.56,366.57q28.56,0,48.25-9.32t29.31-24.8A63.12,63.12,0,0,0,292,313.8q-.2-23.32-14.72-39.21Q262.52,258.51,234.86,254l12-13.63q-4.86-1.31-10.2-2.18l45.75-52.11V168.32H136.81v23.27H226.4l-14,15.81h12.2l-41.53,47v18.35h22.24q39.39,0,39.39,25.85a24.57,24.57,0,0,1-2.21,10.6,29.82,29.82,0,0,1,.45,5.21q0,12.93-10.52,20t-28.86,7.07a107.36,107.36,0,0,1-32.32-5,91.84,91.84,0,0,1-27.81-14L131,347.16a117.45,117.45,0,0,0,31.85,13.55A165.45,165.45,0,0,0,206.56,366.57Z" style="fill:url(#Dégradé_sans_nom_372-12)"/><path d="M206.56,366.57q28.56,0,48.25-9.32t29.31-24.8A63.12,63.12,0,0,0,292,313.8q-.2-23.32-14.72-39.21Q262.52,258.51,234.86,254l12-13.63q-4.86-1.31-10.2-2.18l45.75-52.11V168.32H136.81v23.27H226.4l-14,15.81h12.2l-41.53,47v18.35h22.24q39.39,0,39.39,25.85a24.57,24.57,0,0,1-2.21,10.6,29.82,29.82,0,0,1,.45,5.21q0,12.93-10.52,20t-28.86,7.07a107.36,107.36,0,0,1-32.32-5,91.84,91.84,0,0,1-27.81-14L131,347.16a117.45,117.45,0,0,0,31.85,13.55A165.45,165.45,0,0,0,206.56,366.57Z" style="fill:url(#Dégradé_sans_nom_372-13)"/><polygon points="226.4 191.59 212.44 207.4 224.64 207.4 226.4 191.59" style="fill:url(#Dégradé_sans_nom_372-14)"/><path d="M234.86,254l12-13.63c-3.24-.87-10.2-2.18-10.2-2.18Z" style="fill:url(#Dégradé_sans_nom_372-15)"/><path d="M404.73,205.9q19.23,0,30.21,16.53t11,51.11c0,3.74-.1,7.3-.3,10.72a153,153,0,0,0,2.06-26.52q0-34.58-11-51.11t-30.22-16.54q-18.93,0-29.91,16.54-9.19,13.85-10.68,40.39,2.7-15.2,8.92-24.59Q385.79,205.9,404.73,205.9Z" style="fill:url(#Dégradé_sans_nom_372-16)"/><path d="M485.1,316.21q-11.58,24.51-32,37.43t-46.6,12.93q-26.14,0-46.6-12.93t-32-37.43q-11.57-24.49-11.57-58.47c0-3.91.12-7.71.35-11.43a167.71,167.71,0,0,0-2.11,27.23q0,34,11.58,58.48t32,37.43q20.43,12.93,46.6,12.92t46.6-12.92q20.43-12.93,32-37.43,9.59-20.28,11.23-47.07A117.57,117.57,0,0,1,485.1,316.21Z" style="fill:url(#Dégradé_sans_nom_372-17)"/><path d="M358.13,177.64q20.43-12.93,46.6-12.93t46.6,12.93q20.43,12.92,32,37.43t11.58,58.47q0,5.85-.35,11.41a167.49,167.49,0,0,0,2.1-27.21q0-34-11.57-58.48t-32-37.43q-20.44-12.92-46.6-12.93t-46.6,12.93q-20.44,12.93-32,37.43-9.57,20.28-11.22,47.05a117.54,117.54,0,0,1,9.47-31.24Q337.67,190.56,358.13,177.64Z" style="fill:url(#Dégradé_sans_nom_372-18)"/><path d="M374.81,324.65q11,16.55,29.92,16.54,19.23,0,30.21-16.54,9.19-13.84,10.67-40.39-2.69,15.19-8.91,24.59-11,16.53-30.22,16.53-18.93,0-29.91-16.53t-11-51.11c0-3.74.11-7.3.3-10.72a153.93,153.93,0,0,0-2.05,26.52Q363.84,308.11,374.81,324.65Z" style="fill:url(#Dégradé_sans_nom_373)"/><path d="M327.86,316.21q11.58,24.51,32,37.43t46.6,12.93q26.16,0,46.6-12.93t32-37.43A117.57,117.57,0,0,0,494.57,285q.35-5.56.35-11.41,0-34-11.58-58.47t-32-37.43q-20.46-12.93-46.6-12.93t-46.6,12.93q-20.46,12.92-32,37.43a117.54,117.54,0,0,0-9.47,31.24c-.23,3.72-.35,7.52-.35,11.43Q316.29,291.71,327.86,316.21Zm48.71-109.58q11-16.53,29.91-16.54,19.25,0,30.22,16.54t11,51.11a153,153,0,0,1-2.06,26.52q-1.49,26.52-10.67,40.39-11,16.55-30.21,16.54-18.94,0-29.92-16.54t-11-51.11A153.93,153.93,0,0,1,365.89,247Q367.39,220.5,376.57,206.63Z" style="fill:url(#Dégradé_sans_nom_372-19)"/><path d="M327.86,316.21q11.58,24.51,32,37.43t46.6,12.93q26.16,0,46.6-12.93t32-37.43A117.57,117.57,0,0,0,494.57,285q.35-5.56.35-11.41,0-34-11.58-58.47t-32-37.43q-20.46-12.93-46.6-12.93t-46.6,12.93q-20.46,12.92-32,37.43a117.54,117.54,0,0,0-9.47,31.24c-.23,3.72-.35,7.52-.35,11.43Q316.29,291.71,327.86,316.21Zm48.71-109.58q11-16.53,29.91-16.54,19.25,0,30.22,16.54t11,51.11a153,153,0,0,1-2.06,26.52q-1.49,26.52-10.67,40.39-11,16.55-30.21,16.54-18.94,0-29.92-16.54t-11-51.11A153.93,153.93,0,0,1,365.89,247Q367.39,220.5,376.57,206.63Z" style="fill:url(#Dégradé_sans_nom_372-20)"/><path d="M608.86,205.9q19.23,0,30.21,16.53t11,51.11c0,3.74-.1,7.3-.3,10.72a153,153,0,0,0,2.06-26.52q0-34.58-11-51.11t-30.22-16.54q-18.93,0-29.91,16.54Q571.51,220.48,570,247q2.7-15.2,8.92-24.59Q589.92,205.9,608.86,205.9Z" style="fill:url(#Dégradé_sans_nom_372-21)"/><path d="M689.23,316.21q-11.58,24.51-32,37.43t-46.6,12.93q-26.15,0-46.6-12.93t-32-37.43q-11.58-24.49-11.58-58.47c0-3.91.12-7.71.35-11.43a167.71,167.71,0,0,0-2.11,27.23q0,34,11.58,58.48t32,37.43q20.43,12.93,46.6,12.92t46.6-12.92q20.43-12.93,32-37.43,9.59-20.28,11.23-47.07A117.57,117.57,0,0,1,689.23,316.21Z" style="fill:url(#Dégradé_sans_nom_372-22)"/><path d="M578.94,324.65q11,16.55,29.92,16.54,19.23,0,30.21-16.54,9.2-13.84,10.67-40.39-2.68,15.19-8.91,24.59-11,16.53-30.22,16.53-18.93,0-29.91-16.53t-11-51.11c0-3.74.11-7.3.3-10.72a153.93,153.93,0,0,0-2,26.52Q568,308.11,578.94,324.65Z" style="fill:url(#Dégradé_sans_nom_372-23)"/><path d="M562.26,177.64q20.43-12.93,46.6-12.93t46.6,12.93q20.43,12.92,32,37.43t11.58,58.47q0,5.85-.35,11.41a167.49,167.49,0,0,0,2.1-27.21q0-34-11.57-58.48t-32-37.43q-20.44-12.92-46.6-12.93T564,161.83q-20.44,12.93-32,37.43-9.59,20.28-11.23,47.05a117.54,117.54,0,0,1,9.47-31.24Q541.81,190.56,562.26,177.64Z" style="fill:url(#Dégradé_sans_nom_372-24)"/><path d="M532,316.21q11.57,24.51,32,37.43t46.6,12.93q26.16,0,46.6-12.93t32-37.43A117.57,117.57,0,0,0,698.7,285q.34-5.56.35-11.41,0-34-11.58-58.47t-32-37.43q-20.46-12.93-46.6-12.93t-46.6,12.93q-20.46,12.92-32,37.43a117.54,117.54,0,0,0-9.47,31.24c-.23,3.72-.35,7.52-.35,11.43Q520.42,291.71,532,316.21Zm48.7-109.58q11-16.53,29.91-16.54,19.25,0,30.22,16.54t11,51.11a153,153,0,0,1-2.06,26.52q-1.49,26.52-10.67,40.39-11,16.55-30.21,16.54-18.95,0-29.92-16.54t-11-51.11A153.93,153.93,0,0,1,570,247Q571.52,220.5,580.7,206.63Z" style="fill:url(#Dégradé_sans_nom_372-25)"/><path d="M532,316.21q11.57,24.51,32,37.43t46.6,12.93q26.16,0,46.6-12.93t32-37.43A117.57,117.57,0,0,0,698.7,285q.34-5.56.35-11.41,0-34-11.58-58.47t-32-37.43q-20.46-12.93-46.6-12.93t-46.6,12.93q-20.46,12.92-32,37.43a117.54,117.54,0,0,0-9.47,31.24c-.23,3.72-.35,7.52-.35,11.43Q520.42,291.71,532,316.21Zm48.7-109.58q11-16.53,29.91-16.54,19.25,0,30.22,16.54t11,51.11a153,153,0,0,1-2.06,26.52q-1.49,26.52-10.67,40.39-11,16.55-30.21,16.54-18.95,0-29.92-16.54t-11-51.11A153.93,153.93,0,0,1,570,247Q571.52,220.5,580.7,206.63Z" style="fill:url(#Dégradé_sans_nom_372-25)"/><path d="M810.83,250.37q-14.43,15.78-37.58,15.78t-37.73-15.78q-14.58-15.78-14.58-42.24c0-.44,0-.87,0-1.31a78.37,78.37,0,0,0-1.78,17.12q0,26.44,14.58,42.24T771.5,282q23.14,0,37.58-15.78,14-15.37,14.4-40.85A53.39,53.39,0,0,1,810.83,250.37Z" style="fill:url(#Dégradé_sans_nom_372-27)"/><path d="M771.5,190.56A18.57,18.57,0,0,1,787.58,199q5.83,8.39,5.86,24.81a61.56,61.56,0,0,0,1.76-15.66q0-16.53-5.86-24.95a18.58,18.58,0,0,0-16.09-8.42q-9.91,0-15.93,8.57t-6,24.8v.5a30,30,0,0,1,4.25-9.5Q761.58,190.57,771.5,190.56Z" style="fill:url(#Dégradé_sans_nom_372-28)"/><path d="M771.5,165.91q23.14,0,37.58,15.78t14.43,42.25c0,.47,0,.92,0,1.39a79.05,79.05,0,0,0,1.78-17.2q0-26.44-14.43-42.24t-37.58-15.78q-23.14,0-37.73,15.78Q721.3,181.28,721,206.82a53.32,53.32,0,0,1,12.8-25.13Q748.35,165.91,771.5,165.91Z" style="fill:url(#Dégradé_sans_nom_372-29)"/><path d="M755.56,248.74q6,8.56,15.94,8.57a18.57,18.57,0,0,0,16.08-8.42q5.86-8.41,5.86-24.95v-.15a29.27,29.27,0,0,1-4.1,9.29,18.56,18.56,0,0,1-16.09,8.42q-9.91,0-15.93-8.57t-6-24.3a59.3,59.3,0,0,0-1.76,15.31Q749.55,240.17,755.56,248.74Z" style="fill:url(#Dégradé_sans_nom_372-30)"/><path d="M735.52,250.37q14.58,15.78,37.73,15.78t37.58-15.78a53.39,53.39,0,0,0,12.65-25c0-.47,0-.92,0-1.39q0-26.46-14.43-42.25T771.5,165.91q-23.16,0-37.73,15.78A53.32,53.32,0,0,0,721,206.82c0,.44,0,.87,0,1.31Q720.94,234.59,735.52,250.37Zm15.79-42.24q0-16.23,6-24.8t15.93-8.57a18.58,18.58,0,0,1,16.09,8.42q5.86,8.41,5.86,24.95a61.56,61.56,0,0,1-1.76,15.66v.15q0,16.53-5.86,24.95a18.57,18.57,0,0,1-16.08,8.42q-9.93,0-15.94-8.57t-6-24.8a59.3,59.3,0,0,1,1.76-15.31Z" style="fill:url(#Dégradé_sans_nom_372-31)"/><path d="M735.52,250.37q14.58,15.78,37.73,15.78t37.58-15.78a53.39,53.39,0,0,0,12.65-25c0-.47,0-.92,0-1.39q0-26.46-14.43-42.25T771.5,165.91q-23.16,0-37.73,15.78A53.32,53.32,0,0,0,721,206.82c0,.44,0,.87,0,1.31Q720.94,234.59,735.52,250.37Zm15.79-42.24q0-16.23,6-24.8t15.93-8.57a18.58,18.58,0,0,1,16.09,8.42q5.86,8.41,5.86,24.95a61.56,61.56,0,0,1-1.76,15.66v.15q0,16.53-5.86,24.95a18.57,18.57,0,0,1-16.08,8.42q-9.93,0-15.94-8.57t-6-24.8a59.3,59.3,0,0,1,1.76-15.31Z" style="fill:url(#Dégradé_sans_nom_372-31)"/><path d="M914.3,289.78a18.49,18.49,0,0,1,16.09,8.56q5.79,8.49,5.86,24.47A60.44,60.44,0,0,0,938,307.34q0-16.23-5.87-24.8A18.48,18.48,0,0,0,916.06,274q-9.93,0-15.94,8.42t-6,24.95c0,.11,0,.21,0,.32a28.77,28.77,0,0,1,4.25-9.47Q904.39,289.79,914.3,289.78Z" style="fill:url(#Dégradé_sans_nom_372-33)"/><path d="M953.79,349.58q-14.6,15.8-37.73,15.79a51.61,51.61,0,0,1-26.91-7.07A47.83,47.83,0,0,1,870.66,338q-6.61-13.23-6.61-30.67c0-.36,0-.72,0-1.08a77,77,0,0,0-1.77,16.89q0,17.43,6.61,30.66a47.76,47.76,0,0,0,18.5,20.3,51.66,51.66,0,0,0,26.9,7.06q23.15,0,37.73-15.78,14.22-15.39,14.56-40.94A53.28,53.28,0,0,1,953.79,349.58Z" style="fill:url(#Dégradé_sans_nom_372-34)"/><path d="M887.4,272.19a51.57,51.57,0,0,1,26.9-7.07q23.15,0,37.73,15.79t14.58,42.24c0,.44,0,.86,0,1.3a78.28,78.28,0,0,0,1.78-17.11q0-26.44-14.58-42.24t-37.73-15.78a51.7,51.7,0,0,0-26.91,7.06,47.91,47.91,0,0,0-18.49,20.3q-6.4,12.81-6.6,29.58a60.1,60.1,0,0,1,4.84-13.78A47.79,47.79,0,0,1,887.4,272.19Z" style="fill:url(#Dégradé_sans_nom_372-35)"/><path d="M898.37,348.1q6,8.41,15.93,8.42A18.5,18.5,0,0,0,930.39,348q5.86-8.56,5.86-24.8v-.34a30.3,30.3,0,0,1-4.11,9.34,18.48,18.48,0,0,1-16.08,8.56q-9.93,0-15.94-8.41t-6-24.64a60.33,60.33,0,0,0-1.76,15.49Q892.36,339.68,898.37,348.1Z" style="fill:url(#Dégradé_sans_nom_372-36)"/><path d="M870.66,338a47.83,47.83,0,0,0,18.49,20.29,51.61,51.61,0,0,0,26.91,7.07q23.15,0,37.73-15.79a53.28,53.28,0,0,0,12.8-25.13c0-.44,0-.86,0-1.3q0-26.46-14.58-42.24T914.3,265.12a51.57,51.57,0,0,0-26.9,7.07,47.79,47.79,0,0,0-18.5,20.29,60.1,60.1,0,0,0-4.84,13.78c0,.36,0,.72,0,1.08Q864.05,324.79,870.66,338Zm23.45-30.67q0-16.53,6-24.95T916.06,274a18.48,18.48,0,0,1,16.08,8.57q5.86,8.56,5.87,24.8a60.44,60.44,0,0,1-1.76,15.47v.34q0,16.23-5.86,24.8a18.5,18.5,0,0,1-16.09,8.57q-9.91,0-15.93-8.42t-6-25a60.33,60.33,0,0,1,1.76-15.49C894.11,307.55,894.11,307.45,894.11,307.34Z" style="fill:url(#Dégradé_sans_nom_372-37)"/><path d="M870.66,338a47.83,47.83,0,0,0,18.49,20.29,51.61,51.61,0,0,0,26.91,7.07q23.15,0,37.73-15.79a53.28,53.28,0,0,0,12.8-25.13c0-.44,0-.86,0-1.3q0-26.46-14.58-42.24T914.3,265.12a51.57,51.57,0,0,0-26.9,7.07,47.79,47.79,0,0,0-18.5,20.29,60.1,60.1,0,0,0-4.84,13.78c0,.36,0,.72,0,1.08Q864.05,324.79,870.66,338Zm23.45-30.67q0-16.53,6-24.95T916.06,274a18.48,18.48,0,0,1,16.08,8.57q5.86,8.56,5.87,24.8a60.44,60.44,0,0,1-1.76,15.47v.34q0,16.23-5.86,24.8a18.5,18.5,0,0,1-16.09,8.57q-9.91,0-15.93-8.42t-6-25a60.33,60.33,0,0,1,1.76-15.49C894.11,307.55,894.11,307.45,894.11,307.34Z" style="fill:url(#Dégradé_sans_nom_372-37)"/><polygon points="898.62 152.51 754.91 362.96 790.69 362.96 934.4 152.51 898.62 152.51" style="fill:url(#Dégradé_sans_nom_372-39)"/></g><g style="mix-blend-mode:soft-light"><polygon points="136.81 214.34 136.81 191.06 135.05 191.06 135.05 230.14 212.44 230.14 226.4 214.34 136.81 214.34" style="fill:url(#Dégradé_sans_nom_387)"/><path d="M205.35,295.51H183.11V277.16l-1.76,2v32.16H203.6q35.19,0,38.93,20.65a24.57,24.57,0,0,0,2.21-10.6Q244.74,295.52,205.35,295.51Z" style="fill:url(#Dégradé_sans_nom_387-2)"/><path d="M246.82,263.12l35.55-40.5v-13.8l-45.75,52.12A103.5,103.5,0,0,1,246.82,263.12Z" style="fill:url(#Dégradé_sans_nom_387-3)"/><path d="M246.82,263.12l35.55-40.5,1.75-15.8-47.5,54.12A103.5,103.5,0,0,1,246.82,263.12Z" style="fill:url(#Dégradé_sans_nom_387-4)"/><path d="M284.12,355.19q-9.62,15.48-29.31,24.8t-48.25,9.32a165.45,165.45,0,0,1-43.75-5.86A117.45,117.45,0,0,1,131,369.9l-6.43,12.67q15,10.81,36.53,16.68a165.38,165.38,0,0,0,43.74,5.86q28.56,0,48.25-9.31T282.37,371A62.87,62.87,0,0,0,292,337.17c0-.21,0-.42,0-.63A63.12,63.12,0,0,1,284.12,355.19Z" style="fill:url(#Dégradé_sans_nom_387-5)"/><polygon points="126.28 366.76 124.53 382.57 143.47 345.29 145.22 329.48 126.28 366.76" style="fill:url(#Dégradé_sans_nom_387-6)"/><path d="M277.25,297.33q14.53,15.89,14.72,39.21a64.36,64.36,0,0,0,1.77-15.18q0-23.75-14.73-39.83-11.88-13-32.19-18.41l-12,13.62Q262.52,281.26,277.25,297.33Z" style="fill:url(#Dégradé_sans_nom_387-7)"/><polygon points="282.37 208.82 284.12 206.82 284.12 175.25 136.81 175.25 136.81 191.06 282.37 191.06 282.37 208.82" style="fill:url(#Dégradé_sans_nom_387-8)"/><polygon points="282.37 191.06 282.37 222.62 284.12 206.82 284.12 175.25 282.37 191.06" style="fill:url(#Dégradé_sans_nom_387-9)"/><path d="M171.28,359.27a107.36,107.36,0,0,0,32.32,5q18.33,0,28.86-7.07t10.52-20a29.82,29.82,0,0,0-.45-5.21,23.18,23.18,0,0,1-8.31,9.4q-10.53,7.06-28.87,7.06a107,107,0,0,1-32.31-5,91.5,91.5,0,0,1-27.81-14l-18.94,37.28c1.5,1.09,3.07,2.13,4.67,3.14l12.51-24.61A91.84,91.84,0,0,0,171.28,359.27Z" style="fill:url(#Dégradé_sans_nom_387-10)"/><polygon points="212.44 230.14 183.11 263.34 183.11 277.16 224.64 230.14 212.44 230.14" style="fill:url(#Dégradé_sans_nom_387-11)"/><path d="M206.56,389.31q28.56,0,48.25-9.32t29.31-24.8A63.12,63.12,0,0,0,292,336.54q-.2-23.32-14.72-39.21-14.73-16.08-42.39-20.59l12-13.62a103.5,103.5,0,0,0-10.2-2.18l45.75-52.12V191.06H136.81v23.28H226.4l-14,15.8h12.2l-41.53,47v18.35h22.24q39.39,0,39.39,25.85a24.57,24.57,0,0,1-2.21,10.6,29.82,29.82,0,0,1,.45,5.21q0,12.93-10.52,20t-28.86,7.07a107.36,107.36,0,0,1-32.32-5,91.84,91.84,0,0,1-27.81-14L131,369.9a117.45,117.45,0,0,0,31.85,13.55A165.45,165.45,0,0,0,206.56,389.31Z" style="fill:url(#Dégradé_sans_nom_387-12)"/><path d="M206.56,389.31q28.56,0,48.25-9.32t29.31-24.8A63.12,63.12,0,0,0,292,336.54q-.2-23.32-14.72-39.21-14.73-16.08-42.39-20.59l12-13.62a103.5,103.5,0,0,0-10.2-2.18l45.75-52.12V191.06H136.81v23.28H226.4l-14,15.8h12.2l-41.53,47v18.35h22.24q39.39,0,39.39,25.85a24.57,24.57,0,0,1-2.21,10.6,29.82,29.82,0,0,1,.45,5.21q0,12.93-10.52,20t-28.86,7.07a107.36,107.36,0,0,1-32.32-5,91.84,91.84,0,0,1-27.81-14L131,369.9a117.45,117.45,0,0,0,31.85,13.55A165.45,165.45,0,0,0,206.56,389.31Z" style="fill:url(#Dégradé_sans_nom_387-13)"/><polygon points="226.4 214.34 212.44 230.14 224.64 230.14 226.4 214.34" style="fill:url(#Dégradé_sans_nom_387-14)"/><path d="M234.86,276.74l12-13.62c-3.24-.87-10.2-2.18-10.2-2.18Z" style="fill:url(#Dégradé_sans_nom_387-15)"/><path d="M404.73,228.64q19.23,0,30.21,16.53t11,51.11c0,3.74-.1,7.3-.3,10.72a153,153,0,0,0,2.06-26.52q0-34.58-11-51.11t-30.22-16.54q-18.93,0-29.91,16.54-9.19,13.86-10.68,40.39,2.7-15.19,8.92-24.59Q385.79,228.64,404.73,228.64Z" style="fill:url(#Dégradé_sans_nom_387-16)"/><path d="M485.1,339q-11.58,24.51-32,37.43t-46.6,12.93q-26.14,0-46.6-12.93t-32-37.43q-11.57-24.49-11.57-58.47c0-3.91.12-7.71.35-11.42a167.49,167.49,0,0,0-2.11,27.22q0,34,11.58,58.48t32,37.43q20.43,12.93,46.6,12.92t46.6-12.92q20.43-12.93,32-37.43,9.59-20.28,11.23-47.06A117.61,117.61,0,0,1,485.1,339Z" style="fill:url(#Dégradé_sans_nom_387-17)"/><path d="M358.13,200.38q20.43-12.93,46.6-12.93t46.6,12.93q20.43,12.93,32,37.43t11.58,58.47c0,3.9-.12,7.7-.35,11.42a167.61,167.61,0,0,0,2.1-27.22q0-34-11.57-58.48t-32-37.43q-20.44-12.91-46.6-12.93t-46.6,12.93q-20.44,12.93-32,37.43-9.57,20.28-11.22,47.06a117.5,117.5,0,0,1,9.47-31.25Q337.67,213.3,358.13,200.38Z" style="fill:url(#Dégradé_sans_nom_387-18)"/><path d="M374.81,347.39q11,16.55,29.92,16.54,19.23,0,30.21-16.54,9.19-13.84,10.67-40.39-2.69,15.19-8.91,24.59-11,16.53-30.22,16.53-18.93,0-29.91-16.53t-11-51.11c0-3.74.11-7.3.3-10.72a153.93,153.93,0,0,0-2.05,26.52Q363.84,330.86,374.81,347.39Z" style="fill:url(#Dégradé_sans_nom_387-19)"/><path d="M327.86,339q11.58,24.51,32,37.43t46.6,12.93q26.16,0,46.6-12.93t32-37.43a117.61,117.61,0,0,0,9.47-31.25c.23-3.72.35-7.52.35-11.42q0-34-11.58-58.47t-32-37.43q-20.46-12.93-46.6-12.93t-46.6,12.93q-20.46,12.93-32,37.43a117.5,117.5,0,0,0-9.47,31.25c-.23,3.71-.35,7.51-.35,11.42Q316.29,314.46,327.86,339Zm48.71-109.58q11-16.53,29.91-16.54,19.25,0,30.22,16.54t11,51.11A153,153,0,0,1,445.61,307q-1.49,26.52-10.67,40.39-11,16.55-30.21,16.54-18.94,0-29.92-16.54t-11-51.11a153.93,153.93,0,0,1,2.05-26.52Q367.39,243.24,376.57,229.37Z" style="fill:url(#Dégradé_sans_nom_387-20)"/><path d="M327.86,339q11.58,24.51,32,37.43t46.6,12.93q26.16,0,46.6-12.93t32-37.43a117.61,117.61,0,0,0,9.47-31.25c.23-3.72.35-7.52.35-11.42q0-34-11.58-58.47t-32-37.43q-20.46-12.93-46.6-12.93t-46.6,12.93q-20.46,12.93-32,37.43a117.5,117.5,0,0,0-9.47,31.25c-.23,3.71-.35,7.51-.35,11.42Q316.29,314.46,327.86,339Zm48.71-109.58q11-16.53,29.91-16.54,19.25,0,30.22,16.54t11,51.11A153,153,0,0,1,445.61,307q-1.49,26.52-10.67,40.39-11,16.55-30.21,16.54-18.94,0-29.92-16.54t-11-51.11a153.93,153.93,0,0,1,2.05-26.52Q367.39,243.24,376.57,229.37Z" style="fill:url(#Dégradé_sans_nom_387-21)"/><path d="M608.86,228.64q19.23,0,30.21,16.53t11,51.11c0,3.74-.1,7.3-.3,10.72a153,153,0,0,0,2.06-26.52q0-34.58-11-51.11t-30.22-16.54q-18.93,0-29.91,16.54-9.19,13.86-10.68,40.39,2.7-15.19,8.92-24.59Q589.92,228.64,608.86,228.64Z" style="fill:url(#Dégradé_sans_nom_387-22)"/><path d="M689.23,339q-11.58,24.51-32,37.43t-46.6,12.93q-26.15,0-46.6-12.93T532,339q-11.58-24.49-11.58-58.47c0-3.91.12-7.71.35-11.42a167.49,167.49,0,0,0-2.11,27.22q0,34,11.58,58.48t32,37.43q20.43,12.93,46.6,12.92t46.6-12.92q20.43-12.93,32-37.43,9.59-20.28,11.23-47.06A117.61,117.61,0,0,1,689.23,339Z" style="fill:url(#Dégradé_sans_nom_387-23)"/><path d="M578.94,347.39q11,16.55,29.92,16.54,19.23,0,30.21-16.54,9.2-13.84,10.67-40.39-2.68,15.19-8.91,24.59-11,16.53-30.22,16.53-18.93,0-29.91-16.53t-11-51.11c0-3.74.11-7.3.3-10.72a153.93,153.93,0,0,0-2,26.52Q568,330.86,578.94,347.39Z" style="fill:url(#Dégradé_sans_nom_387-24)"/><path d="M562.26,200.38q20.43-12.93,46.6-12.93t46.6,12.93q20.43,12.93,32,37.43t11.58,58.47c0,3.9-.12,7.7-.35,11.42a167.61,167.61,0,0,0,2.1-27.22q0-34-11.57-58.48t-32-37.43q-20.44-12.91-46.6-12.93T564,184.57Q543.57,197.5,532,222q-9.59,20.28-11.23,47.06a117.5,117.5,0,0,1,9.47-31.25Q541.81,213.3,562.26,200.38Z" style="fill:url(#Dégradé_sans_nom_387-25)"/><path d="M532,339q11.57,24.51,32,37.43t46.6,12.93q26.16,0,46.6-12.93t32-37.43a117.61,117.61,0,0,0,9.47-31.25c.23-3.72.35-7.52.35-11.42q0-34-11.58-58.47t-32-37.43q-20.46-12.93-46.6-12.93t-46.6,12.93q-20.46,12.93-32,37.43a117.5,117.5,0,0,0-9.47,31.25c-.23,3.71-.35,7.51-.35,11.42Q520.42,314.46,532,339Zm48.7-109.58q11-16.53,29.91-16.54,19.25,0,30.22,16.54t11,51.11A153,153,0,0,1,649.74,307q-1.49,26.52-10.67,40.39-11,16.55-30.21,16.54-18.95,0-29.92-16.54t-11-51.11a153.93,153.93,0,0,1,2-26.52Q571.52,243.24,580.7,229.37Z" style="fill:url(#Dégradé_sans_nom_387-26)"/><path d="M532,339q11.57,24.51,32,37.43t46.6,12.93q26.16,0,46.6-12.93t32-37.43a117.61,117.61,0,0,0,9.47-31.25c.23-3.72.35-7.52.35-11.42q0-34-11.58-58.47t-32-37.43q-20.46-12.93-46.6-12.93t-46.6,12.93q-20.46,12.93-32,37.43a117.5,117.5,0,0,0-9.47,31.25c-.23,3.71-.35,7.51-.35,11.42Q520.42,314.46,532,339Zm48.7-109.58q11-16.53,29.91-16.54,19.25,0,30.22,16.54t11,51.11A153,153,0,0,1,649.74,307q-1.49,26.52-10.67,40.39-11,16.55-30.21,16.54-18.95,0-29.92-16.54t-11-51.11a153.93,153.93,0,0,1,2-26.52Q571.52,243.24,580.7,229.37Z" style="fill:url(#Dégradé_sans_nom_387-26)"/><path d="M810.83,273.11Q796.4,288.9,773.25,288.9t-37.73-15.79q-14.58-15.78-14.58-42.24c0-.44,0-.87,0-1.31a78.37,78.37,0,0,0-1.78,17.12q0,26.44,14.58,42.24T771.5,304.7q23.14,0,37.58-15.78,14-15.37,14.4-40.85A53.39,53.39,0,0,1,810.83,273.11Z" style="fill:url(#Dégradé_sans_nom_387-28)"/><path d="M771.5,213.3a18.57,18.57,0,0,1,16.08,8.42q5.83,8.39,5.86,24.81a61.56,61.56,0,0,0,1.76-15.66q0-16.53-5.86-25a18.58,18.58,0,0,0-16.09-8.42q-9.91,0-15.93,8.57t-6,24.8v.5a30.16,30.16,0,0,1,4.25-9.5Q761.58,213.31,771.5,213.3Z" style="fill:url(#Dégradé_sans_nom_387-29)"/><path d="M771.5,188.65q23.14,0,37.58,15.79t14.43,42.24c0,.47,0,.92,0,1.39a79.05,79.05,0,0,0,1.78-17.2q0-26.44-14.43-42.24t-37.58-15.78q-23.14,0-37.73,15.78Q721.3,204,721,229.56a53.29,53.29,0,0,1,12.8-25.12Q748.35,188.65,771.5,188.65Z" style="fill:url(#Dégradé_sans_nom_387-30)"/><path d="M755.56,271.48q6,8.56,15.94,8.57a18.57,18.57,0,0,0,16.08-8.42q5.86-8.42,5.86-24.95v-.15a29.43,29.43,0,0,1-4.1,9.3,18.57,18.57,0,0,1-16.09,8.41q-9.91,0-15.93-8.57t-6-24.3a59.3,59.3,0,0,0-1.76,15.31Q749.55,262.91,755.56,271.48Z" style="fill:url(#Dégradé_sans_nom_387-31)"/><path d="M735.52,273.11q14.58,15.79,37.73,15.79t37.58-15.79a53.39,53.39,0,0,0,12.65-25c0-.47,0-.92,0-1.39q0-26.46-14.43-42.24T771.5,188.65q-23.16,0-37.73,15.79A53.29,53.29,0,0,0,721,229.56c0,.44,0,.87,0,1.31Q720.94,257.33,735.52,273.11Zm15.79-42.24q0-16.23,6-24.8t15.93-8.57a18.58,18.58,0,0,1,16.09,8.42q5.86,8.42,5.86,25a61.56,61.56,0,0,1-1.76,15.66v.15q0,16.53-5.86,24.95a18.57,18.57,0,0,1-16.08,8.42q-9.93,0-15.94-8.57t-6-24.8a59.3,59.3,0,0,1,1.76-15.31Z" style="fill:url(#Dégradé_sans_nom_387-32)"/><path d="M735.52,273.11q14.58,15.79,37.73,15.79t37.58-15.79a53.39,53.39,0,0,0,12.65-25c0-.47,0-.92,0-1.39q0-26.46-14.43-42.24T771.5,188.65q-23.16,0-37.73,15.79A53.29,53.29,0,0,0,721,229.56c0,.44,0,.87,0,1.31Q720.94,257.33,735.52,273.11Zm15.79-42.24q0-16.23,6-24.8t15.93-8.57a18.58,18.58,0,0,1,16.09,8.42q5.86,8.42,5.86,25a61.56,61.56,0,0,1-1.76,15.66v.15q0,16.53-5.86,24.95a18.57,18.57,0,0,1-16.08,8.42q-9.93,0-15.94-8.57t-6-24.8a59.3,59.3,0,0,1,1.76-15.31Z" style="fill:url(#Dégradé_sans_nom_387-32)"/><path d="M914.3,312.52a18.49,18.49,0,0,1,16.09,8.56q5.79,8.49,5.86,24.47A60.44,60.44,0,0,0,938,330.08q0-16.23-5.87-24.8a18.48,18.48,0,0,0-16.08-8.57q-9.93,0-15.94,8.42t-6,24.95c0,.11,0,.21,0,.32a28.77,28.77,0,0,1,4.25-9.47Q904.39,312.53,914.3,312.52Z" style="fill:url(#Dégradé_sans_nom_387-34)"/><path d="M953.79,372.32q-14.6,15.8-37.73,15.79A51.61,51.61,0,0,1,889.15,381a47.77,47.77,0,0,1-18.49-20.29q-6.61-13.23-6.61-30.67c0-.36,0-.72,0-1.08a77,77,0,0,0-1.77,16.89q0,17.43,6.61,30.66a47.76,47.76,0,0,0,18.5,20.3,51.66,51.66,0,0,0,26.9,7.06q23.15,0,37.73-15.78,14.22-15.39,14.56-40.94A53.28,53.28,0,0,1,953.79,372.32Z" style="fill:url(#Dégradé_sans_nom_387-35)"/><path d="M887.4,294.93a51.57,51.57,0,0,1,26.9-7.07q23.15,0,37.73,15.79t14.58,42.24c0,.44,0,.86,0,1.3a78.28,78.28,0,0,0,1.78-17.11q0-26.44-14.58-42.24t-37.73-15.78a51.7,51.7,0,0,0-26.91,7.06,47.91,47.91,0,0,0-18.49,20.3q-6.4,12.81-6.6,29.58a60.1,60.1,0,0,1,4.84-13.78A47.79,47.79,0,0,1,887.4,294.93Z" style="fill:url(#Dégradé_sans_nom_387-36)"/><path d="M898.37,370.84q6,8.43,15.93,8.42a18.5,18.5,0,0,0,16.09-8.57q5.86-8.56,5.86-24.8v-.34a30.2,30.2,0,0,1-4.11,9.34,18.48,18.48,0,0,1-16.08,8.56q-9.93,0-15.94-8.41t-6-24.64a60.33,60.33,0,0,0-1.76,15.49Q892.36,362.42,898.37,370.84Z" style="fill:url(#Dégradé_sans_nom_387-37)"/><path d="M870.66,360.75A47.77,47.77,0,0,0,889.15,381a51.61,51.61,0,0,0,26.91,7.07q23.15,0,37.73-15.79a53.28,53.28,0,0,0,12.8-25.13c0-.44,0-.86,0-1.3q0-26.46-14.58-42.24T914.3,287.86a51.57,51.57,0,0,0-26.9,7.07,47.79,47.79,0,0,0-18.5,20.29A60.1,60.1,0,0,0,864.06,329c0,.36,0,.72,0,1.08Q864.05,347.53,870.66,360.75Zm23.45-30.67q0-16.53,6-24.95t15.94-8.42a18.48,18.48,0,0,1,16.08,8.57q5.86,8.57,5.87,24.8a60.44,60.44,0,0,1-1.76,15.47v.34q0,16.23-5.86,24.8a18.5,18.5,0,0,1-16.09,8.57q-9.91,0-15.93-8.42t-6-24.95a60.33,60.33,0,0,1,1.76-15.49C894.11,330.29,894.11,330.19,894.11,330.08Z" style="fill:url(#Dégradé_sans_nom_387-38)"/><path d="M870.66,360.75A47.77,47.77,0,0,0,889.15,381a51.61,51.61,0,0,0,26.91,7.07q23.15,0,37.73-15.79a53.28,53.28,0,0,0,12.8-25.13c0-.44,0-.86,0-1.3q0-26.46-14.58-42.24T914.3,287.86a51.57,51.57,0,0,0-26.9,7.07,47.79,47.79,0,0,0-18.5,20.29A60.1,60.1,0,0,0,864.06,329c0,.36,0,.72,0,1.08Q864.05,347.53,870.66,360.75Zm23.45-30.67q0-16.53,6-24.95t15.94-8.42a18.48,18.48,0,0,1,16.08,8.57q5.86,8.57,5.87,24.8a60.44,60.44,0,0,1-1.76,15.47v.34q0,16.23-5.86,24.8a18.5,18.5,0,0,1-16.09,8.57q-9.91,0-15.93-8.42t-6-24.95a60.33,60.33,0,0,1,1.76-15.49C894.11,330.29,894.11,330.19,894.11,330.08Z" style="fill:url(#Dégradé_sans_nom_387-38)"/><polygon points="898.62 175.25 754.91 385.7 790.69 385.7 934.4 175.25 898.62 175.25" style="fill:url(#Dégradé_sans_nom_387-40)"/></g><g style="mix-blend-mode:difference"><polygon points="136.81 198.32 136.81 175.04 135.05 175.04 135.05 214.13 212.44 214.13 226.4 198.32 136.81 198.32" style="fill:url(#Dégradé_sans_nom_737)"/><path d="M205.35,279.5H183.11V261.14l-1.76,2V295.3H203.6q35.19,0,38.93,20.65a24.57,24.57,0,0,0,2.21-10.6Q244.74,279.51,205.35,279.5Z" style="fill:url(#Dégradé_sans_nom_737-2)"/><path d="M246.82,247.1l35.55-40.49v-13.8l-45.75,52.11A103.5,103.5,0,0,1,246.82,247.1Z" style="fill:url(#Dégradé_sans_nom_737-3)"/><path d="M246.82,247.1l35.55-40.49,1.75-15.8-47.5,54.11A103.5,103.5,0,0,1,246.82,247.1Z" style="fill:url(#Dégradé_sans_nom_737-4)"/><path d="M284.12,339.18q-9.62,15.48-29.31,24.8t-48.25,9.32a165.86,165.86,0,0,1-43.75-5.86A117.45,117.45,0,0,1,131,353.89l-6.43,12.66q15,10.83,36.53,16.69a165.38,165.38,0,0,0,43.74,5.86q28.56,0,48.25-9.32T282.37,355A62.87,62.87,0,0,0,292,321.16c0-.21,0-.42,0-.63A63.12,63.12,0,0,1,284.12,339.18Z" style="fill:url(#Dégradé_sans_nom_737-5)"/><polygon points="126.28 350.75 124.53 366.56 143.47 329.27 145.22 313.47 126.28 350.75" style="fill:url(#Dégradé_sans_nom_737-6)"/><path d="M277.25,281.32q14.53,15.87,14.72,39.21a64.43,64.43,0,0,0,1.77-15.18q0-23.75-14.73-39.83-11.88-13-32.19-18.42l-12,13.63Q262.52,265.23,277.25,281.32Z" style="fill:url(#Dégradé_sans_nom_737-7)"/><polygon points="282.37 192.81 284.12 190.81 284.12 159.24 136.81 159.24 136.81 175.04 282.37 175.04 282.37 192.81" style="fill:url(#Dégradé_sans_nom_737-8)"/><polygon points="282.37 175.04 282.37 206.61 284.12 190.81 284.12 159.24 282.37 175.04" style="fill:url(#Dégradé_sans_nom_737-9)"/><path d="M171.28,343.25a107,107,0,0,0,32.32,5q18.33,0,28.86-7.06t10.52-20a29.82,29.82,0,0,0-.45-5.21,23.18,23.18,0,0,1-8.31,9.4q-10.53,7.06-28.87,7.06a107,107,0,0,1-32.31-5,91.73,91.73,0,0,1-27.81-14l-18.94,37.28c1.5,1.09,3.07,2.13,4.67,3.14l12.51-24.62A91.39,91.39,0,0,0,171.28,343.25Z" style="fill:url(#Dégradé_sans_nom_737-10)"/><polygon points="212.44 214.13 183.11 247.33 183.11 261.14 224.64 214.13 212.44 214.13" style="fill:url(#Dégradé_sans_nom_737-11)"/><path d="M206.56,373.3q28.56,0,48.25-9.32t29.31-24.8A63.12,63.12,0,0,0,292,320.53q-.2-23.32-14.72-39.21-14.73-16.08-42.39-20.59l12-13.63a103.5,103.5,0,0,0-10.2-2.18l45.75-52.11V175H136.81v23.28H226.4l-14,15.81h12.2l-41.53,47V279.5h22.24q39.39,0,39.39,25.85a24.57,24.57,0,0,1-2.21,10.6,29.82,29.82,0,0,1,.45,5.21q0,12.93-10.52,20t-28.86,7.06a107,107,0,0,1-32.32-5,91.39,91.39,0,0,1-27.81-14L131,353.89a117.45,117.45,0,0,0,31.85,13.55A165.86,165.86,0,0,0,206.56,373.3Z" style="fill:url(#Dégradé_sans_nom_737-12)"/><path d="M206.56,373.3q28.56,0,48.25-9.32t29.31-24.8A63.12,63.12,0,0,0,292,320.53q-.2-23.32-14.72-39.21-14.73-16.08-42.39-20.59l12-13.63a103.5,103.5,0,0,0-10.2-2.18l45.75-52.11V175H136.81v23.28H226.4l-14,15.81h12.2l-41.53,47V279.5h22.24q39.39,0,39.39,25.85a24.57,24.57,0,0,1-2.21,10.6,29.82,29.82,0,0,1,.45,5.21q0,12.93-10.52,20t-28.86,7.06a107,107,0,0,1-32.32-5,91.39,91.39,0,0,1-27.81-14L131,353.89a117.45,117.45,0,0,0,31.85,13.55A165.86,165.86,0,0,0,206.56,373.3Z" style="fill:url(#Dégradé_sans_nom_737-13)"/><polygon points="226.4 198.32 212.44 214.13 224.64 214.13 226.4 198.32" style="fill:url(#Dégradé_sans_nom_737-14)"/><path d="M234.86,260.73l12-13.63c-3.24-.87-10.2-2.18-10.2-2.18Z" style="fill:url(#Dégradé_sans_nom_737-15)"/><path d="M404.73,212.62q19.23,0,30.21,16.54t11,51.11q0,5.6-.3,10.72a153,153,0,0,0,2.06-26.53q0-34.56-11-51.1t-30.22-16.54q-18.93,0-29.91,16.54-9.19,13.84-10.68,40.38,2.7-15.18,8.92-24.58Q385.79,212.63,404.73,212.62Z" style="fill:url(#Dégradé_sans_nom_737-16)"/><path d="M485.1,322.94q-11.58,24.51-32,37.43t-46.6,12.93q-26.14,0-46.6-12.93t-32-37.43q-11.57-24.49-11.57-58.48c0-3.9.12-7.7.35-11.42a167.71,167.71,0,0,0-2.11,27.23q0,34,11.58,58.48t32,37.42q20.43,12.93,46.6,12.93t46.6-12.93q20.43-12.92,32-37.42,9.59-20.29,11.23-47.07A117.69,117.69,0,0,1,485.1,322.94Z" style="fill:url(#Dégradé_sans_nom_737-17)"/><path d="M358.13,184.36q20.43-12.92,46.6-12.92t46.6,12.92q20.43,12.93,32,37.43t11.58,58.48q0,5.85-.35,11.41a167.52,167.52,0,0,0,2.1-27.22q0-34-11.57-58.47t-32-37.43q-20.44-12.92-46.6-12.93t-46.6,12.93q-20.44,12.93-32,37.43-9.57,20.28-11.22,47a117.73,117.73,0,0,1,9.47-31.25Q337.67,197.3,358.13,184.36Z" style="fill:url(#Dégradé_sans_nom_737-18)"/><path d="M374.81,331.38q11,16.53,29.92,16.53,19.23,0,30.21-16.53,9.19-13.86,10.67-40.39-2.69,15.19-8.91,24.58-11,16.55-30.22,16.54-18.93,0-29.91-16.54t-11-51.11c0-3.73.11-7.29.3-10.72a154.06,154.06,0,0,0-2.05,26.53Q363.84,314.85,374.81,331.38Z" style="fill:url(#Dégradé_sans_nom_737-19)"/><path d="M327.86,322.94q11.58,24.51,32,37.43t46.6,12.93q26.16,0,46.6-12.93t32-37.43a117.69,117.69,0,0,0,9.47-31.26q.35-5.56.35-11.41,0-34-11.58-58.48t-32-37.43q-20.46-12.92-46.6-12.92t-46.6,12.92q-20.46,12.93-32,37.43A117.73,117.73,0,0,0,316.64,253c-.23,3.72-.35,7.52-.35,11.42Q316.29,298.45,327.86,322.94Zm48.71-109.58q11-16.53,29.91-16.54,19.25,0,30.22,16.54t11,51.1A153,153,0,0,1,445.61,291q-1.49,26.52-10.67,40.39-11,16.53-30.21,16.53-18.94,0-29.92-16.53t-11-51.11a154.06,154.06,0,0,1,2.05-26.53Q367.39,227.24,376.57,213.36Z" style="fill:url(#Dégradé_sans_nom_737-20)"/><path d="M327.86,322.94q11.58,24.51,32,37.43t46.6,12.93q26.16,0,46.6-12.93t32-37.43a117.69,117.69,0,0,0,9.47-31.26q.35-5.56.35-11.41,0-34-11.58-58.48t-32-37.43q-20.46-12.92-46.6-12.92t-46.6,12.92q-20.46,12.93-32,37.43A117.73,117.73,0,0,0,316.64,253c-.23,3.72-.35,7.52-.35,11.42Q316.29,298.45,327.86,322.94Zm48.71-109.58q11-16.53,29.91-16.54,19.25,0,30.22,16.54t11,51.1A153,153,0,0,1,445.61,291q-1.49,26.52-10.67,40.39-11,16.53-30.21,16.53-18.94,0-29.92-16.53t-11-51.11a154.06,154.06,0,0,1,2.05-26.53Q367.39,227.24,376.57,213.36Z" style="fill:url(#Dégradé_sans_nom_737-21)"/><path d="M608.86,212.62q19.23,0,30.21,16.54t11,51.11q0,5.6-.3,10.72a153,153,0,0,0,2.06-26.53q0-34.56-11-51.1t-30.22-16.54q-18.93,0-29.91,16.54-9.19,13.84-10.68,40.38,2.7-15.18,8.92-24.58Q589.92,212.63,608.86,212.62Z" style="fill:url(#Dégradé_sans_nom_737-22)"/><path d="M689.23,322.94q-11.58,24.51-32,37.43t-46.6,12.93q-26.15,0-46.6-12.93t-32-37.43q-11.58-24.49-11.58-58.48c0-3.9.12-7.7.35-11.42a167.71,167.71,0,0,0-2.11,27.23q0,34,11.58,58.48t32,37.42q20.43,12.93,46.6,12.93t46.6-12.93q20.43-12.92,32-37.42,9.59-20.29,11.23-47.07A117.69,117.69,0,0,1,689.23,322.94Z" style="fill:url(#Dégradé_sans_nom_737-23)"/><path d="M578.94,331.38q11,16.53,29.92,16.53,19.23,0,30.21-16.53,9.2-13.86,10.67-40.39-2.68,15.19-8.91,24.58-11,16.55-30.22,16.54-18.93,0-29.91-16.54t-11-51.11c0-3.73.11-7.29.3-10.72a154.06,154.06,0,0,0-2,26.53Q568,314.85,578.94,331.38Z" style="fill:url(#Dégradé_sans_nom_737-24)"/><path d="M562.26,184.36q20.43-12.92,46.6-12.92t46.6,12.92q20.43,12.93,32,37.43t11.58,58.48q0,5.85-.35,11.41a167.52,167.52,0,0,0,2.1-27.22q0-34-11.57-58.47t-32-37.43q-20.44-12.92-46.6-12.93T564,168.56Q543.57,181.49,532,206q-9.59,20.28-11.23,47a117.73,117.73,0,0,1,9.47-31.25Q541.81,197.3,562.26,184.36Z" style="fill:url(#Dégradé_sans_nom_737-25)"/><path d="M532,322.94q11.57,24.51,32,37.43t46.6,12.93q26.16,0,46.6-12.93t32-37.43a117.69,117.69,0,0,0,9.47-31.26q.34-5.56.35-11.41,0-34-11.58-58.48t-32-37.43q-20.46-12.92-46.6-12.92t-46.6,12.92q-20.46,12.93-32,37.43A117.73,117.73,0,0,0,520.77,253c-.23,3.72-.35,7.52-.35,11.42Q520.42,298.45,532,322.94Zm48.7-109.58q11-16.53,29.91-16.54,19.25,0,30.22,16.54t11,51.1A153,153,0,0,1,649.74,291q-1.49,26.52-10.67,40.39-11,16.53-30.21,16.53-18.95,0-29.92-16.53t-11-51.11a154.06,154.06,0,0,1,2-26.53Q571.52,227.24,580.7,213.36Z" style="fill:url(#Dégradé_sans_nom_737-26)"/><path d="M532,322.94q11.57,24.51,32,37.43t46.6,12.93q26.16,0,46.6-12.93t32-37.43a117.69,117.69,0,0,0,9.47-31.26q.34-5.56.35-11.41,0-34-11.58-58.48t-32-37.43q-20.46-12.92-46.6-12.92t-46.6,12.92q-20.46,12.93-32,37.43A117.73,117.73,0,0,0,520.77,253c-.23,3.72-.35,7.52-.35,11.42Q520.42,298.45,532,322.94Zm48.7-109.58q11-16.53,29.91-16.54,19.25,0,30.22,16.54t11,51.1A153,153,0,0,1,649.74,291q-1.49,26.52-10.67,40.39-11,16.53-30.21,16.53-18.95,0-29.92-16.53t-11-51.11a154.06,154.06,0,0,1,2-26.53Q571.52,227.24,580.7,213.36Z" style="fill:url(#Dégradé_sans_nom_737-27)"/><path d="M810.83,257.1q-14.43,15.78-37.58,15.78T735.52,257.1q-14.58-15.78-14.58-42.24c0-.44,0-.87,0-1.31a78.34,78.34,0,0,0-1.78,17.11q0,26.46,14.58,42.24t37.73,15.79q23.14,0,37.58-15.79,14-15.36,14.4-40.84A53.44,53.44,0,0,1,810.83,257.1Z" style="fill:url(#Dégradé_sans_nom_737-28)"/><path d="M771.5,197.29a18.57,18.57,0,0,1,16.08,8.42q5.83,8.39,5.86,24.8a61.48,61.48,0,0,0,1.76-15.65q0-16.53-5.86-25a18.58,18.58,0,0,0-16.09-8.42q-9.91,0-15.93,8.57t-6,24.8v.49a30,30,0,0,1,4.25-9.49Q761.58,197.3,771.5,197.29Z" style="fill:url(#Dégradé_sans_nom_737-29)"/><path d="M771.5,172.64q23.14,0,37.58,15.78t14.43,42.24c0,.47,0,.93,0,1.4a79.05,79.05,0,0,0,1.78-17.2q0-26.46-14.43-42.24t-37.58-15.79q-23.14,0-37.73,15.79Q721.3,188,721,213.55a53.32,53.32,0,0,1,12.8-25.13Q748.35,172.64,771.5,172.64Z" style="fill:url(#Dégradé_sans_nom_737-30)"/><path d="M755.56,255.47q6,8.57,15.94,8.56a18.57,18.57,0,0,0,16.08-8.41q5.86-8.42,5.86-25v-.15a29.23,29.23,0,0,1-4.1,9.3,18.56,18.56,0,0,1-16.09,8.42q-9.91,0-15.93-8.57t-6-24.31a59.41,59.41,0,0,0-1.76,15.31Q749.55,246.91,755.56,255.47Z" style="fill:url(#Dégradé_sans_nom_737-31)"/><path d="M735.52,257.1q14.58,15.78,37.73,15.78t37.58-15.78a53.44,53.44,0,0,0,12.65-25c0-.47,0-.93,0-1.4q0-26.44-14.43-42.24T771.5,172.64q-23.16,0-37.73,15.78A53.32,53.32,0,0,0,721,213.55c0,.44,0,.87,0,1.31Q720.94,241.32,735.52,257.1Zm15.79-42.24q0-16.23,6-24.8t15.93-8.57a18.58,18.58,0,0,1,16.09,8.42q5.86,8.42,5.86,25a61.48,61.48,0,0,1-1.76,15.65v.15q0,16.54-5.86,25A18.57,18.57,0,0,1,771.5,264q-9.93,0-15.94-8.56t-6-24.81a59.41,59.41,0,0,1,1.76-15.31Z" style="fill:url(#Dégradé_sans_nom_737-32)"/><path d="M735.52,257.1q14.58,15.78,37.73,15.78t37.58-15.78a53.44,53.44,0,0,0,12.65-25c0-.47,0-.93,0-1.4q0-26.44-14.43-42.24T771.5,172.64q-23.16,0-37.73,15.78A53.32,53.32,0,0,0,721,213.55c0,.44,0,.87,0,1.31Q720.94,241.32,735.52,257.1Zm15.79-42.24q0-16.23,6-24.8t15.93-8.57a18.58,18.58,0,0,1,16.09,8.42q5.86,8.42,5.86,25a61.48,61.48,0,0,1-1.76,15.65v.15q0,16.54-5.86,25A18.57,18.57,0,0,1,771.5,264q-9.93,0-15.94-8.56t-6-24.81a59.41,59.41,0,0,1,1.76-15.31Z" style="fill:url(#Dégradé_sans_nom_737-33)"/><path d="M914.3,296.5a18.5,18.5,0,0,1,16.09,8.57q5.79,8.49,5.86,24.47A60.49,60.49,0,0,0,938,314.07q0-16.23-5.87-24.8a18.48,18.48,0,0,0-16.08-8.57q-9.93,0-15.94,8.42t-6,24.95c0,.11,0,.21,0,.31a28.81,28.81,0,0,1,4.25-9.46Q904.39,296.51,914.3,296.5Z" style="fill:url(#Dégradé_sans_nom_737-34)"/><path d="M953.79,356.31q-14.6,15.78-37.73,15.79A51.61,51.61,0,0,1,889.15,365a47.83,47.83,0,0,1-18.49-20.29q-6.61-13.23-6.61-30.67c0-.36,0-.72,0-1.08a77,77,0,0,0-1.77,16.89q0,17.43,6.61,30.66a47.82,47.82,0,0,0,18.5,20.3,51.66,51.66,0,0,0,26.9,7.06q23.15,0,37.73-15.78,14.22-15.4,14.56-40.94A53.32,53.32,0,0,1,953.79,356.31Z" style="fill:url(#Dégradé_sans_nom_737-35)"/><path d="M887.4,278.92a51.57,51.57,0,0,1,26.9-7.07q23.15,0,37.73,15.79t14.58,42.24c0,.43,0,.86,0,1.3a78.28,78.28,0,0,0,1.78-17.11q0-26.44-14.58-42.24t-37.73-15.78a51.7,51.7,0,0,0-26.91,7.06,47.86,47.86,0,0,0-18.49,20.3q-6.4,12.81-6.6,29.58a60.1,60.1,0,0,1,4.84-13.78A47.79,47.79,0,0,1,887.4,278.92Z" style="fill:url(#Dégradé_sans_nom_737-36)"/><path d="M898.37,354.83q6,8.42,15.93,8.42a18.5,18.5,0,0,0,16.09-8.57q5.86-8.56,5.86-24.8v-.34a30.3,30.3,0,0,1-4.11,9.34,18.48,18.48,0,0,1-16.08,8.56q-9.93,0-15.94-8.41t-6-24.65a60.46,60.46,0,0,0-1.76,15.5Q892.36,346.41,898.37,354.83Z" style="fill:url(#Dégradé_sans_nom_737-37)"/><path d="M870.66,344.74A47.83,47.83,0,0,0,889.15,365a51.61,51.61,0,0,0,26.91,7.07q23.15,0,37.73-15.79a53.32,53.32,0,0,0,12.8-25.13c0-.44,0-.87,0-1.3q0-26.46-14.58-42.24T914.3,271.85a51.57,51.57,0,0,0-26.9,7.07,47.79,47.79,0,0,0-18.5,20.29A60.1,60.1,0,0,0,864.06,313c0,.36,0,.72,0,1.08Q864.05,331.52,870.66,344.74Zm23.45-30.67q0-16.53,6-24.95t15.94-8.42a18.48,18.48,0,0,1,16.08,8.57q5.86,8.57,5.87,24.8a60.49,60.49,0,0,1-1.76,15.47v.34q0,16.23-5.86,24.8a18.5,18.5,0,0,1-16.09,8.57q-9.91,0-15.93-8.42t-6-24.95a60.46,60.46,0,0,1,1.76-15.5C894.11,314.28,894.11,314.18,894.11,314.07Z" style="fill:url(#Dégradé_sans_nom_737-38)"/><path d="M870.66,344.74A47.83,47.83,0,0,0,889.15,365a51.61,51.61,0,0,0,26.91,7.07q23.15,0,37.73-15.79a53.32,53.32,0,0,0,12.8-25.13c0-.44,0-.87,0-1.3q0-26.46-14.58-42.24T914.3,271.85a51.57,51.57,0,0,0-26.9,7.07,47.79,47.79,0,0,0-18.5,20.29A60.1,60.1,0,0,0,864.06,313c0,.36,0,.72,0,1.08Q864.05,331.52,870.66,344.74Zm23.45-30.67q0-16.53,6-24.95t15.94-8.42a18.48,18.48,0,0,1,16.08,8.57q5.86,8.57,5.87,24.8a60.49,60.49,0,0,1-1.76,15.47v.34q0,16.23-5.86,24.8a18.5,18.5,0,0,1-16.09,8.57q-9.91,0-15.93-8.42t-6-24.95a60.46,60.46,0,0,1,1.76-15.5C894.11,314.28,894.11,314.18,894.11,314.07Z" style="fill:url(#Dégradé_sans_nom_737-39)"/><polygon points="898.62 159.24 754.91 369.69 790.69 369.69 934.4 159.24 898.62 159.24" style="fill:url(#Dégradé_sans_nom_737-40)"/></g><g style="mix-blend-mode:hard-light"><path d="M278.87,280q14.73,16.08,14.74,39.83A62.85,62.85,0,0,1,284,353.67q-9.62,15.48-29.31,24.8t-48.25,9.32a165.73,165.73,0,0,1-43.74-5.86q-21.51-5.87-36.53-16.69L145.09,328a91.73,91.73,0,0,0,27.81,14,107,107,0,0,0,32.32,5q18.33,0,28.86-7.06t10.52-20q0-25.84-39.38-25.85H183V261.82l43.29-49H136.67V173.73H284V205.3l-47.5,54.11Q264.14,263.93,278.87,280Z" style="fill:url(#Dégradé_sans_nom_394-5)"/><path d="M359.75,374.86q-20.46-12.92-32-37.43T316.15,279q0-34,11.58-58.48t32-37.43q20.43-12.92,46.59-12.93t46.6,12.93q20.44,12.93,32,37.43T496.54,279q0,34-11.58,58.47t-32,37.43q-20.44,12.93-46.6,12.93T359.75,374.86Zm76.81-44.8q11-16.53,11-51.1t-11-51.11q-11-16.53-30.22-16.54-18.93,0-29.91,16.54t-11,51.11q0,34.57,11,51.1t29.91,16.54Q425.59,346.6,436.56,330.06Z" style="fill:url(#Dégradé_sans_nom_394-6)"/><path d="M563.88,374.86q-20.46-12.92-32-37.43T520.28,279q0-34,11.58-58.48t32-37.43q20.43-12.92,46.6-12.93t46.59,12.93q20.45,12.93,32,37.43T700.67,279q0,34-11.58,58.47t-32,37.43q-20.45,12.93-46.59,12.93T563.88,374.86Zm76.81-44.8q11-16.53,11-51.1t-11-51.11q-11-16.53-30.21-16.54-18.94,0-29.92,16.54t-11,51.11q0,34.57,11,51.1t29.92,16.54Q629.71,346.6,640.69,330.06Z" style="fill:url(#Dégradé_sans_nom_394-7)"/><path d="M735.39,271.59q-14.6-15.78-14.58-42.24t14.58-42.24q14.58-15.78,37.73-15.79t37.58,15.79q14.43,15.78,14.43,42.24T810.7,271.59q-14.43,15.78-37.58,15.78T735.39,271.59ZM789.2,254.3q5.87-8.42,5.86-25T789.2,204.4A18.57,18.57,0,0,0,773.12,196q-9.93,0-15.94,8.57t-6,24.8q0,16.23,6,24.8t15.94,8.57A18.55,18.55,0,0,0,789.2,254.3Zm109.28-80.57h35.78L790.55,384.18H754.78ZM889,379.52a47.83,47.83,0,0,1-18.49-20.29q-6.62-13.23-6.61-30.67t6.61-30.66A47.86,47.86,0,0,1,889,277.6a51.72,51.72,0,0,1,26.91-7.06q23.15,0,37.73,15.78t14.58,42.24q0,26.46-14.58,42.24t-37.73,15.79A51.64,51.64,0,0,1,889,379.52Zm43-26.15q5.87-8.58,5.87-24.81T932,303.76a18.47,18.47,0,0,0-16.08-8.57q-9.92,0-15.93,8.42t-6,24.95q0,16.54,6,25t15.93,8.41A18.46,18.46,0,0,0,932,353.37Z" style="fill:url(#Dégradé_sans_nom_394-8)"/></g></g></g></g></svg>