<svg xmlns="http://www.w3.org/2000/svg" xmlns:xlink="http://www.w3.org/1999/xlink" viewBox="0 0 1085.3 526.57"><defs><clipPath id="clip-path"><path d="M735.05,0H40.36A40.36,40.36,0,0,0,0,40.36V486.21a40.36,40.36,0,0,0,40.36,40.36H1044.94a40.36,40.36,0,0,0,40.36-40.36V40.36A40.36,40.36,0,0,0,1044.94,0Z" style="fill:none"/></clipPath><linearGradient id="Dégradé_sans_nom_751" y1="263.28" x2="1085.3" y2="263.28" gradientUnits="userSpaceOnUse"><stop offset="0" stop-color="#312783"/><stop offset="1" stop-color="#312783"/></linearGradient><radialGradient id="Dégradé_sans_nom_74" cx="-93.57" cy="-2927.21" r="193.62" gradientTransform="translate(804.74 4241.62) scale(2.8 1.36)" gradientUnits="userSpaceOnUse"><stop offset="0" stop-color="#312783"/><stop offset="1" stop-color="#312783" stop-opacity="0"/></radialGradient><linearGradient id="Dégradé_sans_nom_84" x1="542.65" y1="-44.1" x2="542.65" y2="242.55" gradientUnits="userSpaceOnUse"><stop offset="0" stop-color="#1f1c4d"/><stop offset="1" stop-color="#201c4f" stop-opacity="0"/></linearGradient><radialGradient id="Dégradé_sans_nom_6" cx="-92.8" cy="-1714.52" r="251.99" gradientTransform="translate(802.6 5072.18) scale(2.8 2.8)" gradientUnits="userSpaceOnUse"><stop offset="0.01" stop-opacity="0"/><stop offset="0.11" stop-opacity="0.16"/><stop offset="1" stop-opacity="0.7"/></radialGradient></defs><g style="isolation:isolate"><g id="TEXT_AND_INFOS" data-name="TEXT AND INFOS"><g style="clip-path:url(#clip-path)"><rect width="1085.3" height="526.57" style="fill:url(#Dégradé_sans_nom_751)"/><rect y="0.66" width="1085.3" height="525.91" style="fill:url(#Dégradé_sans_nom_74)"/><rect y="0.66" width="1085.3" height="525.91" style="fill:url(#Dégradé_sans_nom_84)"/><g style="mix-blend-mode:multiply"><rect x="-1.79" y="-280.82" width="1088.88" height="1088.87" style="fill:url(#Dégradé_sans_nom_6)"/></g><path d="M329.43,85.39a24.3,24.3,0,0,1-9.51-9,24.56,24.56,0,0,1-3.44-12.88,24.56,24.56,0,0,1,3.44-12.88,24.23,24.23,0,0,1,9.51-9,30.1,30.1,0,0,1,27.25,0,24.79,24.79,0,0,1,0,43.74,30.1,30.1,0,0,1-27.25,0Zm21.41-8.3a14.18,14.18,0,0,0,5.45-5.52,17.35,17.35,0,0,0,0-16.1A14.11,14.11,0,0,0,350.84,50a16.26,16.26,0,0,0-15.55,0,14.18,14.18,0,0,0-5.45,5.52,17.43,17.43,0,0,0,0,16.1,14.24,14.24,0,0,0,5.45,5.52,16.26,16.26,0,0,0,15.55,0Z" style="fill:#fff"/><path d="M383.51,82.89q-5.81-5.76-5.8-16.46V39.22H389V66q0,13,10.83,13c3.51,0,6.2-1,8-3.16s2.78-5.4,2.78-9.89V39.22h11.1V66.43q0,10.69-5.79,16.46t-16.21,5.76Q389.29,88.65,383.51,82.89Z" style="fill:#fff"/><path d="M463.79,87.82l-9.37-13.54H444.08V87.82H432.83V39.22h21a27.13,27.13,0,0,1,11.22,2.15A16.09,16.09,0,0,1,475,56.85,15.86,15.86,0,0,1,465,72.2l10.9,15.62Zm-2.85-37.25c-1.75-1.46-4.32-2.18-7.7-2.18h-9.16V65.32h9.16q5.07,0,7.7-2.22a7.71,7.71,0,0,0,2.64-6.25A7.69,7.69,0,0,0,460.94,50.57Z" style="fill:#fff"/><path d="M535.5,77.4H512.94l-4.3,10.42H497.11l21.66-48.6h11.11l21.73,48.6h-11.8ZM532,68.86l-7.71-18.6-7.7,18.6Z" style="fill:#fff"/><path d="M561,82.89q-5.79-5.76-5.79-16.46V39.22h11.24V66q0,13,10.83,13,5.28,0,8.05-3.16T588.12,66V39.22h11.11V66.43q0,10.69-5.8,16.46t-16.21,5.76Q566.81,88.65,561,82.89Z" style="fill:#fff"/><path d="M610.34,39.22h22.07a31.06,31.06,0,0,1,14,3,22.54,22.54,0,0,1,9.44,8.51,23.84,23.84,0,0,1,3.37,12.77,23.84,23.84,0,0,1-3.37,12.77,22.61,22.61,0,0,1-9.44,8.51,31.06,31.06,0,0,1-14,3H610.34Zm21.52,39.36q7.29,0,11.62-4.06t4.34-11q0-6.94-4.34-11t-11.62-4.07H621.58V78.58Z" style="fill:#fff"/><path d="M667.68,39.22h11.24v48.6H667.68Z" style="fill:#fff"/><path d="M700.51,48.39H685V39.22h42.35v9.17H711.76V87.82H700.51Z" style="fill:#fff"/><path d="M737.83,87.09A26.28,26.28,0,0,1,729.18,83L733,74.56a26.18,26.18,0,0,0,7.43,3.68A28.07,28.07,0,0,0,749,79.62q4.79,0,7.08-1.42a4.29,4.29,0,0,0,2.29-3.78,3.61,3.61,0,0,0-1.35-2.88,10.14,10.14,0,0,0-3.48-1.84q-2.12-.69-5.72-1.53a78.8,78.8,0,0,1-9.1-2.64,14.8,14.8,0,0,1-6.07-4.23,11.45,11.45,0,0,1-2.53-7.78,13.51,13.51,0,0,1,2.29-7.67,15.33,15.33,0,0,1,6.9-5.45,28.24,28.24,0,0,1,11.28-2,37.42,37.42,0,0,1,9.1,1.11,26.78,26.78,0,0,1,7.77,3.19L764,51.23a27.16,27.16,0,0,0-13.47-3.82c-3.14,0-5.47.51-7,1.53a4.66,4.66,0,0,0-2.26,4,3.94,3.94,0,0,0,2.6,3.71,41.24,41.24,0,0,0,8,2.4,81.1,81.1,0,0,1,9.1,2.63,15,15,0,0,1,6.07,4.17,11.18,11.18,0,0,1,2.54,7.71,13.29,13.29,0,0,1-2.33,7.6,15.7,15.7,0,0,1-7,5.45,28.46,28.46,0,0,1-11.31,2A39.76,39.76,0,0,1,737.83,87.09Z" style="fill:#fff"/><polygon points="350.25 0 0 0 0 526.57 350.25 526.57 1085.3 526.57 1085.3 0 350.25 0" style="fill:none"/><path d="M98,439.91a14.27,14.27,0,0,1-5.6-5.32,15.48,15.48,0,0,1,0-15.36,14.31,14.31,0,0,1,5.6-5.31,17.93,17.93,0,0,1,14.78-.6,13.53,13.53,0,0,1,5.09,3.79l-4.28,3.95a9.21,9.21,0,0,0-7.25-3.37,9.64,9.64,0,0,0-4.78,1.17,8.32,8.32,0,0,0-3.27,3.28,10.25,10.25,0,0,0,0,9.55,8.29,8.29,0,0,0,3.27,3.27,9.54,9.54,0,0,0,4.78,1.18,9.17,9.17,0,0,0,7.25-3.42l4.28,3.95a13.32,13.32,0,0,1-5.11,3.83,16.89,16.89,0,0,1-6.79,1.32A16.62,16.62,0,0,1,98,439.91Z" style="fill:#788cff"/><path d="M146.84,436v5.36H124.52V412.5h21.79v5.35H131.15v6.26h13.39v5.19H131.15V436Z" style="fill:#788cff"/><path d="M172.7,441.33l-5.56-8H161v8h-6.67V412.5h12.47a16.25,16.25,0,0,1,6.66,1.27,9.55,9.55,0,0,1,5.86,9.19,9.37,9.37,0,0,1-5.93,9.1l6.47,9.27ZM171,419.23a7.06,7.06,0,0,0-4.58-1.3H161V428h5.43a7,7,0,0,0,4.58-1.31,5.22,5.22,0,0,0,0-7.44Z" style="fill:#788cff"/><path d="M192.35,417.93h-9.23V412.5h25.12v5.43H199v23.4h-6.67Z" style="fill:#788cff"/><path d="M214,412.5h6.67v28.83H214Z" style="fill:#788cff"/><path d="M240.2,430l-3.87,4v7.29H229.7V412.5h6.63V426L249.1,412.5h7.41l-11.94,12.85,12.64,16h-7.78Z" style="fill:#788cff"/><path d="M441.45,440.89a15.5,15.5,0,0,1-5.13-2.4l2.26-5a15.14,15.14,0,0,0,4.41,2.18,16.51,16.51,0,0,0,5.11.83,8.1,8.1,0,0,0,4.2-.85,2.56,2.56,0,0,0,1.36-2.24,2.13,2.13,0,0,0-.81-1.71,6,6,0,0,0-2.06-1.09c-.83-.28-2-.58-3.39-.91a47,47,0,0,1-5.4-1.56,8.75,8.75,0,0,1-3.6-2.51,6.83,6.83,0,0,1-1.51-4.62,8.08,8.08,0,0,1,1.36-4.55,9.22,9.22,0,0,1,4.1-3.23A16.68,16.68,0,0,1,449,412a22.17,22.17,0,0,1,5.4.65,15.76,15.76,0,0,1,4.61,1.9L457,419.62a16,16,0,0,0-8-2.26,7.47,7.47,0,0,0-4.14.91,2.74,2.74,0,0,0-1.33,2.38,2.34,2.34,0,0,0,1.54,2.21,24.46,24.46,0,0,0,4.72,1.42,47.34,47.34,0,0,1,5.39,1.56,9,9,0,0,1,3.6,2.47,6.6,6.6,0,0,1,1.51,4.57,7.87,7.87,0,0,1-1.38,4.51,9.3,9.3,0,0,1-4.14,3.24,17,17,0,0,1-6.71,1.19A23.46,23.46,0,0,1,441.45,440.89Z" style="fill:#788cff"/><path d="M472.91,439.89a14.36,14.36,0,0,1-5.64-5.34,14.7,14.7,0,0,1,5.64-20.61,17.88,17.88,0,0,1,16.16,0,14.37,14.37,0,0,1,7.7,13,14.4,14.4,0,0,1-7.7,13,17.88,17.88,0,0,1-16.16,0Zm12.7-4.93a8.42,8.42,0,0,0,3.24-3.27,10.33,10.33,0,0,0,0-9.55,8.44,8.44,0,0,0-3.24-3.28,9.67,9.67,0,0,0-9.22,0,8.42,8.42,0,0,0-3.23,3.28,10.25,10.25,0,0,0,0,9.55,8.39,8.39,0,0,0,3.23,3.27,9.6,9.6,0,0,0,9.22,0Z" style="fill:#788cff"/><path d="M504,412.5h6.67v23.39h14.46v5.44H504Z" style="fill:#788cff"/><path d="M531,412.5h6.67v28.83H531Z" style="fill:#788cff"/><path d="M546.73,412.5h13.1a18.45,18.45,0,0,1,8.29,1.79,13.39,13.39,0,0,1,5.6,5,15.35,15.35,0,0,1,0,15.15,13.46,13.46,0,0,1-5.6,5.05,18.45,18.45,0,0,1-8.29,1.79h-13.1Zm12.76,23.35a9.65,9.65,0,0,0,6.9-2.41,9.54,9.54,0,0,0,0-13.05,9.65,9.65,0,0,0-6.9-2.41H553.4v17.87Z" style="fill:#788cff"/><path d="M582.93,412.5h6.67v28.83h-6.67Z" style="fill:#788cff"/><path d="M604.59,417.93h-9.23V412.5h25.13v5.43h-9.23v23.4h-6.67Z" style="fill:#788cff"/><path d="M639.55,431.11v10.22h-6.67V431L621.72,412.5h7.09l7.7,12.81,7.7-12.81h6.55Z" style="fill:#788cff"/><path d="M775.71,412.5h6.67v28.83h-6.67Z" style="fill:#788cff"/><path d="M817.64,441.33l0-17.3-8.48,14.25h-3l-8.44-13.88v16.93H791.4V412.5h5.52l10.79,17.91,10.63-17.91h5.47l.09,28.83Z" style="fill:#788cff"/><path d="M859.15,441.33l0-17.3-8.49,14.25h-3l-8.45-13.88v16.93h-6.26V412.5h5.52l10.79,17.91,10.63-17.91h5.48l.08,28.83Z" style="fill:#788cff"/><path d="M877.62,438.4q-3.43-3.42-3.44-9.76V412.5h6.67v15.9q0,7.74,6.43,7.74a6,6,0,0,0,4.77-1.88c1.1-1.24,1.65-3.2,1.65-5.86V412.5h6.59v16.14q0,6.35-3.44,9.76t-9.62,3.42Q881.07,441.82,877.62,438.4Z" style="fill:#788cff"/><path d="M935.5,412.5v28.83H930l-14.37-17.51v17.51h-6.59V412.5h5.52L928.91,430V412.5Z" style="fill:#788cff"/><path d="M966.84,436v5.36H944.52V412.5H966.3v5.35H951.15v6.26h13.38v5.19H951.15V436Z" style="fill:#788cff"/><path d="M981,417.85v7.62h13.34v5.36H981v10.5h-6.68V412.5h21.79v5.35Z" style="fill:#788cff"/><path d="M1002.83,412.5h6.67v28.83h-6.67Z" style="fill:#788cff"/><path d="M574.08,165.33l-31.6,56.17H479.31l31.58-56.17h63.19" style="fill:#fff;opacity:0.449999988079071;isolation:isolate"/><path d="M542.48,221.5h63.18l-31.58-56.17H510.89Z" style="fill:#fff;opacity:0.600000023841858;isolation:isolate"/><path d="M510.89,277.64l31.59-56.14-31.59-56.17L479.31,221.5Z" style="fill:#fff;opacity:0.800000011920929;isolation:isolate"/><path d="M511.2,361.9l31.6-56.17H606L574.38,361.9H511.2" style="fill:#fff;opacity:0.449999988079071;isolation:isolate"/><path d="M542.8,305.73H479.62L511.2,361.9h63.18Z" style="fill:#fff;opacity:0.600000023841858;isolation:isolate"/><path d="M574.38,249.58,542.8,305.73l31.58,56.17L606,305.73Z" style="fill:#fff;opacity:0.800000011920929;isolation:isolate"/><path d="M172.7,181.56l50.85,15.35a3.26,3.26,0,0,1,.42,5.76,3.3,3.3,0,0,1-2.28.43l-49-14.8-48.86,14.8a3.25,3.25,0,0,1-3.7-2.26,3.25,3.25,0,0,1,1.84-3.93Z" style="fill:#fff;fill-rule:evenodd"/><path d="M246,205.94a3.34,3.34,0,0,0-.94-1.82,3.35,3.35,0,0,0-5.3.86l-29.47,57.47H135.2L105.76,205a3.41,3.41,0,0,0-1.36-1.38,3.37,3.37,0,0,0-1.89-.42,3.33,3.33,0,0,0-3,2.76,144.9,144.9,0,0,0,2.86,55.76c7.24,28.75,25.48,62.09,68.95,83.29l1.42.68,1.41-.68c43.43-21.2,61.8-54.54,69-83.26A144.28,144.28,0,0,0,246,205.94ZM108.62,260.15a143.4,143.4,0,0,1-3.87-42.95l25.61,49.93,34.69,67.28C130.11,314.23,114.93,285.36,108.62,260.15Zm64.09,74.91-34.16-66.14H207Zm64.13-74.91c-6.35,25.17-21.58,54.05-56.5,74.23l34.84-67.22,25.6-49.87A143.5,143.5,0,0,1,236.84,260.15Z" style="fill:#fff;fill-rule:evenodd"/><path d="M840.29,250.83l52.49,53.43,51.93-52.86,42.58,43.34L937.82,345.1l-12.73-12.61,37.09-37.75L944.71,277l-51.93,52.86L840.29,276.4,823,294l37.65,38.32L848,344.89l-50-50.93Z" style="fill:#fff;fill-rule:evenodd"/><path d="M944.93,276.39,892.43,223,840.5,275.82l-42.58-43.34,49.48-50.36,12.72,12.61L823,232.48l17.46,17.78,51.93-52.86,52.5,53.43,17.25-17.56-37.65-38.33,12.73-12.61,50,50.94Z" style="fill:#fff;fill-rule:evenodd"/><path d="M884.6,343.85V310.18h17.14v33.67Z" style="fill:#fff;fill-rule:evenodd"/><path d="M884.6,217V183.38h17.14V217Z" style="fill:#fff;fill-rule:evenodd"/></g></g></g></svg>