<svg xmlns="http://www.w3.org/2000/svg" viewBox="0 0 186.22 186.22"><g id="TEXT_AND_INFOS" data-name="TEXT AND INFOS"><path d="M93.07,14.19,142,29a3.07,3.07,0,0,1,1.6,1.55,3.12,3.12,0,0,1-3.38,4.4L93.07,20.68l-47,14.23a3.1,3.1,0,0,1-2.19-.4,3.14,3.14,0,0,1-1.37-1.77,3.18,3.18,0,0,1,.16-2.23A3.12,3.12,0,0,1,44.29,29Z" style="fill:#fff;fill-rule:evenodd"/><path d="M163.6,37.64a3.25,3.25,0,0,0-.92-1.74,3.18,3.18,0,0,0-1.76-.88,3.17,3.17,0,0,0-3.33,1.71L129.25,92H57L28.69,36.73a3.25,3.25,0,0,0-1.31-1.34,3.29,3.29,0,0,0-1.82-.4,3.22,3.22,0,0,0-2.91,2.65A139.23,139.23,0,0,0,25.4,91.27c7,27.65,24.51,59.72,66.31,80.1l1.37.66,1.35-.66C136.2,151,153.87,118.92,160.76,91.3A139,139,0,0,0,163.6,37.64ZM31.44,89.78a137.7,137.7,0,0,1-3.72-41.3l24.63,48L85.72,161.2C52.11,141.79,37.51,114,31.44,89.78Zm61.64,72L60.22,98.22h65.83Zm61.67-72c-6.11,24.21-20.75,52-54.33,71.4l33.5-64.65,24.62-48A137.51,137.51,0,0,1,154.75,89.78Z" style="fill:#fff;fill-rule:evenodd"/></g></svg>