<svg xmlns="http://www.w3.org/2000/svg" xmlns:xlink="http://www.w3.org/1999/xlink" viewBox="0 0 1049.21 1049.21"><defs><clipPath id="clip-path"><circle cx="524.6" cy="524.6" r="524.6" style="fill:none"/></clipPath><radialGradient id="Dégradé_sans_nom_203" cx="127.84" cy="135.17" r="338.28" gradientTransform="translate(310.94 300.09) scale(1.67 1.67)" gradientUnits="userSpaceOnUse"><stop offset="0.12" stop-color="#312783"/><stop offset="0.3" stop-color="#312783" stop-opacity="0.84"/><stop offset="0.66" stop-color="#312783" stop-opacity="0.42"/><stop offset="1" stop-color="#312783" stop-opacity="0"/></radialGradient><radialGradient id="Dégradé_sans_nom_453" cx="127.84" cy="134.75" r="585.36" gradientTransform="translate(310.94 300.09) scale(1.67 1.67)" gradientUnits="userSpaceOnUse"><stop offset="0" stop-color="#0c0094"/><stop offset="1"/></radialGradient><radialGradient id="Dégradé_sans_nom_619" cx="641.76" cy="-460.73" r="501" gradientTransform="translate(-602.67 583.48) scale(1.82 1.82)" gradientUnits="userSpaceOnUse"><stop offset="0.13" stop-color="#0042ff"/><stop offset="0.23" stop-color="#0042ff" stop-opacity="0.91"/><stop offset="0.44" stop-color="#0042ff" stop-opacity="0.68"/><stop offset="0.75" stop-color="#0042ff" stop-opacity="0.32"/><stop offset="1" stop-color="#0042ff" stop-opacity="0"/></radialGradient><radialGradient id="Dégradé_sans_nom_619-2" cx="618.14" cy="608.69" r="475.27" xlink:href="#Dégradé_sans_nom_619"/><radialGradient id="Dégradé_sans_nom_620" cx="574.3" cy="-446.48" r="272.15" gradientTransform="translate(-602.67 583.48) scale(1.82 1.82)" gradientUnits="userSpaceOnUse"><stop offset="0" stop-color="#0042ff"/><stop offset="0.12" stop-color="#0042ff" stop-opacity="0.91"/><stop offset="0.36" stop-color="#0042ff" stop-opacity="0.68"/><stop offset="0.71" stop-color="#0042ff" stop-opacity="0.32"/><stop offset="1" stop-color="#0042ff" stop-opacity="0"/></radialGradient><radialGradient id="Dégradé_sans_nom_620-2" cx="631.54" cy="-119.28" r="122.01" xlink:href="#Dégradé_sans_nom_620"/><radialGradient id="Dégradé_sans_nom_620-3" cx="448.95" cy="-352.04" r="336.35" xlink:href="#Dégradé_sans_nom_620"/><radialGradient id="Dégradé_sans_nom_620-4" cx="591.09" cy="-129.96" r="196" xlink:href="#Dégradé_sans_nom_620"/><radialGradient id="Dégradé_sans_nom_620-5" cx="603.3" cy="-207.8" r="181.58" xlink:href="#Dégradé_sans_nom_620"/><radialGradient id="Dégradé_sans_nom_620-6" cx="368.25" cy="-470.52" r="302.45" xlink:href="#Dégradé_sans_nom_620"/><radialGradient id="Dégradé_sans_nom_620-7" cx="-8796.52" cy="3038.08" r="752.92" gradientTransform="translate(6411.07 -1787.54) scale(0.69 0.69)" xlink:href="#Dégradé_sans_nom_620"/><radialGradient id="Dégradé_sans_nom_620-8" cx="638.4" cy="78.38" r="177.98" xlink:href="#Dégradé_sans_nom_620"/><radialGradient id="Dégradé_sans_nom_620-9" cx="612.08" cy="109.86" r="188.91" xlink:href="#Dégradé_sans_nom_620"/><radialGradient id="Dégradé_sans_nom_620-10" cx="277.43" cy="-149.04" r="213.54" xlink:href="#Dégradé_sans_nom_620"/><radialGradient id="Dégradé_sans_nom_620-11" cx="83.21" cy="-94.47" r="405.95" xlink:href="#Dégradé_sans_nom_620"/><radialGradient id="Dégradé_sans_nom_620-12" cx="274.38" cy="45.57" r="347.93" xlink:href="#Dégradé_sans_nom_620"/><radialGradient id="Dégradé_sans_nom_620-13" cx="316.73" cy="-106.49" r="204.4" xlink:href="#Dégradé_sans_nom_620"/><radialGradient id="Dégradé_sans_nom_620-14" cx="863.9" cy="-30.09" r="158.12" xlink:href="#Dégradé_sans_nom_620"/><radialGradient id="Dégradé_sans_nom_620-15" cx="897.15" cy="160.01" r="70.89" xlink:href="#Dégradé_sans_nom_620"/><radialGradient id="Dégradé_sans_nom_620-16" cx="791.07" cy="24.78" r="195.41" xlink:href="#Dégradé_sans_nom_620"/><radialGradient id="Dégradé_sans_nom_620-17" cx="873.65" cy="153.8" r="113.87" xlink:href="#Dégradé_sans_nom_620"/><radialGradient id="Dégradé_sans_nom_620-18" cx="880.75" cy="108.58" r="105.5" xlink:href="#Dégradé_sans_nom_620"/><radialGradient id="Dégradé_sans_nom_620-19" cx="744.18" cy="-44.06" r="175.72" xlink:href="#Dégradé_sans_nom_620"/><radialGradient id="Dégradé_sans_nom_620-20" cx="-7950.41" cy="3798.06" r="437.44" gradientTransform="translate(6411.07 -1787.54) scale(0.69 0.69)" xlink:href="#Dégradé_sans_nom_620"/><radialGradient id="Dégradé_sans_nom_620-21" cx="901.14" cy="274.85" r="103.4" xlink:href="#Dégradé_sans_nom_620"/><radialGradient id="Dégradé_sans_nom_620-22" cx="885.85" cy="293.14" r="109.76" xlink:href="#Dégradé_sans_nom_620"/><radialGradient id="Dégradé_sans_nom_620-23" cx="691.42" cy="142.72" r="124.06" xlink:href="#Dégradé_sans_nom_620"/><radialGradient id="Dégradé_sans_nom_620-24" cx="578.58" cy="174.42" r="235.85" xlink:href="#Dégradé_sans_nom_620"/><radialGradient id="Dégradé_sans_nom_620-25" cx="689.65" cy="255.78" r="202.14" xlink:href="#Dégradé_sans_nom_620"/><radialGradient id="Dégradé_sans_nom_620-26" cx="714.26" cy="167.44" r="118.75" xlink:href="#Dégradé_sans_nom_620"/><radialGradient id="Dégradé_sans_nom_620-27" cx="11802.76" cy="-2027.9" r="240.82" gradientTransform="translate(21910.33 -2444.82) rotate(180) scale(1.82 1.82)" xlink:href="#Dégradé_sans_nom_620"/><radialGradient id="Dégradé_sans_nom_620-28" cx="11853.41" cy="-1738.36" r="107.97" gradientTransform="translate(21910.33 -2444.82) rotate(180) scale(1.82 1.82)" xlink:href="#Dégradé_sans_nom_620"/><radialGradient id="Dégradé_sans_nom_620-29" cx="11691.84" cy="-1944.33" r="297.63" gradientTransform="translate(21910.33 -2444.82) rotate(180) scale(1.82 1.82)" xlink:href="#Dégradé_sans_nom_620"/><radialGradient id="Dégradé_sans_nom_620-30" cx="11817.62" cy="-1747.82" r="173.44" gradientTransform="translate(21910.33 -2444.82) rotate(180) scale(1.82 1.82)" xlink:href="#Dégradé_sans_nom_620"/><radialGradient id="Dégradé_sans_nom_620-31" cx="11828.42" cy="-1816.7" r="160.68" gradientTransform="translate(21910.33 -2444.82) rotate(180) scale(1.82 1.82)" xlink:href="#Dégradé_sans_nom_620"/><radialGradient id="Dégradé_sans_nom_620-32" cx="11620.43" cy="-2049.17" r="267.63" gradientTransform="translate(21910.33 -2444.82) rotate(180) scale(1.82 1.82)" xlink:href="#Dégradé_sans_nom_620"/><radialGradient id="Dégradé_sans_nom_620-33" cx="20716.38" cy="-1206.86" r="666.25" gradientTransform="translate(14896.6 -73.79) rotate(180) scale(0.69 0.69)" xlink:href="#Dégradé_sans_nom_620"/><radialGradient id="Dégradé_sans_nom_620-34" cx="11859.49" cy="-1563.46" r="157.49" gradientTransform="translate(21910.33 -2444.82) rotate(180) scale(1.82 1.82)" xlink:href="#Dégradé_sans_nom_620"/><radialGradient id="Dégradé_sans_nom_620-35" cx="11836.19" cy="-1535.6" r="167.17" gradientTransform="translate(21910.33 -2444.82) rotate(180) scale(1.82 1.82)" xlink:href="#Dégradé_sans_nom_620"/><radialGradient id="Dégradé_sans_nom_620-36" cx="11540.07" cy="-1764.7" r="188.96" gradientTransform="translate(21910.33 -2444.82) rotate(180) scale(1.82 1.82)" xlink:href="#Dégradé_sans_nom_620"/><radialGradient id="Dégradé_sans_nom_620-37" cx="11368.2" cy="-1716.41" r="359.22" gradientTransform="translate(21910.33 -2444.82) rotate(180) scale(1.82 1.82)" xlink:href="#Dégradé_sans_nom_620"/><radialGradient id="Dégradé_sans_nom_620-38" cx="11537.37" cy="-1592.5" r="307.88" gradientTransform="translate(21910.33 -2444.82) rotate(180) scale(1.82 1.82)" xlink:href="#Dégradé_sans_nom_620"/><radialGradient id="Dégradé_sans_nom_620-39" cx="11574.85" cy="-1727.05" r="180.87" gradientTransform="translate(21910.33 -2444.82) rotate(180) scale(1.82 1.82)" xlink:href="#Dégradé_sans_nom_620"/><radialGradient id="Dégradé_sans_nom_625" cx="618.14" cy="-32.29" r="287.49" gradientTransform="translate(-602.67 583.48) scale(1.82 1.82)" gradientUnits="userSpaceOnUse"><stop offset="0.13" stop-color="#0042ff"/><stop offset="0.2" stop-color="#0042ff" stop-opacity="0.91"/><stop offset="0.36" stop-color="#0042ff" stop-opacity="0.68"/><stop offset="0.58" stop-color="#0042ff" stop-opacity="0.32"/><stop offset="0.77" stop-color="#0042ff" stop-opacity="0"/></radialGradient><linearGradient id="Dégradé_sans_nom_626" x1="839.02" y1="356.89" x2="971.22" y2="319.29" gradientTransform="matrix(1, 0, 0, 1, 0, 0)" xlink:href="#Dégradé_sans_nom_625"/><linearGradient id="Dégradé_sans_nom_626-2" x1="108.41" y1="786.5" x2="238.19" y2="687.04" gradientTransform="matrix(1, 0, 0, 1, 0, 0)" xlink:href="#Dégradé_sans_nom_625"/><linearGradient id="Dégradé_sans_nom_626-3" x1="726.62" y1="79.33" x2="641.72" y2="165.45" gradientTransform="matrix(1, 0, 0, 1, 0, 0)" xlink:href="#Dégradé_sans_nom_625"/><linearGradient id="Dégradé_sans_nom_626-4" x1="356.45" y1="1032.48" x2="394.05" y2="913.62" gradientTransform="matrix(1, 0, 0, 1, 0, 0)" xlink:href="#Dégradé_sans_nom_625"/><linearGradient id="Dégradé_sans_nom_626-5" x1="613.14" y1="861.07" x2="696.83" y2="973.87" gradientTransform="matrix(1, 0, 0, 1, 0, 0)" xlink:href="#Dégradé_sans_nom_625"/></defs><g id="TEXT_AND_INFOS" data-name="TEXT AND INFOS"><g style="clip-path:url(#clip-path)"><rect x="-41.12" y="-39.01" width="1131.45" height="1130.04" style="fill:url(#Dégradé_sans_nom_203)"/><rect x="-41.12" y="-40.42" width="1131.45" height="1131.45" style="fill:url(#Dégradé_sans_nom_453)"/><rect x="-41.12" y="-40.42" width="1131.45" height="1130.04" style="fill:url(#Dégradé_sans_nom_619)"/><rect x="-41.12" y="-40.42" width="1131.45" height="1130.04" style="fill:url(#Dégradé_sans_nom_619-2)"/></g><polygon points="576.18 166.33 288.09 0 288.09 332.66 576.18 166.33" style="fill:url(#Dégradé_sans_nom_620)"/><polygon points="288.09 332.66 463.02 433.65 463.02 231.66 288.09 332.66" style="fill:url(#Dégradé_sans_nom_620-2)"/><polygon points="288.09 332.66 576.18 498.99 576.18 166.33 288.09 332.66" style="fill:url(#Dégradé_sans_nom_620-3)"/><polygon points="288.09 130.67 113.16 231.66 288.09 332.66 288.09 130.67" style="fill:url(#Dégradé_sans_nom_620-4)"/><polygon points="288.09 130.67 463.02 231.66 288.09 332.66 288.09 130.67" style="fill:url(#Dégradé_sans_nom_620-5)"/><polygon points="288.09 0 0 166.33 288.09 332.66 288.09 0" style="fill:url(#Dégradé_sans_nom_620-6)"/><polygon points="288.09 534.65 463.02 433.65 288.09 332.66 288.09 534.65" style="fill:url(#Dégradé_sans_nom_620-7)"/><polygon points="288.09 534.65 463.02 433.65 288.09 332.66 288.09 534.65" style="fill:url(#Dégradé_sans_nom_620-8)"/><polygon points="288.09 665.32 576.18 498.99 288.09 332.66 288.09 665.32" style="fill:url(#Dégradé_sans_nom_620-9)"/><polygon points="113.16 231.66 113.16 433.65 288.09 332.66 113.16 231.66" style="fill:url(#Dégradé_sans_nom_620-10)"/><polygon points="0 166.33 0 498.99 288.09 332.66 0 166.33" style="fill:url(#Dégradé_sans_nom_620-11)"/><polygon points="113.16 433.65 288.09 534.65 288.09 332.66 113.16 433.65" style="fill:url(#Dégradé_sans_nom_620-12)"/><polygon points="0 498.99 288.09 665.32 288.09 332.66 0 498.99" style="fill:url(#Dégradé_sans_nom_620-13)"/><polygon points="1049.21 759.3 881.83 662.66 881.83 855.94 1049.21 759.3" style="fill:url(#Dégradé_sans_nom_620-14)"/><polygon points="881.83 855.94 983.46 914.61 983.46 797.26 881.83 855.94" style="fill:url(#Dégradé_sans_nom_620-15)"/><polygon points="881.83 855.94 1049.21 952.57 1049.21 759.3 881.83 855.94" style="fill:url(#Dégradé_sans_nom_620-16)"/><polygon points="881.83 738.58 780.2 797.26 881.83 855.94 881.83 738.58" style="fill:url(#Dégradé_sans_nom_620-17)"/><polygon points="881.83 738.58 983.46 797.26 881.83 855.94 881.83 738.58" style="fill:url(#Dégradé_sans_nom_620-18)"/><polygon points="881.83 662.66 714.45 759.3 881.83 855.94 881.83 662.66" style="fill:url(#Dégradé_sans_nom_620-19)"/><polygon points="881.83 973.29 983.46 914.61 881.83 855.94 881.83 973.29" style="fill:url(#Dégradé_sans_nom_620-20)"/><polygon points="881.83 973.29 983.46 914.61 881.83 855.94 881.83 973.29" style="fill:url(#Dégradé_sans_nom_620-21)"/><polygon points="881.83 1049.21 1049.21 952.57 881.83 855.94 881.83 1049.21" style="fill:url(#Dégradé_sans_nom_620-22)"/><polygon points="780.2 797.26 780.2 914.61 881.83 855.94 780.2 797.26" style="fill:url(#Dégradé_sans_nom_620-23)"/><polygon points="714.45 759.3 714.45 952.57 881.83 855.94 714.45 759.3" style="fill:url(#Dégradé_sans_nom_620-24)"/><polygon points="780.2 914.61 881.83 973.29 881.83 855.94 780.2 914.61" style="fill:url(#Dégradé_sans_nom_620-25)"/><polygon points="714.45 952.57 881.83 1049.21 881.83 855.94 714.45 952.57" style="fill:url(#Dégradé_sans_nom_620-26)"/><polygon points="269.68 902.03 524.6 1049.21 524.6 754.84 269.68 902.03" style="fill:url(#Dégradé_sans_nom_620-27)"/><polygon points="524.6 754.84 369.81 665.48 369.81 844.21 524.6 754.84" style="fill:url(#Dégradé_sans_nom_620-28)"/><polygon points="524.6 754.84 269.68 607.66 269.68 902.03 524.6 754.84" style="fill:url(#Dégradé_sans_nom_620-29)"/><polygon points="524.6 933.58 679.39 844.21 524.6 754.84 524.6 933.58" style="fill:url(#Dégradé_sans_nom_620-30)"/><polygon points="524.6 933.58 369.81 844.21 524.6 754.84 524.6 933.58" style="fill:url(#Dégradé_sans_nom_620-31)"/><polygon points="524.6 1049.21 779.53 902.03 524.6 754.84 524.6 1049.21" style="fill:url(#Dégradé_sans_nom_620-32)"/><polygon points="524.6 576.11 369.81 665.48 524.6 754.84 524.6 576.11" style="fill:url(#Dégradé_sans_nom_620-33)"/><polygon points="524.6 576.11 369.81 665.48 524.6 754.84 524.6 576.11" style="fill:url(#Dégradé_sans_nom_620-34)"/><polygon points="524.6 460.48 269.68 607.66 524.6 754.84 524.6 460.48" style="fill:url(#Dégradé_sans_nom_620-35)"/><polygon points="679.39 844.21 679.39 665.48 524.6 754.84 679.39 844.21" style="fill:url(#Dégradé_sans_nom_620-36)"/><polygon points="779.53 902.03 779.53 607.66 524.6 754.84 779.53 902.03" style="fill:url(#Dégradé_sans_nom_620-37)"/><polygon points="679.39 665.48 524.6 576.11 524.6 754.84 679.39 665.48" style="fill:url(#Dégradé_sans_nom_620-38)"/><polygon points="779.53 607.66 524.6 460.48 524.6 754.84 779.53 607.66" style="fill:url(#Dégradé_sans_nom_620-39)"/><rect y="0.65" width="1049.21" height="1047.9" style="fill:url(#Dégradé_sans_nom_625)"/><polygon points="940.68 312.23 911.46 304.99 890.58 326.67 898.91 355.59 928.13 362.84 949.01 341.16 940.68 312.23" style="fill:url(#Dégradé_sans_nom_626)"/><polygon points="209.77 741.22 205.16 711.47 177.09 700.59 153.63 719.45 158.24 749.2 186.31 760.09 209.77 741.22" style="fill:url(#Dégradé_sans_nom_626-2)"/><polygon points="719.25 125.95 692 90.45 647.65 96.31 630.53 137.65 657.78 173.14 702.14 167.29 719.25 125.95" style="fill:url(#Dégradé_sans_nom_626-3)"/><polygon points="409.39 951.01 388.83 929.02 359.5 935.83 350.74 964.63 371.3 986.62 400.62 979.81 409.39 951.01" style="fill:url(#Dégradé_sans_nom_626-4)"/><polygon points="676.96 918.79 660.37 914.68 648.51 926.99 653.24 943.41 669.83 947.53 681.69 935.22 676.96 918.79" style="fill:url(#Dégradé_sans_nom_626-5)"/><circle cx="524.6" cy="524.6" r="286.71" style="fill:#fff"/><polygon points="433.74 472.14 433.74 577.07 524.61 629.53 615.48 577.07 615.48 472.14 524.61 419.67 433.74 472.14" style="fill:#001670"/><path d="M559.58,314.74a35,35,0,1,0-46.38,33l11.41,54.4L536,347.78A35,35,0,0,0,559.58,314.74Z" style="fill:#001670"/><path d="M489.63,734.46a35,35,0,1,0,46.39-33L524.61,647,513.2,701.43A35,35,0,0,0,489.63,734.46Z" style="fill:#001670"/><path d="M360.35,389.39a35,35,0,1,0,5.41,56.68l52.83,17.32-41.41-37.08A35,35,0,0,0,360.35,389.39Z" style="fill:#001670"/><path d="M688.87,659.82a35,35,0,1,0-5.41-56.69l-52.83-17.31L672,622.9A35,35,0,0,0,688.87,659.82Z" style="fill:#001670"/><path d="M688.87,389.39a35,35,0,1,1-5.41,56.68l-52.83,17.32L672,426.31A35,35,0,0,1,688.87,389.39Z" style="fill:#001670"/><path d="M360.35,659.82a35,35,0,1,1,5.41-56.69l52.83-17.31L377.18,622.9A35,35,0,0,1,360.35,659.82Z" style="fill:#001670"/></g></svg>