<svg xmlns="http://www.w3.org/2000/svg" viewBox="0 0 186.22 186.22"><g id="TEXT_AND_INFOS" data-name="TEXT AND INFOS"><path d="M175.58,66.68,132,22.32l-11.09,11L153.7,66.68l-15,15.3L101.06,43.69V23.23H86.14V42.39L47.73,81.48,32.52,66l32.3-32.88-11.09-11L10.65,66,36.94,92.77l-26.3,26.77L54.22,163.9l11.09-11L32.52,119.54l15-15.29,38.6,39.28V163h14.92V142.84l37.43-38.1,15.21,15.49L121.41,153.1l11.08,11,43.09-43.86-26.3-26.78ZM127.89,93.27,93.26,128.52,58.33,93,93,57.71Z" style="fill:#fff;fill-rule:evenodd"/></g></svg>