<svg xmlns="http://www.w3.org/2000/svg" viewBox="0 0 87.19 87.18"><g id="Calque_2" data-name="Calque 2"><g id="TEXT_AND_INFOS" data-name="TEXT AND INFOS"><path d="M43.59,21.21A22.38,22.38,0,1,0,66,43.59,22.38,22.38,0,0,0,43.59,21.21Zm0,36.91A14.53,14.53,0,1,1,58.12,43.59,14.54,14.54,0,0,1,43.59,58.12Z" style="fill:#788cff"/><path d="M66.86,15.09a5.24,5.24,0,1,0,5.23,5.23A5.23,5.23,0,0,0,66.86,15.09Z" style="fill:#788cff"/><path d="M86.92,25.62A32.26,32.26,0,0,0,84.9,15a21.57,21.57,0,0,0-5-7.71,21.42,21.42,0,0,0-7.73-5,31.82,31.82,0,0,0-10.57-2C56.92.06,55.43,0,43.59,0s-13.32.06-18,.27A31.88,31.88,0,0,0,15,2.29a21.3,21.3,0,0,0-7.72,5,21.31,21.31,0,0,0-5,7.71,32,32,0,0,0-2,10.59C.05,30.27,0,31.75,0,43.59s.05,13.32.26,18a32,32,0,0,0,2,10.59,21.22,21.22,0,0,0,5,7.71,21.47,21.47,0,0,0,7.72,5,32.4,32.4,0,0,0,10.58,2c4.65.21,6.14.26,18,.26s13.33-.05,18-.26a32.33,32.33,0,0,0,10.57-2A22.37,22.37,0,0,0,84.9,72.15a32.26,32.26,0,0,0,2-10.59c.21-4.65.27-6.13.27-18S87.13,30.27,86.92,25.62ZM79.08,61.2a24.2,24.2,0,0,1-1.51,8.1,14.44,14.44,0,0,1-8.27,8.27,23.88,23.88,0,0,1-8.09,1.5c-4.6.21-6,.26-17.62.26s-13,0-17.61-.26a24,24,0,0,1-8.1-1.5,13.39,13.39,0,0,1-5-3.26,13.38,13.38,0,0,1-3.26-5,23.69,23.69,0,0,1-1.51-8.1c-.21-4.59-.26-6-.26-17.61s.05-13,.26-17.61a23.69,23.69,0,0,1,1.51-8.1,13.3,13.3,0,0,1,3.26-5,13.39,13.39,0,0,1,5-3.26A24.26,24.26,0,0,1,26,8.11c4.61-.21,6-.25,17.62-.25s13,0,17.62.25a24.14,24.14,0,0,1,8.09,1.5,13.5,13.5,0,0,1,5,3.26,13.55,13.55,0,0,1,3.26,5A24.2,24.2,0,0,1,79.08,26c.2,4.59.25,6,.25,17.61S79.28,56.61,79.08,61.2Z" style="fill:#788cff"/></g></g></svg>