<svg xmlns="http://www.w3.org/2000/svg" viewBox="0 0 87.31 87.31"><g id="Calque_2" data-name="Calque 2"><g id="TEXT_AND_INFOS" data-name="TEXT AND INFOS"><path d="M76.92,0H10.39A10.4,10.4,0,0,0,0,10.39V76.92A10.4,10.4,0,0,0,10.39,87.31H76.92A10.4,10.4,0,0,0,87.31,76.92V10.39A10.4,10.4,0,0,0,76.92,0ZM68.61,38.09c-.47,0-1,.07-1.43.07a15.57,15.57,0,0,1-13-7v24A17.73,17.73,0,1,1,36.42,37.38c.37,0,.73,0,1.1,0v8.74a10,10,0,0,0-1.1-.11,9,9,0,1,0,0,18.09c5,0,9.41-3.93,9.41-8.93,0-.2.09-40.73.09-40.73h8.35A15.56,15.56,0,0,0,68.61,28.38Z" style="fill:#788cff"/></g></g></svg>