<svg xmlns="http://www.w3.org/2000/svg" xmlns:xlink="http://www.w3.org/1999/xlink" viewBox="0 0 1049.21 1049.21"><defs><clipPath id="clip-path"><circle cx="524.6" cy="524.6" r="524.6" style="fill:none"/></clipPath><radialGradient id="Dégradé_sans_nom_203" cx="156.81" cy="852.14" r="338.28" gradientTransform="translate(262.52 -898.18) scale(1.67 1.67)" gradientUnits="userSpaceOnUse"><stop offset="0.12" stop-color="#312783"/><stop offset="0.3" stop-color="#312783" stop-opacity="0.84"/><stop offset="0.66" stop-color="#312783" stop-opacity="0.42"/><stop offset="1" stop-color="#312783" stop-opacity="0"/></radialGradient><radialGradient id="Dégradé_sans_nom_453" cx="156.81" cy="851.72" r="585.36" gradientTransform="translate(262.52 -898.18) scale(1.67 1.67)" gradientUnits="userSpaceOnUse"><stop offset="0" stop-color="#0c0094"/><stop offset="1"/></radialGradient><linearGradient id="Dégradé_sans_nom_194" x1="524.6" y1="-136.59" x2="524.6" y2="479.35" gradientUnits="userSpaceOnUse"><stop offset="0" stop-color="#1f79c8"/><stop offset="0.04" stop-color="#1f79c8" stop-opacity="0.93"/><stop offset="0.19" stop-color="#1f78c7" stop-opacity="0.65"/><stop offset="0.35" stop-color="#1f77c6" stop-opacity="0.42"/><stop offset="0.49" stop-color="#1f77c5" stop-opacity="0.24"/><stop offset="0.63" stop-color="#1f76c4" stop-opacity="0.11"/><stop offset="0.75" stop-color="#1f76c4" stop-opacity="0.03"/><stop offset="0.84" stop-color="#1f76c4" stop-opacity="0"/></linearGradient><radialGradient id="Dégradé_sans_nom_664" cx="-2459.1" cy="1491.39" r="720.43" gradientTransform="translate(3256.34 -1086.54) scale(1.2 1.2)" gradientUnits="userSpaceOnUse"><stop offset="0" stop-color="#fff" stop-opacity="0"/><stop offset="1" stop-color="#788cff"/></radialGradient><radialGradient id="Dégradé_sans_nom_664-2" cx="-2467.12" cy="1497.14" r="437.44" xlink:href="#Dégradé_sans_nom_664"/><radialGradient id="Dégradé_sans_nom_664-3" cx="630.11" cy="907.64" r="303.19" gradientTransform="translate(-662.08 -886.73) scale(1.82 1.82)" xlink:href="#Dégradé_sans_nom_664"/><radialGradient id="Dégradé_sans_nom_664-5" cx="518.38" cy="690.16" r="236.22" gradientTransform="translate(-662.08 -886.73) scale(1.82 1.82)" xlink:href="#Dégradé_sans_nom_664"/><radialGradient id="Dégradé_sans_nom_664-7" cx="-2467.12" cy="1541.61" r="371.39" xlink:href="#Dégradé_sans_nom_664"/><radialGradient id="Dégradé_sans_nom_664-8" cx="350.78" cy="1076.24" r="296.82" gradientTransform="translate(-662.08 -886.73) scale(1.82 1.82)" xlink:href="#Dégradé_sans_nom_664"/><radialGradient id="Dégradé_sans_nom_664-10" cx="-2546.5" cy="1497.14" r="373.39" xlink:href="#Dégradé_sans_nom_664"/><radialGradient id="Dégradé_sans_nom_664-11" cx="489.45" cy="966.5" r="165.81" gradientTransform="translate(-662.08 -886.73) scale(1.82 1.82)" xlink:href="#Dégradé_sans_nom_664"/><radialGradient id="Dégradé_sans_nom_664-15" cx="435.57" cy="1061.28" r="118.68" gradientTransform="translate(-662.08 -886.73) scale(1.82 1.82)" xlink:href="#Dégradé_sans_nom_664"/><radialGradient id="Dégradé_sans_nom_469" cx="156.81" cy="851.29" r="542.81" gradientTransform="translate(262.52 -898.18) scale(1.67 1.67)" gradientUnits="userSpaceOnUse"><stop offset="0.11" stop-color="#0c0094"/><stop offset="0.2" stop-color="#0c0094" stop-opacity="0.81"/><stop offset="0.39" stop-color="#0c0094" stop-opacity="0.34"/><stop offset="0.52" stop-color="#0c0094" stop-opacity="0"/></radialGradient><radialGradient id="Dégradé_sans_nom_664-16" cx="374.27" cy="689.43" r="140.99" gradientTransform="translate(120.34 -942.88) scale(1.7 1.7)" xlink:href="#Dégradé_sans_nom_664"/><radialGradient id="Dégradé_sans_nom_664-17" cx="-7982.15" cy="2058.14" r="437.44" gradientTransform="translate(6433.11 -1242.03) scale(0.69 0.69)" xlink:href="#Dégradé_sans_nom_664"/><radialGradient id="Dégradé_sans_nom_664-18" cx="-7974.13" cy="2125.63" r="611.65" gradientTransform="translate(6433.11 -1242.03) scale(0.69 0.69)" xlink:href="#Dégradé_sans_nom_664"/><radialGradient id="Dégradé_sans_nom_664-20" cx="401.21" cy="753.28" r="162.59" gradientTransform="translate(120.34 -942.88) scale(1.7 1.7)" xlink:href="#Dégradé_sans_nom_664"/><radialGradient id="Dégradé_sans_nom_664-22" cx="-7982.15" cy="2102.61" r="371.39" gradientTransform="translate(6433.11 -1242.03) scale(0.69 0.69)" xlink:href="#Dégradé_sans_nom_664"/><radialGradient id="Dégradé_sans_nom_664-23" cx="403.2" cy="595.66" r="177.62" gradientTransform="translate(120.34 -942.88) scale(1.7 1.7)" xlink:href="#Dégradé_sans_nom_664"/><radialGradient id="Dégradé_sans_nom_664-25" cx="-8061.54" cy="2058.14" r="373.39" gradientTransform="translate(6433.11 -1242.03) scale(0.69 0.69)" xlink:href="#Dégradé_sans_nom_664"/><radialGradient id="Dégradé_sans_nom_664-26" cx="-8019.79" cy="2064.53" r="481.93" gradientTransform="translate(6433.11 -1242.03) scale(0.69 0.69)" xlink:href="#Dégradé_sans_nom_664"/><linearGradient id="Dégradé_sans_nom_298" x1="490.96" y1="580.1" x2="370.78" y2="671.29" gradientUnits="userSpaceOnUse"><stop offset="0" stop-color="#001670"/><stop offset="1" stop-color="#001670" stop-opacity="0"/></linearGradient><linearGradient id="Dégradé_sans_nom_298-2" x1="595.62" y1="542.54" x2="745.83" y2="583.45" xlink:href="#Dégradé_sans_nom_298"/><linearGradient id="Dégradé_sans_nom_298-3" x1="7118.5" y1="-12933" x2="7268.71" y2="-12892.09" gradientTransform="translate(15264.27 152.39) rotate(-120)" xlink:href="#Dégradé_sans_nom_298"/><linearGradient id="Dégradé_sans_nom_684" x1="385.57" y1="218.33" x2="294.61" y2="133.43" gradientUnits="userSpaceOnUse"><stop offset="0" stop-color="#ebedf4" stop-opacity="0"/><stop offset="1" stop-color="#ebedf4"/></linearGradient><linearGradient id="Dégradé_sans_nom_684-2" x1="6022.29" y1="4320.59" x2="6103.4" y2="4283.08" gradientTransform="translate(2317.57 -6355.84) rotate(67.26)" xlink:href="#Dégradé_sans_nom_684"/><linearGradient id="Dégradé_sans_nom_684-3" x1="168.81" y1="447.53" x2="-17.97" y2="397.8" xlink:href="#Dégradé_sans_nom_684"/><linearGradient id="Dégradé_sans_nom_684-4" x1="973" y1="651.65" x2="1087.82" y2="716.34" xlink:href="#Dégradé_sans_nom_684"/><linearGradient id="Dégradé_sans_nom_684-5" x1="574.61" y1="395.99" x2="626.31" y2="382.3" xlink:href="#Dégradé_sans_nom_684"/><linearGradient id="Dégradé_sans_nom_684-6" x1="822.44" y1="596.49" x2="891.78" y2="623.98" xlink:href="#Dégradé_sans_nom_684"/></defs><g id="TEXT_AND_INFOS" data-name="TEXT AND INFOS"><g style="clip-path:url(#clip-path)"><rect x="-41.12" y="-39.01" width="1131.45" height="1130.04" style="fill:url(#Dégradé_sans_nom_203)"/><rect x="-41.12" y="-40.42" width="1131.45" height="1131.45" style="fill:url(#Dégradé_sans_nom_453)"/><rect x="-41.12" y="-40.42" width="1131.45" height="1130.04" style="fill:url(#Dégradé_sans_nom_194)"/></g><polygon points="577.03 549.48 288.52 382.91 288.52 716.06 577.03 549.48" style="fill:url(#Dégradé_sans_nom_664)"/><polygon points="288.52 716.06 463.7 817.2 463.7 614.91 288.52 716.06" style="fill:url(#Dégradé_sans_nom_664-2)"/><polygon points="288.52 716.06 577.03 882.63 577.03 549.48 288.52 716.06" style="fill:url(#Dégradé_sans_nom_664-3)"/><polygon points="288.52 513.77 113.33 614.91 288.52 716.06 288.52 513.77" style="fill:url(#Dégradé_sans_nom_664-2)"/><polygon points="288.52 382.91 0 549.48 288.52 716.06 288.52 382.91" style="fill:url(#Dégradé_sans_nom_664-5)"/><polygon points="288.52 918.35 463.7 817.2 288.52 716.06 288.52 918.35" style="fill:url(#Dégradé_sans_nom_664-2)"/><polygon points="288.52 918.35 463.7 817.2 288.52 716.06 288.52 918.35" style="fill:url(#Dégradé_sans_nom_664-7)"/><polygon points="288.52 1049.21 577.03 882.63 288.52 716.06 288.52 1049.21" style="fill:url(#Dégradé_sans_nom_664-8)"/><polygon points="113.33 614.91 113.33 817.2 288.52 716.06 113.33 614.91" style="fill:url(#Dégradé_sans_nom_664-2)"/><polygon points="113.33 614.91 113.33 817.2 288.52 716.06 113.33 614.91" style="fill:url(#Dégradé_sans_nom_664-10)"/><polygon points="0 549.48 0 882.63 288.52 716.06 0 549.48" style="fill:url(#Dégradé_sans_nom_664-11)"/><polygon points="113.33 817.2 288.52 918.35 288.52 716.06 113.33 817.2" style="fill:url(#Dégradé_sans_nom_664-2)"/><polygon points="113.33 817.2 288.52 918.35 288.52 716.06 113.33 817.2" style="fill:url(#Dégradé_sans_nom_664-7)"/><polygon points="113.33 817.2 288.52 918.35 288.52 716.06 113.33 817.2" style="fill:url(#Dégradé_sans_nom_664-10)"/><polygon points="0 882.63 288.52 1049.21 288.52 716.06 0 882.63" style="fill:url(#Dégradé_sans_nom_664-15)"/><rect width="1049.21" height="1049.21" style="fill:url(#Dégradé_sans_nom_469)"/><polygon points="1049.21 96.64 881.83 0 881.83 193.27 1049.21 96.64" style="fill:url(#Dégradé_sans_nom_664-16)"/><polygon points="881.83 193.27 983.46 251.95 983.46 134.59 881.83 193.27" style="fill:url(#Dégradé_sans_nom_664-17)"/><polygon points="881.83 193.27 1049.21 289.91 1049.21 96.64 881.83 193.27" style="fill:url(#Dégradé_sans_nom_664-18)"/><polygon points="881.83 75.92 780.2 134.59 881.83 193.27 881.83 75.92" style="fill:url(#Dégradé_sans_nom_664-17)"/><polygon points="881.83 0 714.45 96.64 881.83 193.27 881.83 0" style="fill:url(#Dégradé_sans_nom_664-20)"/><polygon points="881.83 310.63 983.46 251.95 881.83 193.27 881.83 310.63" style="fill:url(#Dégradé_sans_nom_664-17)"/><polygon points="881.83 310.63 983.46 251.95 881.83 193.27 881.83 310.63" style="fill:url(#Dégradé_sans_nom_664-22)"/><polygon points="881.83 386.55 1049.21 289.91 881.83 193.27 881.83 386.55" style="fill:url(#Dégradé_sans_nom_664-23)"/><polygon points="780.2 134.59 780.2 251.95 881.83 193.27 780.2 134.59" style="fill:url(#Dégradé_sans_nom_664-17)"/><polygon points="780.2 134.59 780.2 251.95 881.83 193.27 780.2 134.59" style="fill:url(#Dégradé_sans_nom_664-25)"/><polygon points="714.45 96.64 714.45 289.91 881.83 193.27 714.45 96.64" style="fill:url(#Dégradé_sans_nom_664-26)"/><polygon points="780.2 251.95 881.83 310.63 881.83 193.27 780.2 251.95" style="fill:url(#Dégradé_sans_nom_664-17)"/><polygon points="780.2 251.95 881.83 310.63 881.83 193.27 780.2 251.95" style="fill:url(#Dégradé_sans_nom_664-22)"/><polygon points="780.2 251.95 881.83 310.63 881.83 193.27 780.2 251.95" style="fill:url(#Dégradé_sans_nom_664-25)"/><polygon points="714.45 289.91 881.83 386.55 881.83 193.27 714.45 289.91" style="fill:url(#Dégradé_sans_nom_664-18)"/><path d="M618.53,507a95.56,95.56,0,0,1-179,61c-24.06-1-46.75-10-67.22-24.62-53.64-37.24-81.86-93-102.59-150.16A285.48,285.48,0,0,0,237.89,524.6c0,158.34,128.37,286.71,286.71,286.71a285.45,285.45,0,0,0,139.08-35.95c11.8-31.8,24.21-63.78,25.75-95.45C691.05,618.6,672.33,542.41,618.53,507Z" style="fill:#1e1616"/><path d="M811.32,524.6c0-106.52-58.1-199.47-144.33-248.91-26.62,15.59-55,28.87-81.35,42.85-44.18,23.88-66.84,65.55-78.6,112.13A95.49,95.49,0,0,1,618.53,507c53.8,35.4,72.52,111.59,70.9,172.9-1.54,31.67-13.95,63.65-25.75,95.45C751.73,726.42,811.32,632.48,811.32,524.6Z" style="fill:#f3ba2f"/><path d="M372.27,543.43c20.47,14.62,43.16,23.66,67.22,24.62A95.54,95.54,0,0,1,507,430.67c11.76-46.58,34.42-88.25,78.6-112.13,26.31-14,54.73-27.26,81.35-42.85a285.38,285.38,0,0,0-142.39-37.8c-111,0-207.28,63.1-254.92,155.38C290.41,450.46,318.63,506.19,372.27,543.43Z" style="fill:#454a75"/><line x1="524.6" y1="524.6" x2="607.37" y2="572.38" style="fill:none"/><line x1="524.6" y1="524.6" x2="441.84" y2="572.38" style="fill:none"/><path d="M441.91,572.38h0A95.55,95.55,0,0,1,524.67,429H795A285.57,285.57,0,0,0,668,276.3q-2.53-1.46-5.08-2.87c-162.52-89.55-339.59,93.62-246.81,254.31Z" style="fill:#f3ba2f"/><path d="M660.53,422.39c21.43-16,17.12-40.29,4.23-66.42l31.57-19.17-11.67-19.22-30.74,18.67c-3.07-5.05-6.3-10.15-9.52-15.22l30.94-18.79L663.68,283,632.11,302.2c-2.61-4.11-5.17-8.15-7.59-12.13l.09-.07-16.08-26.51L588,276s8.89,14,8.49,14c4.73,7.79,1.74,13.07-1.71,16.17l-36,21.85c.32.54-50.53,30.68-50.53,30.68-2.65,1.15-7.43,2.08-10.75-3.35-.06.38-8.48-14-8.48-14l-25.27,10.12,15.19,25c2.82,4.66,5.52,9.29,8.23,13.8l-31.93,19.4,11.66,19.2,31.59-19.19c3.09,5.34,6.15,10.46,9.18,15.44l-31.45,19.09,11.67,19.22L519.81,444c21.48,31.18,43.35,48.85,75.39,33.23,25.81-12.58,29.73-30.69,23-51.7,12.44,7.7,26.67,8.59,42.33-3.15ZM575.92,437c-23.85,14.5-46-28-53.88-41l42.31-25.69c7.91,13,36.46,51.6,11.57,66.71Zm54.26-45.19c-21.71,13.18-39.87-22.43-46.46-33.28l38.37-23.3c6.59,10.85,30.73,42.83,8.09,56.58Z" style="fill:#fff"/><path d="M524.58,429v0a95.54,95.54,0,0,1,82.75,143.33h0L472.19,806.44A285.69,285.69,0,0,0,668,772.92c1.69-1,3.32-2,5-3,158.81-96,88.72-340.9-96.84-340.9Z" style="fill:#1e1616"/><g id="Layer_2" data-name="Layer 2"><g id="Layer_1-2" data-name="Layer 1-2"><path d="M610.93,633.6,665,648.1l-14.5,54.12L682,710.65l22.93-85.6-85.57-22.92-8.43,31.47m-45.27-45.86,31.48,8.43-8.44,31.47-31.47-8.43Zm17.08,62.13L568.25,704l54.12,14.5L614,750h0L528.34,727l22.93-85.57v0l31.46,8.47m61.82,74.55L676,732.86l-8.43,31.47-31.48-8.43Z" style="fill:#fff"/><path d="M628.33,696.26h0l8.56-31.93L605,655.78h0v.05l-8.55,31.91,31.94,8.56h0v0" style="fill:#fff"/></g></g><path d="M607.37,572.38h0a95.55,95.55,0,0,1-165.51,0h0L306.68,338.3a285.55,285.55,0,0,0-68.79,186.3c0,1.95,0,3.9.06,5.84C241.65,716,488.82,777.72,581.6,617Z" style="fill:#454a75"/><path d="M524.6,620.18c-2.56,0-5.1-.11-7.62-.31-70.71,70-182,65.16-250.86,6.06C334.18,731.74,507.34,745.66,581.6,617l25.77-44.64h0A95.52,95.52,0,0,1,524.6,620.18Z" style="fill:url(#Dégradé_sans_nom_298)"/><g id="Layer_1"><g id="_1421394342400" data-name=" 1421394342400"><polygon points="302.62 396.21 275.54 557.12 372.17 572.53 339.85 490.6 302.62 396.21" style="fill:#fff;opacity:0.5"/><polygon points="378.02 587.37 403.31 651.49 438.16 510.15 378.02 587.37" style="fill:#fff;opacity:0.75"/><polygon points="403.31 651.49 378.02 587.37 281.4 571.98 403.31 651.49" style="fill:#fff;opacity:0.5"/><polygon points="372.17 572.53 432.25 495.31 339.85 490.6 372.17 572.53" style="fill:#fff"/><polygon points="302.62 396.21 432.25 495.31 339.85 490.6 302.62 396.21" style="fill:#fff;opacity:0.75"/><polygon points="275.54 557.12 372.17 572.53 339.85 490.6 275.54 557.12" style="fill:#fff;opacity:0.75"/></g></g><circle cx="524.6" cy="524.6" r="95.57" style="fill:#001670"/><circle cx="524.6" cy="524.6" r="87.14" style="fill:#001670"/><polygon points="495.77 507.95 495.77 541.25 524.61 557.89 553.44 541.25 553.44 507.95 524.61 491.31 495.77 507.95" style="fill:#fff"/><path d="M535.7,458A11.1,11.1,0,1,0,521,468.49l3.63,17.27,3.62-17.27A11.08,11.08,0,0,0,535.7,458Z" style="fill:#fff"/><path d="M513.51,591.19a11.1,11.1,0,1,0,14.72-10.49l-3.62-17.26L521,580.7A11.12,11.12,0,0,0,513.51,591.19Z" style="fill:#fff"/><path d="M472.49,481.7a11.1,11.1,0,1,0,1.72,18l16.76,5.5-13.14-11.77A11.09,11.09,0,0,0,472.49,481.7Z" style="fill:#fff"/><path d="M576.72,567.5a11.1,11.1,0,1,0-1.71-18L558.24,544l13.14,11.77A11.11,11.11,0,0,0,576.72,567.5Z" style="fill:#fff"/><path d="M576.72,481.7a11.1,11.1,0,1,1-1.71,18l-16.77,5.5,13.14-11.77A11.1,11.1,0,0,1,576.72,481.7Z" style="fill:#fff"/><path d="M472.49,567.5a11.1,11.1,0,1,1,1.72-18L491,544l-13.14,11.77A11.09,11.09,0,0,1,472.49,567.5Z" style="fill:#fff"/><path d="M441.91,572.38h0a95.52,95.52,0,0,1,0-95.56C459.59,446.18,362.53,199,668,276.3q-2.53-1.46-5.08-2.87c-162.52-89.55-339.59,93.62-246.81,254.31Z" style="fill:#f3ba2f"/><path d="M607.35,476.78c1.28,2.22,2.45,4.48,3.54,6.75,96,26.24,147.42,125,130.68,214.23C799.17,585.91,724.65,429,576.12,429H524.58v0A95.51,95.51,0,0,1,607.35,476.78Z" style="fill:url(#Dégradé_sans_nom_298-2)"/><path d="M441.91,476.81c1.28-2.22,2.65-4.36,4.08-6.44-25.27-96.24,34.55-190.18,120.18-220.28-125.66,6-224.3,149-150,277.65l25.78,44.64h0C425.45,543.78,438.16,510.15,441.91,476.81Z" style="fill:url(#Dégradé_sans_nom_298-3)"/><polygon points="310.25 136.01 295.2 162.08 310.25 188.15 340.36 188.15 355.41 162.08 340.36 136.01 310.25 136.01" style="fill:url(#Dégradé_sans_nom_684)"/><polygon points="719.74 882.07 689.88 878.26 671.65 902.22 683.29 929.99 713.15 933.79 731.38 909.83 719.74 882.07" style="fill:url(#Dégradé_sans_nom_684-2)"/><polygon points="114.74 387.12 73.09 403.48 66.44 447.72 101.43 475.61 143.07 459.25 149.73 415 114.74 387.12" style="fill:url(#Dégradé_sans_nom_684-3)"/><polygon points="1010.98 642.1 984.16 655.77 982.58 685.83 1007.83 702.23 1034.65 688.56 1036.23 658.5 1010.98 642.1" style="fill:url(#Dégradé_sans_nom_684-4)"/><polygon points="610.39 391.72 602.6 376.75 585.75 376.01 576.68 390.24 584.46 405.2 601.32 405.95 610.39 391.72" style="fill:url(#Dégradé_sans_nom_684-5)"/><polygon points="840.36 592.18 831.82 606.99 840.36 621.79 857.46 621.79 866 606.99 857.46 592.18 840.36 592.18" style="fill:url(#Dégradé_sans_nom_684-6)"/></g></svg>