<svg xmlns="http://www.w3.org/2000/svg" viewBox="0 0 87.06 70.75"><g id="Calque_2" data-name="Calque 2"><g id="TEXT_AND_INFOS" data-name="TEXT AND INFOS"><path d="M87.06,8.38A35.59,35.59,0,0,1,76.8,11.19a17.94,17.94,0,0,0,7.86-9.88A35.91,35.91,0,0,1,73.31,5.64a17.87,17.87,0,0,0-30.9,12.22,17.64,17.64,0,0,0,.47,4.07A50.68,50.68,0,0,1,6.06,3.27a17.88,17.88,0,0,0,5.53,23.85A17.86,17.86,0,0,1,3.5,24.88v.23A17.86,17.86,0,0,0,17.82,42.62a17.83,17.83,0,0,1-8.06.31,17.87,17.87,0,0,0,16.68,12.4A35.83,35.83,0,0,1,4.26,63,37.48,37.48,0,0,1,0,62.73a50.51,50.51,0,0,0,27.38,8c32.85,0,50.82-27.21,50.82-50.82,0-.77,0-1.54,0-2.31a36.24,36.24,0,0,0,8.91-9.24Z" style="fill:#788cff"/></g></g></svg>